<svg width="36" height="34" viewBox="0 0 36 34" fill="none" xmlns="http://www.w3.org/2000/svg">
<path d="M35.8852 10.8328C35.8852 5.38284 31.4672 0.964844 26.0182 0.964844C22.7102 0.964844 19.7912 2.59784 18.0002 5.09384C16.2092 2.59784 13.2902 0.964844 9.98323 0.964844C4.53323 0.964844 0.115234 5.38184 0.115234 10.8328C0.115234 11.6048 0.213234 12.3528 0.381234 13.0738C1.75123 21.5868 11.2162 30.5678 18.0002 33.0338C24.7832 30.5678 34.2492 21.5868 35.6172 13.0748C35.7872 12.3538 35.8852 11.6058 35.8852 10.8328V10.8328Z" fill="#F4ABBA"/>
<path d="M31.4231 12.3718C31.4231 8.28082 28.1081 4.96582 24.0181 4.96582C21.5361 4.96582 19.3451 6.19082 18.0001 8.06482C16.6561 6.19082 14.4651 4.96582 11.9831 4.96582C7.89315 4.96582 4.57715 8.28082 4.57715 12.3718C4.57715 12.9508 4.65115 13.5128 4.77615 14.0528C5.80515 20.4418 12.9081 27.1838 18.0001 29.0338C23.0911 27.1828 30.1951 20.4418 31.2231 14.0538C31.3501 13.5128 31.4231 12.9508 31.4231 12.3718V12.3718Z" fill="#EA596E"/>
<path d="M27.1906 13.8308C27.1906 11.0298 24.9206 8.75879 22.1206 8.75879C20.4206 8.75879 18.9206 9.59779 17.9996 10.8818C17.0796 9.59779 15.5786 8.75879 13.8786 8.75879C11.0776 8.75879 8.80664 11.0298 8.80664 13.8308C8.80664 14.2278 8.85664 14.6118 8.94264 14.9818C9.64764 19.3578 14.5116 23.9738 17.9986 25.2408C21.4836 23.9728 26.3506 19.3568 27.0536 14.9818C27.1416 14.6118 27.1906 14.2268 27.1906 13.8308V13.8308Z" fill="#DD2E44"/>
</svg>
