<svg width="36" height="36" viewBox="0 0 36 36" fill="none" xmlns="http://www.w3.org/2000/svg">
<path d="M36 18C36 27.941 27.941 36 18 36C8.059 36 0 27.941 0 18C0 8.059 8.059 0 18 0C27.941 0 36 8.059 36 18Z" fill="#FFCC4D"/>
<path d="M18 21C14.377 21 11.973 20.578 9 20C8.321 19.869 7 20 7 22C7 26 11.595 31 18 31C24.404 31 29 26 29 22C29 20 27.679 19.868 27 20C24.027 20.578 21.623 21 18 21Z" fill="#664500"/>
<path d="M9 22C9 22 12 23 18 23C24 23 27 22 27 22C27 22 25 26 18 26C11 26 9 22 9 22Z" fill="white"/>
<path d="M15.6818 4.41279L11.1398 5.21379L8.79977 0.960785C8.54177 0.491785 8.01177 0.240785 7.48777 0.332785C6.96077 0.425785 6.55077 0.843785 6.46877 1.37179L5.72377 6.16879L1.18177 6.96979C0.646774 7.06379 0.233774 7.49479 0.160774 8.03379C0.087774 8.57279 0.371774 9.09679 0.863774 9.33079L4.93377 11.2628L4.18577 16.0748C4.10277 16.6108 4.37477 17.1388 4.85877 17.3838C5.03777 17.4738 5.22977 17.5168 5.42077 17.5168C5.74777 17.5168 6.07077 17.3888 6.31177 17.1448L9.82377 13.5838L14.3418 15.7288C14.8318 15.9608 15.4158 15.8518 15.7878 15.4568C16.1598 15.0618 16.2338 14.4728 15.9728 13.9978L13.6248 9.72978L16.7898 6.52179C17.1718 6.13479 17.2588 5.54479 17.0068 5.06279C16.7528 4.58079 16.2138 4.31979 15.6818 4.41279V4.41279ZM20.3178 4.41279L24.8598 5.21379L27.1998 0.960785C27.4578 0.491785 27.9878 0.240785 28.5118 0.332785C29.0378 0.425785 29.4478 0.843785 29.5298 1.37179L30.2748 6.16879L34.8168 6.96979C35.3528 7.06379 35.7658 7.49379 35.8378 8.03279C35.9098 8.57179 35.6268 9.09579 35.1348 9.32979L31.0648 11.2618L31.8128 16.0738C31.8958 16.6098 31.6238 17.1378 31.1398 17.3828C30.9608 17.4728 30.7688 17.5158 30.5778 17.5158C30.2508 17.5158 29.9278 17.3878 29.6868 17.1438L26.1748 13.5828L21.6568 15.7278C21.1668 15.9598 20.5828 15.8508 20.2108 15.4558C19.8388 15.0608 19.7648 14.4718 20.0258 13.9968L22.3738 9.72978L19.2088 6.52179C18.8268 6.13479 18.7398 5.54479 18.9918 5.06279C19.2468 4.58079 19.7858 4.31979 20.3178 4.41279V4.41279Z" fill="#E95F28"/>
</svg>
