<svg width="150" height="50" viewBox="0 0 150 50" fill="none" xmlns="http://www.w3.org/2000/svg">
<g clip-path="url(#clip0)">
<path d="M137.668 4.04297e-05H11.9184C11.46 4.04297e-05 11.0071 4.04298e-05 10.5499 0.00254043C10.1672 0.00504043 9.78761 0.0123029 9.40125 0.0184154C8.56189 0.0282927 7.72451 0.102136 6.89637 0.239303C6.06941 0.379456 5.26834 0.643685 4.52028 1.02305C3.77312 1.40563 3.09043 1.90275 2.49696 2.49638C1.90038 3.08834 1.40308 3.77256 1.02419 4.52274C0.64425 5.27143 0.380801 6.07371 0.242938 6.90189C0.103764 7.72902 0.028873 8.56569 0.0189375 9.40439C0.0073375 9.78764 0.0061125 10.1722 0 10.5555V39.4483C0.0061125 39.8364 0.0073375 40.2124 0.0189375 40.6007C0.028876 41.4393 0.103767 42.2759 0.242938 43.103C0.38042 43.9317 0.643885 44.7344 1.02419 45.4834C1.40291 46.2312 1.90028 46.9126 2.49696 47.5013C3.08818 48.0976 3.77132 48.595 4.52028 48.9747C5.26833 49.355 6.06931 49.6208 6.89637 49.7632C7.72465 49.8992 8.56195 49.9731 9.40125 49.9842C9.78761 49.9927 10.1672 49.9975 10.5499 49.9975C11.0071 50 11.46 50 11.9184 50H137.668C138.118 50 138.574 50 139.023 49.9975C139.404 49.9975 139.795 49.9927 140.176 49.9842C141.014 49.9737 141.849 49.8998 142.676 49.7632C143.506 49.6199 144.309 49.3541 145.061 48.9747C145.809 48.5948 146.492 48.0974 147.083 47.5013C147.678 46.9103 148.176 46.2294 148.56 45.4834C148.937 44.7339 149.198 43.9312 149.333 43.103C149.473 42.2758 149.55 41.4394 149.565 40.6007C149.57 40.2124 149.57 39.8364 149.57 39.4483C149.58 38.9942 149.58 38.5425 149.58 38.081V11.9202C149.58 11.4624 149.58 11.0083 149.57 10.5555C149.57 10.1722 149.57 9.78764 149.565 9.40434C149.55 8.56557 149.473 7.72909 149.333 6.90184C149.198 6.07414 148.937 5.27192 148.56 4.52269C147.788 3.01904 146.564 1.79507 145.061 1.02294C144.309 0.6445 143.505 0.380341 142.676 0.23919C141.849 0.101419 141.014 0.0275501 140.176 0.0182404C139.795 0.0121404 139.404 0.00481543 139.023 0.00237793C138.574 -0.00012207 138.118 -0.00012207 137.668 -0.00012207V4.04297e-05Z" fill="#A6A6A6"/>
<path d="M10.5561 48.9063C10.1752 48.9063 9.80358 48.9014 9.42572 48.8929C8.64295 48.8827 7.86201 48.8145 7.0893 48.689C6.36878 48.5649 5.6708 48.3341 5.01837 48.0041C4.37192 47.6769 3.78231 47.2478 3.27212 46.7334C2.75455 46.225 2.32364 45.6353 1.99648 44.9878C1.66572 44.336 1.43681 43.6374 1.31773 42.9163C1.18914 42.1414 1.11956 41.3579 1.10961 40.5725C1.10168 40.3089 1.09131 39.4311 1.09131 39.4311V10.5554C1.09131 10.5554 1.10236 9.69116 1.10967 9.43725C1.1192 8.6531 1.18837 7.87082 1.31658 7.09716C1.43588 6.37406 1.66497 5.67344 1.99591 5.01954C2.32186 4.37243 2.75038 3.78233 3.26483 3.2721C3.77871 2.75703 4.37021 2.32576 5.01776 1.99401C5.66869 1.66512 6.36535 1.43592 7.08441 1.31409C7.85966 1.1873 8.64331 1.11875 9.4288 1.10901L10.5567 1.09375H139.017L140.159 1.10963C140.937 1.11887 141.714 1.18681 142.482 1.31286C143.208 1.43622 143.912 1.66702 144.57 1.99768C145.868 2.66623 146.923 3.72395 147.589 5.02259C147.915 5.67197 148.14 6.36688 148.258 7.08374C148.388 7.86374 148.46 8.65217 148.475 9.44275C148.479 9.79675 148.479 10.177 148.479 10.5554C148.489 11.0242 148.489 11.4703 148.489 11.9202V38.081C148.489 38.5351 148.489 38.9783 148.479 39.425C148.479 39.8315 148.479 40.2039 148.474 40.5871C148.46 41.3636 148.388 42.138 148.261 42.904C148.144 43.6303 147.916 44.3344 147.586 44.9915C147.256 45.632 146.828 46.2166 146.316 46.7236C145.805 47.2409 145.215 47.6724 144.567 48.0018C143.91 48.3342 143.207 48.5659 142.482 48.689C141.709 48.8152 140.928 48.8834 140.145 48.8929C139.779 48.9014 139.396 48.9063 139.024 48.9063L137.669 48.9088L10.5561 48.9063Z" fill="black"/>
<path d="M30.961 25.3761C30.9744 24.3328 31.2516 23.3098 31.7666 22.4023C32.2816 21.4949 33.0178 20.7325 33.9067 20.186C33.342 19.3796 32.5971 18.7159 31.7311 18.2477C30.865 17.7795 29.9017 17.5197 28.9177 17.4889C26.8187 17.2686 24.7838 18.7449 23.7141 18.7449C22.6238 18.7449 20.9769 17.5108 19.2035 17.5473C18.0564 17.5843 16.9385 17.9179 15.9586 18.5155C14.9788 19.113 14.1704 19.9542 13.6123 20.9571C11.1948 25.1426 12.9981 31.2939 15.3138 34.6772C16.4725 36.3339 17.8266 38.1845 19.5984 38.1188C21.3322 38.0469 21.9798 37.0132 24.0726 37.0132C26.1461 37.0132 26.7536 38.1188 28.5614 38.0771C30.4219 38.0469 31.594 36.4131 32.712 34.7407C33.5445 33.5602 34.1851 32.2556 34.61 30.875C33.5292 30.4179 32.6068 29.6527 31.9579 28.6748C31.309 27.6969 30.9623 26.5497 30.961 25.3761Z" fill="white"/>
<path d="M27.5465 15.2637C28.5609 14.046 29.0606 12.4807 28.9396 10.9005C27.3898 11.0632 25.9583 11.8039 24.9302 12.975C24.4275 13.547 24.0425 14.2126 23.7972 14.9336C23.5519 15.6545 23.4511 16.4168 23.5005 17.1767C24.2757 17.1847 25.0426 17.0167 25.7434 16.6853C26.4442 16.3539 27.0607 15.8679 27.5465 15.2637Z" fill="white"/>
<path d="M52.8779 33.9247H46.9612L45.5403 38.1203H43.0342L48.6384 22.5978H51.2422L56.8464 38.1203H54.2976L52.8779 33.9247ZM47.574 31.9887H52.264L49.952 25.1796H49.8873L47.574 31.9887Z" fill="white"/>
<path d="M68.95 32.4622C68.95 35.9791 67.0677 38.2386 64.2271 38.2386C63.5075 38.2762 62.7919 38.1105 62.1622 37.7603C61.5324 37.4101 61.014 36.8897 60.6663 36.2586H60.6126V41.8641H58.2896V26.8031H60.5381V28.6854H60.5809C60.9445 28.0573 61.4717 27.5396 62.1062 27.1873C62.7408 26.8349 63.459 26.6612 64.1844 26.6846C67.0566 26.6847 68.95 28.9552 68.95 32.4622ZM66.5623 32.4622C66.5623 30.171 65.3782 28.6646 63.5716 28.6646C61.7967 28.6646 60.6028 30.2027 60.6028 32.4622C60.6028 34.7425 61.7967 36.2696 63.5716 36.2696C65.3782 36.2696 66.5623 34.7743 66.5623 32.4622Z" fill="white"/>
<path d="M81.4061 32.4622C81.4061 35.9791 79.5237 38.2386 76.6832 38.2386C75.9636 38.2762 75.248 38.1105 74.6182 37.7603C73.9885 37.4101 73.4701 36.8897 73.1224 36.2586H73.0686V41.8641H70.7456V26.803H72.9941V28.6854H73.0369C73.4006 28.0573 73.9277 27.5396 74.5623 27.1872C75.1968 26.8349 75.915 26.6612 76.6404 26.6846C79.5127 26.6846 81.4061 28.9551 81.4061 32.4622ZM79.0184 32.4622C79.0184 30.171 77.8343 28.6646 76.0276 28.6646C74.2527 28.6646 73.0589 30.2027 73.0589 32.4622C73.0589 34.7425 74.2527 36.2696 76.0276 36.2696C77.8343 36.2696 79.0184 34.7742 79.0184 32.4622H79.0184Z" fill="white"/>
<path d="M89.6382 33.7953C89.8103 35.3346 91.3057 36.3453 93.3492 36.3453C95.3072 36.3453 96.7159 35.3346 96.7159 33.9466C96.7159 32.7418 95.8662 32.0204 93.8545 31.526L91.8428 31.0413C88.9925 30.3529 87.6692 29.0198 87.6692 26.8568C87.6692 24.1785 90.0032 22.3389 93.3174 22.3389C96.5974 22.3389 98.846 24.1785 98.9217 26.8568H96.5767C96.4363 25.3077 95.1558 24.3726 93.2844 24.3726C91.4131 24.3726 90.1326 25.3187 90.1326 26.6956C90.1326 27.793 90.9505 28.4388 92.9512 28.9331L94.6614 29.3531C97.8462 30.1062 99.1694 31.3856 99.1694 33.656C99.1694 36.5601 96.8562 38.3789 93.177 38.3789C89.7346 38.3789 87.4104 36.6028 87.2603 33.7952L89.6382 33.7953Z" fill="white"/>
<path d="M104.183 24.1248V26.803H106.335V28.6426H104.183V34.8816C104.183 35.8508 104.614 36.3025 105.56 36.3025C105.815 36.298 106.07 36.2801 106.324 36.2487V38.0774C105.898 38.1568 105.466 38.1928 105.033 38.1848C102.742 38.1848 101.849 37.3242 101.849 35.1294V28.6426H100.203V26.803H101.849V24.1248H104.183Z" fill="white"/>
<path d="M107.581 32.4622C107.581 28.9014 109.678 26.6638 112.948 26.6638C116.23 26.6638 118.317 28.9013 118.317 32.4622C118.317 36.0327 116.241 38.2605 112.948 38.2605C109.657 38.2605 107.581 36.0327 107.581 32.4622ZM115.95 32.4622C115.95 30.0195 114.831 28.5779 112.948 28.5779C111.066 28.5779 109.948 30.0305 109.948 32.4622C109.948 34.9145 111.066 36.3452 112.948 36.3452C114.831 36.3452 115.95 34.9145 115.95 32.4622H115.95Z" fill="white"/>
<path d="M120.233 26.803H122.449V28.7293H122.502C122.652 28.1277 123.005 27.596 123.5 27.2236C123.996 26.8513 124.605 26.6609 125.224 26.6846C125.492 26.6836 125.759 26.7127 126.02 26.7713V28.9441C125.682 28.8408 125.33 28.7934 124.977 28.8037C124.639 28.79 124.303 28.8495 123.99 28.9782C123.678 29.1068 123.397 29.3014 123.167 29.5488C122.937 29.7962 122.764 30.0904 122.658 30.4112C122.553 30.732 122.518 31.0719 122.556 31.4075V38.1201H120.233L120.233 26.803Z" fill="white"/>
<path d="M136.73 34.7961C136.418 36.8506 134.417 38.2605 131.857 38.2605C128.565 38.2605 126.521 36.0547 126.521 32.5159C126.521 28.9661 128.576 26.6638 131.76 26.6638C134.891 26.6638 136.86 28.8147 136.86 32.2461V33.042H128.866V33.1824C128.83 33.5989 128.882 34.0184 129.019 34.4132C129.157 34.808 129.377 35.169 129.665 35.4722C129.953 35.7754 130.302 36.0138 130.69 36.1717C131.077 36.3296 131.493 36.4033 131.911 36.3879C132.46 36.4394 133.011 36.3122 133.482 36.0254C133.953 35.7386 134.318 35.3075 134.524 34.7961L136.73 34.7961ZM128.877 31.4185H134.535C134.556 31.044 134.499 30.6692 134.369 30.3177C134.238 29.9662 134.036 29.6455 133.775 29.3758C133.514 29.1061 133.201 28.8932 132.854 28.7504C132.507 28.6076 132.135 28.5381 131.76 28.5461C131.381 28.5439 131.006 28.6166 130.656 28.76C130.306 28.9034 129.988 29.1148 129.72 29.3818C129.452 29.6488 129.24 29.9663 129.095 30.3159C128.95 30.6654 128.876 31.0402 128.877 31.4185V31.4185Z" fill="white"/>
<path d="M47.2825 10.9139C47.7695 10.8789 48.2582 10.9525 48.7133 11.1293C49.1685 11.3061 49.5787 11.5817 49.9144 11.9362C50.2502 12.2907 50.503 12.7154 50.6548 13.1794C50.8065 13.6435 50.8534 14.1355 50.792 14.6199C50.792 17.0027 49.5041 18.3724 47.2825 18.3724H44.5884V10.9139H47.2825ZM45.7468 17.3176H47.1531C47.5011 17.3384 47.8493 17.2814 48.1725 17.1506C48.4957 17.0198 48.7856 16.8186 49.0212 16.5617C49.2569 16.3047 49.4322 15.9985 49.5345 15.6652C49.6369 15.3319 49.6636 14.98 49.6128 14.6351C49.6599 14.2916 49.6305 13.9419 49.5266 13.611C49.4227 13.2802 49.2469 12.9764 49.0118 12.7215C48.7767 12.4666 48.4882 12.2669 48.1668 12.1366C47.8455 12.0063 47.4993 11.9487 47.1531 11.9679H45.7468V17.3176Z" fill="white"/>
<path d="M52.1004 15.5554C52.0651 15.1855 52.1074 14.8123 52.2247 14.4597C52.342 14.1071 52.5317 13.783 52.7816 13.508C53.0315 13.233 53.3362 13.0133 53.676 12.863C54.0158 12.7126 54.3833 12.6349 54.7549 12.6349C55.1265 12.6349 55.4939 12.7126 55.8338 12.863C56.1736 13.0133 56.4782 13.233 56.7281 13.508C56.9781 13.783 57.1678 14.1071 57.2851 14.4597C57.4024 14.8123 57.4447 15.1855 57.4093 15.5554C57.4454 15.9257 57.4035 16.2994 57.2866 16.6526C57.1696 17.0057 56.98 17.3305 56.73 17.606C56.48 17.8815 56.1751 18.1017 55.835 18.2524C55.4948 18.4031 55.1269 18.4809 54.7549 18.4809C54.3828 18.4809 54.0149 18.4031 53.6748 18.2524C53.3346 18.1017 53.0297 17.8815 52.7798 17.606C52.5298 17.3305 52.3402 17.0057 52.2232 16.6526C52.1062 16.2994 52.0644 15.9257 52.1004 15.5554ZM56.2667 15.5554C56.2667 14.3353 55.7186 13.6218 54.7567 13.6218C53.7911 13.6218 53.2479 14.3353 53.2479 15.5554C53.2479 16.7853 53.7912 17.4933 54.7567 17.4933C55.7186 17.4933 56.2667 16.7804 56.2667 15.5554H56.2667Z" fill="white"/>
<path d="M64.4663 18.3723H63.314L62.1506 14.2268H62.0628L60.9043 18.3723H59.7629L58.2114 12.7437H59.3381L60.3464 17.0387H60.4295L61.5867 12.7437H62.6523L63.8096 17.0387H63.8975L64.9009 12.7437H66.0117L64.4663 18.3723Z" fill="white"/>
<path d="M67.3169 12.7436H68.3862V13.6378H68.4692C68.6101 13.3167 68.8476 13.0474 69.1487 12.8677C69.4498 12.6879 69.7994 12.6066 70.1489 12.635C70.4228 12.6144 70.6978 12.6557 70.9536 12.7558C71.2093 12.8559 71.4393 13.0123 71.6264 13.2134C71.8135 13.4144 71.9529 13.655 72.0344 13.9173C72.1159 14.1796 72.1374 14.4568 72.0972 14.7285V18.3722H70.9863V15.0074C70.9863 14.1029 70.5933 13.6531 69.7717 13.6531C69.5858 13.6444 69.4002 13.6761 69.2276 13.7458C69.055 13.8156 68.8996 13.9219 68.7719 14.0574C68.6443 14.1929 68.5474 14.3544 68.488 14.5308C68.4286 14.7072 68.408 14.8944 68.4277 15.0795V18.3723H67.3169L67.3169 12.7436Z" fill="white"/>
<path d="M73.8672 10.5464H74.978V18.3723H73.8672V10.5464Z" fill="white"/>
<path d="M76.5218 15.5557C76.4864 15.1858 76.5288 14.8126 76.6461 14.46C76.7634 14.1074 76.9532 13.7832 77.2031 13.5082C77.4531 13.2332 77.7577 13.0135 78.0976 12.8631C78.4374 12.7128 78.8049 12.6351 79.1765 12.6351C79.5481 12.6351 79.9156 12.7128 80.2555 12.8631C80.5953 13.0135 80.9 13.2332 81.1499 13.5082C81.3999 13.7832 81.5896 14.1074 81.7069 14.46C81.8243 14.8126 81.8666 15.1858 81.8312 15.5557C81.8673 15.926 81.8254 16.2997 81.7084 16.6529C81.5914 17.006 81.4017 17.3308 81.1517 17.6063C80.9017 17.8818 80.5968 18.102 80.2567 18.2527C79.9165 18.4033 79.5486 18.4811 79.1765 18.4811C78.8045 18.4811 78.4366 18.4033 78.0964 18.2527C77.7562 18.102 77.4513 17.8818 77.2013 17.6063C76.9513 17.3308 76.7617 17.006 76.6447 16.6529C76.5276 16.2997 76.4858 15.926 76.5218 15.5557ZM80.688 15.5557C80.688 14.3356 80.1399 13.6221 79.178 13.6221C78.2125 13.6221 77.6693 14.3356 77.6693 15.5557C77.6693 16.7856 78.2125 17.4936 79.178 17.4936C80.14 17.4936 80.6881 16.7807 80.6881 15.5557H80.688Z" fill="white"/>
<path d="M83.0005 16.7804C83.0005 15.7673 83.7549 15.1832 85.094 15.1001L86.6186 15.0123V14.5264C86.6186 13.9319 86.2256 13.5962 85.4663 13.5962C84.8462 13.5962 84.4165 13.8239 84.2932 14.2219H83.2178C83.3313 13.2551 84.2407 12.6349 85.5176 12.6349C86.9287 12.6349 87.7246 13.3374 87.7246 14.5264V18.3722H86.6553V17.5812H86.5674C86.389 17.865 86.1385 18.0963 85.8414 18.2516C85.5444 18.4068 85.2115 18.4805 84.8767 18.465C84.6404 18.4896 84.4016 18.4644 84.1756 18.391C83.9497 18.3176 83.7416 18.1977 83.5649 18.039C83.3881 17.8803 83.2465 17.6863 83.1493 17.4695C83.0521 17.2527 83.0014 17.018 83.0005 16.7804ZM86.6186 16.2995V15.8289L85.2441 15.9168C84.469 15.9687 84.1174 16.2323 84.1174 16.7286C84.1174 17.2351 84.5569 17.5299 85.1612 17.5299C85.3382 17.5479 85.5171 17.53 85.6871 17.4774C85.8571 17.4248 86.0148 17.3385 86.1508 17.2237C86.2867 17.1089 86.3982 16.9679 86.4786 16.8091C86.559 16.6504 86.6066 16.477 86.6186 16.2995Z" fill="white"/>
<path d="M89.1846 15.5556C89.1846 13.777 90.0989 12.6503 91.521 12.6503C91.8728 12.6341 92.2219 12.7183 92.5275 12.8932C92.8332 13.0681 93.0828 13.3263 93.2471 13.6378H93.3301V10.5464H94.4409V18.3723H93.3765V17.483H93.2886C93.1116 17.7924 92.8533 18.0474 92.5417 18.2205C92.2302 18.3936 91.8772 18.4782 91.521 18.4651C90.0891 18.4651 89.1846 17.3384 89.1846 15.5556ZM90.3321 15.5556C90.3321 16.7494 90.8948 17.4678 91.836 17.4678C92.7722 17.4678 93.3509 16.739 93.3509 15.5604C93.3509 14.3873 92.7662 13.6482 91.836 13.6482C90.9009 13.6482 90.332 14.3715 90.332 15.5556H90.3321Z" fill="white"/>
<path d="M99.037 15.5554C99.0016 15.1855 99.0439 14.8123 99.1612 14.4597C99.2785 14.1071 99.4682 13.783 99.7181 13.508C99.9681 13.233 100.273 13.0133 100.612 12.863C100.952 12.7126 101.32 12.6349 101.691 12.6349C102.063 12.6349 102.43 12.7126 102.77 12.863C103.11 13.0133 103.415 13.233 103.665 13.508C103.915 13.783 104.104 14.1071 104.222 14.4597C104.339 14.8123 104.381 15.1855 104.346 15.5554C104.382 15.9257 104.34 16.2994 104.223 16.6526C104.106 17.0057 103.916 17.3305 103.666 17.606C103.417 17.8815 103.112 18.1017 102.771 18.2524C102.431 18.4031 102.063 18.4809 101.691 18.4809C101.319 18.4809 100.951 18.4031 100.611 18.2524C100.271 18.1017 99.9663 17.8815 99.7163 17.606C99.4663 17.3305 99.2767 17.0057 99.1597 16.6526C99.0427 16.2994 99.0009 15.9257 99.037 15.5554ZM103.203 15.5554C103.203 14.3353 102.655 13.6218 101.693 13.6218C100.728 13.6218 100.184 14.3353 100.184 15.5554C100.184 16.7853 100.728 17.4933 101.693 17.4933C102.655 17.4933 103.203 16.7804 103.203 15.5554Z" fill="white"/>
<path d="M105.836 12.7436H106.906V13.6378H106.989C107.13 13.3167 107.367 13.0474 107.668 12.8677C107.969 12.6879 108.319 12.6066 108.668 12.635C108.942 12.6144 109.217 12.6557 109.473 12.7558C109.729 12.8559 109.959 13.0123 110.146 13.2134C110.333 13.4144 110.472 13.655 110.554 13.9173C110.635 14.1796 110.657 14.4568 110.617 14.7285V18.3722H109.506V15.0074C109.506 14.1029 109.113 13.6531 108.291 13.6531C108.105 13.6444 107.92 13.6761 107.747 13.7458C107.575 13.8156 107.419 13.9219 107.291 14.0574C107.164 14.1929 107.067 14.3544 107.008 14.5308C106.948 14.7072 106.928 14.8944 106.947 15.0795V18.3723H105.836V12.7436Z" fill="white"/>
<path d="M116.893 11.3423V12.7693H118.113V13.705H116.893V16.5993C116.893 17.1889 117.136 17.4471 117.689 17.4471C117.831 17.4466 117.972 17.4381 118.113 17.4214V18.3467C117.913 18.3824 117.711 18.4014 117.509 18.4035C116.273 18.4035 115.781 17.9689 115.781 16.8837V13.705H114.888V12.7693H115.781V11.3423H116.893Z" fill="white"/>
<path d="M119.631 10.5464H120.732V13.6482H120.82C120.967 13.324 121.212 13.0533 121.519 12.8729C121.826 12.6924 122.181 12.6111 122.536 12.6399C122.809 12.6251 123.081 12.6706 123.334 12.7731C123.587 12.8757 123.814 13.0328 123.999 13.2332C124.184 13.4336 124.323 13.6724 124.405 13.9326C124.487 14.1928 124.511 14.4679 124.475 14.7383V18.3723H123.363V15.0123C123.363 14.1133 122.944 13.6579 122.159 13.6579C121.968 13.6423 121.776 13.6685 121.596 13.7349C121.417 13.8012 121.254 13.906 121.119 14.0419C120.984 14.1778 120.88 14.3416 120.815 14.5217C120.75 14.7019 120.725 14.8941 120.742 15.0849V18.3723H119.631L119.631 10.5464Z" fill="white"/>
<path d="M130.951 16.8527C130.8 17.3671 130.473 17.8121 130.027 18.1098C129.582 18.4075 129.045 18.5389 128.512 18.4811C128.141 18.4909 127.773 18.4199 127.432 18.273C127.092 18.126 126.787 17.9068 126.54 17.6303C126.292 17.3539 126.108 17.027 126 16.6722C125.891 16.3174 125.861 15.9433 125.912 15.5758C125.863 15.2072 125.893 14.8323 126.001 14.4765C126.109 14.1206 126.293 13.7922 126.539 13.5133C126.785 13.2345 127.088 13.0118 127.428 12.8603C127.767 12.7088 128.136 12.632 128.507 12.6352C130.074 12.6352 131.018 13.7052 131.018 15.4727V15.8603H127.044V15.9225C127.026 16.1291 127.052 16.337 127.12 16.5329C127.188 16.7289 127.296 16.9085 127.437 17.0603C127.578 17.2121 127.749 17.3328 127.94 17.4145C128.13 17.4963 128.336 17.5373 128.543 17.535C128.809 17.5669 129.078 17.5191 129.316 17.3976C129.555 17.2761 129.752 17.0864 129.882 16.8527L130.951 16.8527ZM127.044 15.0387H129.887C129.901 14.8498 129.875 14.6601 129.811 14.4817C129.748 14.3033 129.647 14.1402 129.517 14.0029C129.386 13.8655 129.229 13.757 129.054 13.6843C128.879 13.6116 128.691 13.5763 128.501 13.5806C128.309 13.5782 128.118 13.6143 127.941 13.6867C127.763 13.7591 127.601 13.8664 127.465 14.0023C127.329 14.1382 127.222 14.2999 127.15 14.4779C127.077 14.6559 127.041 14.8466 127.044 15.0387H127.044Z" fill="white"/>
</g>
<defs>
<clipPath id="clip0">
<rect width="149.58" height="50" fill="white"/>
</clipPath>
</defs>
</svg>
