<svg width="48" height="48" viewBox="0 0 48 48" fill="none" xmlns="http://www.w3.org/2000/svg">
<path d="M26.1244 24L33.56 31.4355C34.1467 32.0223 34.1467 32.9734 33.56 33.56C32.9734 34.1467 32.0223 34.1467 31.4355 33.56L24 26.1244L16.5644 33.56C15.9778 34.1467 15.0266 34.1467 14.44 33.56C13.8533 32.9734 13.8533 32.0223 14.44 31.4355L21.8756 24L14.44 16.5644C13.8533 15.9778 13.8533 15.0266 14.44 14.44C15.0266 13.8533 15.9778 13.8533 16.5644 14.44L24 21.8756L31.4355 14.44C32.0223 13.8533 32.9734 13.8533 33.56 14.44C34.1467 15.0266 34.1467 15.9778 33.56 16.5644L26.1244 24Z" fill="white"/>
</svg>
