<svg width="24" height="24" viewBox="0 0 24 24" fill="none" xmlns="http://www.w3.org/2000/svg">
<path d="M13.4871 12L18.692 17.2049C19.1027 17.6156 19.1027 18.2814 18.692 18.692C18.2814 19.1027 17.6156 19.1027 17.2049 18.692L12 13.4871L6.7951 18.692C6.38445 19.1027 5.71865 19.1027 5.30799 18.692C4.89734 18.2814 4.89734 17.6156 5.30799 17.2049L10.5129 12L5.30799 6.7951C4.89734 6.38445 4.89734 5.71865 5.30799 5.30799C5.71865 4.89734 6.38445 4.89734 6.7951 5.30799L12 10.5129L17.2049 5.30799C17.6156 4.89734 18.2814 4.89734 18.692 5.30799C19.1027 5.71865 19.1027 6.38445 18.692 6.7951L13.4871 12Z" fill="#0D2D80"/>
</svg>
