<svg width="50" height="32" viewBox="0 0 50 32" fill="none" xmlns="http://www.w3.org/2000/svg">
<path d="M5.32812 17.7781V23.1114H30.217V17.7781H5.32812ZM19.5503 19.5559H21.3281V21.3336H19.5503V19.5559ZM23.1059 19.5559H24.8837V21.3336H23.1059V19.5559ZM26.6615 19.5559H28.4392V21.3336H26.6615V19.5559Z" fill="#0D2D80"/>
<path d="M3.55556 0C1.59188 -1.77778e-07 -1.77778e-07 1.59188 0 3.55556V28.4444C-1.77778e-07 30.4081 1.59188 32 3.55556 32H46.2222C48.1859 32 49.7778 30.4081 49.7778 28.4444V3.55556C49.7778 1.59188 48.1859 -1.77778e-07 46.2222 0H3.55556ZM3.55556 1.77778H46.2222C47.2041 1.77778 48 2.57372 48 3.55556V5.33333H1.77778V3.55556C1.77778 2.57372 2.57372 1.77778 3.55556 1.77778ZM1.77778 14.2222H48V28.4444C48 29.4263 47.2041 30.2222 46.2222 30.2222H3.55556C2.57372 30.2222 1.77778 29.4263 1.77778 28.4444V14.2222Z" fill="#0D2D80"/>
</svg>
