<svg width="32" height="32" viewBox="0 0 32 32" fill="none" xmlns="http://www.w3.org/2000/svg">
<circle cx="16" cy="16" r="16" fill="white"/>
<circle cx="16" cy="16" r="14" fill="#007AFF"/>
<path fill-rule="evenodd" clip-rule="evenodd" d="M13.8044 10.9823C14.6793 10.3415 15.9249 10 17.4413 10C18.1966 10 18.9457 10.0835 19.522 10.218C20.147 10.3639 20.4585 10.905 20.4585 11.4148C20.4585 11.8143 20.2216 12.142 19.9204 12.3482C19.6208 12.5533 19.2223 12.6645 18.8298 12.6106C18.5094 12.5666 18.1573 12.5416 17.7995 12.5416C17.0337 12.5416 16.5015 12.6992 16.1693 12.936C15.8502 13.1635 15.6765 13.4912 15.6765 13.931C15.6765 14.2443 15.7522 14.4619 15.8182 14.5955C15.8272 14.6138 15.8361 14.6307 15.8448 14.6462H18.3063C19.0211 14.6462 19.5893 15.1856 19.5893 15.838C19.5893 16.4903 19.0211 17.0297 18.3063 17.0297H16.4225C16.4303 17.1199 16.4346 17.2118 16.4346 17.3068C16.4346 18.0392 16.3148 18.8218 15.893 19.4195H19.6115C20.3846 19.4195 21 20.003 21 20.7098C21 21.4166 20.3846 22 19.6115 22H12.4164C11.6279 22 11 21.4049 11 20.6837C11 20.042 11.4975 19.5637 12.0112 19.3202C12.783 18.9544 13.2827 18.2521 13.2827 17.4001C13.2827 17.2788 13.2731 17.1556 13.256 17.0297H12.283C11.5682 17.0297 11 16.4903 11 15.838C11 15.1856 11.5682 14.6462 12.283 14.6462H12.778C12.5385 14.2353 12.4496 14.0058 12.4496 13.6509C12.4496 12.5586 12.9201 11.6299 13.8044 10.9823Z" fill="white"/>
</svg>
