<svg width="20" height="20" viewBox="0 0 20 20" fill="none" xmlns="http://www.w3.org/2000/svg">
<path fill-rule="evenodd" clip-rule="evenodd" d="M17.075 17.075C18.8848 15.2651 20 12.7605 20 10C20 7.23949 18.8848 4.73492 17.075 2.92505C15.2651 1.11517 12.7605 0 10 0C7.23949 0 4.73492 1.11517 2.92505 2.92505C1.11517 4.73492 0 7.23949 0 10C0 12.7605 1.11517 15.2651 2.92505 17.075C4.73492 18.8848 7.23949 20 10 20C12.7605 20 15.2651 18.8848 17.075 17.075ZM11.3528 13.8574C11.3528 13.1079 10.7495 12.5046 10 12.5046C9.25046 12.5046 8.62889 13.1079 8.62889 13.8574C8.62889 14.6069 9.25046 15.2285 10 15.2285C10.7495 15.2285 11.3528 14.6069 11.3528 13.8574ZM10 11.1335C9.5064 11.1335 9.14077 10.7313 9.08592 10.2194L8.62889 6.1426C8.55576 5.42962 9.3053 4.77148 10 4.77148C10.6947 4.77148 11.4442 5.42962 11.3528 6.1426L10.9141 10.2194C10.8592 10.7313 10.4936 11.1335 10 11.1335V11.1335Z" fill="#EA1018"/>
</svg>
