<svg width="60" height="60" viewBox="0 0 60 60" fill="none" xmlns="http://www.w3.org/2000/svg">
<path fill-rule="evenodd" clip-rule="evenodd" d="M39.0815 0C45.105 0 48.116 0 51.3585 1.025C54.8985 2.3135 57.6865 5.1015 58.975 8.6415C60 11.8835 60 14.8955 60 20.9185V39.0815C60 45.105 60 48.116 58.975 51.3585C57.6865 54.8985 54.8985 57.6865 51.3585 58.9745C48.116 60 45.105 60 39.0815 60H20.9185C14.895 60 11.8835 60 8.6415 58.9745C5.1015 57.6865 2.3135 54.8985 1.025 51.3585C0 48.116 0 45.105 0 39.0815V20.9185C0 14.8955 0 11.8835 1.025 8.6415C2.3135 5.1015 5.1015 2.3135 8.6415 1.025C11.8835 0 14.895 0 20.9185 0H39.0815Z" fill="#FF7F00"/>
<path d="M22.8194 25.6934C22.8194 25.8836 22.8288 26.0618 22.8472 26.2318C21.4318 26.7566 20.5 28.1778 20.5 29.7029C20.5 31.6217 21.9748 33.3759 24.032 33.3876C23.8398 34.0059 23.4307 34.4817 22.9019 34.769C21.7807 35.378 20.5 36.679 20.5 38.5869C20.5 40.6384 22.0805 42.5 24.2662 42.5H35.7784C37.9395 42.5 39.5 40.6597 39.5 38.6346C39.5 36.6094 37.9395 34.7692 35.7784 34.7692H31.9759C32.0717 34.3031 32.1294 33.8372 32.1615 33.3877H33.6901C35.7581 33.3877 37.2429 31.6281 37.2429 29.7029C37.2429 27.7777 35.7581 26.0181 33.6901 26.0181H30.992C31.0231 25.7379 31.1246 25.6221 31.2198 25.5443C31.3961 25.4004 31.867 25.1595 32.8792 25.1595C33.3742 25.1595 33.8595 25.1994 34.2945 25.2679C35.3872 25.4399 36.4363 25.083 37.1984 24.4853C37.971 23.8792 38.6336 22.8712 38.6336 21.5939C38.6336 20.2337 37.8953 18.4514 36.0227 17.9506C34.957 17.6656 33.6262 17.5 32.306 17.5C29.6356 17.5 27.2657 18.1893 25.5228 19.6518C23.736 21.1512 22.8194 23.2912 22.8194 25.6934Z" stroke="white" stroke-width="3" stroke-linejoin="round"/>
</svg>
