<svg width="60" height="60" viewBox="0 0 60 60" fill="none" xmlns="http://www.w3.org/2000/svg">
<path fill-rule="evenodd" clip-rule="evenodd" d="M39.0815 0C45.105 0 48.116 0 51.3585 1.025C54.8985 2.3135 57.6865 5.1015 58.975 8.6415C60 11.8835 60 14.8955 60 20.9185V39.0815C60 45.105 60 48.116 58.975 51.3585C57.6865 54.8985 54.8985 57.6865 51.3585 58.9745C48.116 60 45.105 60 39.0815 60H20.9185C14.895 60 11.8835 60 8.6415 58.9745C5.1015 57.6865 2.3135 54.8985 1.025 51.3585C0 48.116 0 45.105 0 39.0815V20.9185C0 14.8955 0 11.8835 1.025 8.6415C2.3135 5.1015 5.1015 2.3135 8.6415 1.025C11.8835 0 14.895 0 20.9185 0H39.0815Z" fill="#AB29B5"/>
<path fill-rule="evenodd" clip-rule="evenodd" d="M28.2435 24.9823C28.9434 24.3415 29.9399 24 31.153 24C31.7573 24 32.3566 24.0835 32.8176 24.218C33.3176 24.3639 33.5668 24.905 33.5668 25.4148C33.5668 25.8143 33.3773 26.142 33.1363 26.3482C32.8966 26.5533 32.5779 26.6645 32.2639 26.6106C32.0075 26.5666 31.7259 26.5416 31.4396 26.5416C30.827 26.5416 30.4012 26.6992 30.1354 26.936C29.8802 27.1635 29.7412 27.4912 29.7412 27.931C29.7412 28.2443 29.8018 28.4619 29.8545 28.5955C29.8618 28.6138 29.8689 28.6307 29.8759 28.6462H31.845C32.4169 28.6462 32.8714 29.1856 32.8714 29.838C32.8714 30.4903 32.4169 31.0297 31.845 31.0297H30.338C30.3443 31.1199 30.3477 31.2118 30.3477 31.3068C30.3477 32.0392 30.2518 32.8218 29.9144 33.4195H32.8892C33.5077 33.4195 34 34.003 34 34.7098C34 35.4166 33.5077 36 32.8892 36H27.1331C26.5023 36 26 35.4049 26 34.6837C26 34.042 26.398 33.5637 26.8089 33.3202C27.4264 32.9544 27.8262 32.2521 27.8262 31.4001C27.8262 31.2788 27.8185 31.1556 27.8048 31.0297H27.0264C26.4545 31.0297 26 30.4903 26 29.838C26 29.1856 26.4545 28.6462 27.0264 28.6462H27.4224C27.2308 28.2353 27.1597 28.0058 27.1597 27.6509C27.1597 26.5586 27.536 25.6299 28.2435 24.9823Z" fill="white"/>
<circle cx="30" cy="30" r="12.5" stroke="white" stroke-width="3"/>
</svg>
