<svg width="47" height="46" viewBox="0 0 47 46" fill="none" xmlns="http://www.w3.org/2000/svg">
<circle cx="23.5" cy="23" r="23" fill="white"/>
<path d="M14.0117 23.5826C14.0117 22.4285 14.9473 21.493 16.1013 21.493H25.8981H29.0117V25.6722H25.8678H16.1013C14.9473 25.6722 14.0117 24.7367 14.0117 23.5826Z" fill="#00A980"/>
<path fill-rule="evenodd" clip-rule="evenodd" d="M25.8981 21.493L27.9445 23.5672L25.8678 25.6722H29.0117V21.493H25.8981Z" fill="#00A980"/>
<path d="M25.9669 15.612C25.1509 14.796 23.8278 14.796 23.0117 15.612C22.1957 16.4281 22.1957 17.7512 23.0117 18.5672L25.8981 21.493H29.0117V25.6722H25.8678L23.0117 28.5672C22.1957 29.3833 22.1957 30.7064 23.0117 31.5224C23.8278 32.3385 25.1509 32.3385 25.9669 31.5224L32.3773 25.0448C33.1933 24.2288 33.1933 22.9057 32.3773 22.0896L25.9669 15.612Z" fill="#00A980"/>
</svg>
