<svg width="47" height="46" viewBox="0 0 47 46" fill="none" xmlns="http://www.w3.org/2000/svg">
<circle cx="23.5" cy="23" r="23" fill="white"/>
<path d="M23.5162 32.056C22.3621 32.056 21.4266 31.1205 21.4266 29.9664L21.4266 20.1696L21.4266 17.056L25.6058 17.056L25.6058 20.2L25.6058 29.9664C25.6058 31.1205 24.6703 32.056 23.5162 32.056Z" fill="#00A980"/>
<path fill-rule="evenodd" clip-rule="evenodd" d="M21.4266 20.1696L23.5008 18.1233L25.6058 20.2L25.6058 17.056L21.4266 17.056L21.4266 20.1696Z" fill="#00A980"/>
<path d="M15.5456 20.1008C14.7296 20.9169 14.7296 22.24 15.5456 23.056C16.3617 23.8721 17.6848 23.8721 18.5008 23.056L21.4266 20.1696L21.4266 17.056L25.6058 17.056L25.6058 20.2L28.5008 23.056C29.3169 23.8721 30.6399 23.8721 31.456 23.056C32.2721 22.24 32.2721 20.9169 31.456 20.1008L24.9784 13.6905C24.1624 12.8744 22.8393 12.8744 22.0232 13.6905L15.5456 20.1008Z" fill="#00A980"/>
</svg>
