<svg width="60" height="60" viewBox="0 0 60 60" fill="none" xmlns="http://www.w3.org/2000/svg">
<path fill-rule="evenodd" clip-rule="evenodd" d="M39.0815 0C45.105 0 48.116 0 51.3585 1.025C54.8985 2.3135 57.6865 5.1015 58.975 8.6415C60 11.8835 60 14.8955 60 20.9185V39.0815C60 45.105 60 48.116 58.975 51.3585C57.6865 54.8985 54.8985 57.6865 51.3585 58.9745C48.116 60 45.105 60 39.0815 60H20.9185C14.895 60 11.8835 60 8.6415 58.9745C5.1015 57.6865 2.3135 54.8985 1.025 51.3585C0 48.116 0 45.105 0 39.0815V20.9185C0 14.8955 0 11.8835 1.025 8.6415C2.3135 5.1015 5.1015 2.3135 8.6415 1.025C11.8835 0 14.895 0 20.9185 0H39.0815Z" fill="#00A980"/>
<path d="M44 25.3851C44 21.3064 40.6652 18 36.5522 18C34.0552 18 31.8519 19.2221 30.5 21.0901C29.1481 19.2221 26.9448 18 24.4486 18C20.3348 18 17 21.3056 17 25.3851C17 25.9628 17.074 26.5226 17.2008 27.0622C18.2349 33.4332 25.3793 40.1545 30.5 42C35.62 40.1545 42.7651 33.4332 43.7977 27.063C43.926 26.5234 44 25.9636 44 25.3851Z" stroke="white" stroke-width="3" stroke-linecap="round" stroke-linejoin="round"/>
</svg>
