<svg width="60" height="60" viewBox="0 0 60 60" fill="none" xmlns="http://www.w3.org/2000/svg">
<path fill-rule="evenodd" clip-rule="evenodd" d="M39.0815 0C45.105 0 48.116 0 51.3585 1.025C54.8985 2.3135 57.6865 5.1015 58.975 8.6415C60 11.8835 60 14.8955 60 20.9185V39.0815C60 45.105 60 48.116 58.975 51.3585C57.6865 54.8985 54.8985 57.6865 51.3585 58.9745C48.116 60 45.105 60 39.0815 60H20.9185C14.895 60 11.8835 60 8.6415 58.9745C5.1015 57.6865 2.3135 54.8985 1.025 51.3585C0 48.116 0 45.105 0 39.0815V20.9185C0 14.8955 0 11.8835 1.025 8.6415C2.3135 5.1015 5.1015 2.3135 8.6415 1.025C11.8835 0 14.895 0 20.9185 0H39.0815Z" fill="black"/>
<path fill-rule="evenodd" clip-rule="evenodd" d="M29.4773 19.5C33.296 19.5 36.1806 22.1339 36.1806 25.7171C36.1806 27.05 37.2604 28.1299 38.5919 28.1299C41.0278 28.1299 43.0171 30.1189 43.0171 32.565C43.0171 35.0113 41.0292 37 38.5919 37C37.7635 37 37.0919 37.6716 37.0919 38.5C37.0919 39.3284 37.7635 40 38.5919 40C42.6913 40 46.0171 36.6628 46.0171 32.565C46.0171 28.6595 42.9949 25.4454 39.1645 25.1518C38.8683 19.9835 34.5227 16.5 29.4773 16.5C24.4319 16.5 20.0863 19.9835 19.79 25.1518C15.9596 25.4454 12.9375 28.6595 12.9375 32.565C12.9375 36.6628 16.2633 40 20.3626 40C21.191 40 21.8626 39.3284 21.8626 38.5C21.8626 37.6716 21.191 37 20.3626 37C17.9254 37 15.9375 35.0113 15.9375 32.565C15.9375 30.1189 17.9268 28.1299 20.3626 28.1299C21.6942 28.1299 22.7739 27.05 22.7739 25.7171C22.7739 22.1339 25.6586 19.5 29.4773 19.5Z" fill="white"/>
<path d="M29.5117 44C28.6361 44 27.9263 43.2605 27.9263 42.3483L27.9263 33.605L27.9263 31.144L31.0971 31.144L31.0971 33.6289L31.0971 42.3483C31.0971 43.2605 30.3873 44 29.5117 44Z" fill="white"/>
<path fill-rule="evenodd" clip-rule="evenodd" d="M27.9263 33.605L29.5 31.9875L31.0971 33.6289L31.0971 31.144L27.9263 31.144L27.9263 33.605Z" fill="white"/>
<path d="M23.4644 33.5506C22.8452 34.1956 22.8452 35.2414 23.4644 35.8864C24.0835 36.5314 25.0873 36.5314 25.7065 35.8864L27.9263 33.605L27.9263 31.144L31.0971 31.144L31.0971 33.6289L33.2935 35.8864C33.9127 36.5314 34.9165 36.5314 35.5356 35.8864C36.1548 35.2414 36.1548 34.1956 35.5356 33.5506L30.6211 28.4838C30.0019 27.8388 28.9981 27.8388 28.3789 28.4838L23.4644 33.5506Z" fill="white"/>
</svg>
