<svg width="48" height="48" viewBox="0 0 48 48" fill="none" xmlns="http://www.w3.org/2000/svg">
<circle cx="24" cy="24" r="24" fill="#0077B5"/>
<path d="M13.3125 16.4062C15.2282 16.4062 16.7812 14.8532 16.7812 12.9375C16.7812 11.0218 15.2282 9.46875 13.3125 9.46875C11.3968 9.46875 9.84375 11.0218 9.84375 12.9375C9.84375 14.8532 11.3968 16.4062 13.3125 16.4062Z" fill="white"/>
<path d="M22.875 18.1875V36.75V18.1875ZM13.3125 18.1875V36.75V18.1875Z" fill="white"/>
<path d="M13.3125 18.1875V36.75M22.875 18.1875V36.75V18.1875Z" stroke="white" stroke-width="6.1875"/>
<path d="M25.875 26.4375C25.875 24.5625 27.0938 22.6875 29.25 22.6875C31.5 22.6875 32.3438 24.375 32.3438 26.9062V36.75H38.5312V26.1562C38.5312 20.4375 35.5312 17.8125 31.4062 17.8125C28.2188 17.8125 26.625 19.5938 25.875 20.8125" fill="white"/>
</svg>
