<svg width="16" height="16" viewBox="0 0 16 16" fill="none" xmlns="http://www.w3.org/2000/svg">
<path fill-rule="evenodd" clip-rule="evenodd" d="M2.45025 0H13.4743C14.8217 0 15.9235 1.10793 15.9235 2.46196V7.583C15.8824 7.4827 15.8248 7.38677 15.7506 7.29873L15.6302 7.15516L15.6298 7.15471C14.3954 5.68082 12.1248 2.96973 7.98487 2.96973C3.8818 2.96973 1.65705 5.59928 0.393332 7.09293L0.393274 7.093L0.274974 7.23284C0.091698 7.44903 3.99093e-05 7.70929 0 7.96956V2.46196C0 1.10793 1.1028 0 2.45025 0ZM15.7506 8.64071C15.8248 8.55268 15.8824 8.45676 15.9235 8.35646V13.5389C15.9235 14.8929 14.8217 16 13.4743 16H2.45025C1.1028 16 0 14.8929 0 13.5389V7.9699C3.99093e-05 8.23017 0.091698 8.49043 0.274974 8.70659L0.393274 8.84649L0.393382 8.84662C1.65711 10.3402 3.88185 12.9697 7.98487 12.9697C12.1247 12.9697 14.3952 10.2588 15.6297 8.78502L15.6302 8.78438L15.7506 8.64071ZM10 7.96975C10 9.07426 9.10432 9.96973 8.0001 9.96973C6.89561 9.96973 6 9.07426 6 7.96975C6 6.86522 6.89561 5.96973 8.0001 5.96973C9.10432 5.96973 10 6.86522 10 7.96975Z" fill="#0D2D80"/>
</svg>
