<svg width="160" height="48" viewBox="0 0 160 48" fill="none" xmlns="http://www.w3.org/2000/svg">
<rect x="86.5" y="0.5" width="69" height="47" rx="5.5" fill="white" stroke="#D9D9D9"/>
<path fill-rule="evenodd" clip-rule="evenodd" d="M121.395 34.7619C119.011 36.8184 115.92 38.0599 112.542 38.0599C105.005 38.0599 98.8945 31.8788 98.8945 24.254C98.8945 16.6291 105.005 10.448 112.542 10.448C115.92 10.448 119.011 11.6895 121.395 13.7461C123.778 11.6895 126.869 10.448 130.247 10.448C137.784 10.448 143.895 16.6291 143.895 24.254C143.895 31.8788 137.784 38.0599 130.247 38.0599C126.869 38.0599 123.778 36.8184 121.395 34.7619Z" fill="#ED0006"/>
<path fill-rule="evenodd" clip-rule="evenodd" d="M121.395 34.7619C124.329 32.2296 126.19 28.4616 126.19 24.254C126.19 20.0463 124.329 16.2783 121.395 13.7461C123.778 11.6895 126.869 10.448 130.247 10.448C137.784 10.448 143.895 16.6291 143.895 24.254C143.895 31.8788 137.784 38.0599 130.247 38.0599C126.869 38.0599 123.778 36.8184 121.395 34.7619Z" fill="#F9A000"/>
<path fill-rule="evenodd" clip-rule="evenodd" d="M121.395 13.7461C124.329 16.2784 126.19 20.0463 126.19 24.254C126.19 28.4616 124.329 32.2295 121.395 34.7618C118.46 32.2295 116.6 28.4616 116.6 24.254C116.6 20.0463 118.46 16.2784 121.395 13.7461Z" fill="#FF5E00"/>
<rect x="0.5" y="0.5" width="69" height="47" rx="5.5" fill="white" stroke="#D9D9D9"/>
<path fill-rule="evenodd" clip-rule="evenodd" d="M21.2505 32.5165H17.0099L13.8299 20.3847C13.679 19.8267 13.3585 19.3333 12.8871 19.1008C11.7106 18.5165 10.4142 18.0514 9 17.8169V17.3498H15.8313C16.7742 17.3498 17.4813 18.0514 17.5991 18.8663L19.2491 27.6173L23.4877 17.3498H27.6104L21.2505 32.5165ZM29.9675 32.5165H25.9626L29.2604 17.3498H33.2653L29.9675 32.5165ZM38.4467 21.5514C38.5646 20.7346 39.2717 20.2675 40.0967 20.2675C41.3931 20.1502 42.8052 20.3848 43.9838 20.9671L44.6909 17.7016C43.5123 17.2345 42.216 17 41.0395 17C37.1524 17 34.3239 19.1008 34.3239 22.0165C34.3239 24.2346 36.3274 25.3992 37.7417 26.1008C39.2717 26.8004 39.861 27.2675 39.7431 27.9671C39.7431 29.0165 38.5646 29.4836 37.3881 29.4836C35.9739 29.4836 34.5596 29.1338 33.2653 28.5494L32.5582 31.8169C33.9724 32.3992 35.5025 32.6338 36.9167 32.6338C41.2752 32.749 43.9838 30.6502 43.9838 27.5C43.9838 23.5329 38.4467 23.3004 38.4467 21.5514ZM58 32.5165L54.82 17.3498H51.4044C50.6972 17.3498 49.9901 17.8169 49.7544 18.5165L43.8659 32.5165H47.9887L48.8116 30.3004H53.8772L54.3486 32.5165H58ZM51.9936 21.4342L53.1701 27.1502H49.8723L51.9936 21.4342Z" fill="#172B85"/>
</svg>
