<svg width="209" height="91" viewBox="0 0 209 91" fill="none" xmlns="http://www.w3.org/2000/svg">
<path d="M32.0149 74.6984C28.8152 74.7214 25.6313 74.2486 22.5763 73.2969C19.8018 72.4413 17.2362 71.0167 15.043 69.1141L20.9558 62.0845C22.6473 63.4174 24.5701 64.427 26.6277 65.0628C28.5438 65.6511 30.5361 65.9536 32.5405 65.9606C33.2898 66.0147 34.0411 65.887 34.7304 65.5884C34.9247 65.4948 35.0891 65.3489 35.2052 65.1671C35.3212 64.9853 35.3843 64.7747 35.3874 64.5591C35.3609 64.2891 35.2553 64.0329 35.0839 63.8225C34.9125 63.6122 34.6829 63.4571 34.4238 63.3765C33.2597 62.9147 32.0478 62.5842 30.8104 62.3911C28.9563 62.0115 27.1825 61.5662 25.4889 61.0552C23.9509 60.6074 22.4783 59.9595 21.1091 59.1281C19.8788 58.3826 18.8372 57.3634 18.0651 56.1498C17.2761 54.8281 16.881 53.3085 16.9263 51.7699C16.9136 50.2607 17.2273 48.7666 17.8461 47.3901C18.466 46.0202 19.3867 44.8076 20.5397 43.8424C21.831 42.7752 23.319 41.9717 24.9195 41.4773C26.8699 40.8792 28.9021 40.591 30.9418 40.6232C33.8005 40.5197 36.6582 40.852 39.4169 41.6087C41.7978 42.3242 44.0254 43.4751 45.9866 45.003L40.5994 52.4707C39.0866 51.37 37.3984 50.5333 35.6064 49.9961C34.0034 49.4954 32.3363 49.2298 30.6571 49.2077C30.0285 49.1617 29.3994 49.2906 28.8395 49.58C28.6609 49.6752 28.5115 49.8173 28.4074 49.9908C28.3032 50.1644 28.2482 50.363 28.2482 50.5655C28.275 50.8207 28.3735 51.0632 28.5324 51.2647C28.6913 51.4663 28.9041 51.6187 29.1461 51.7042C30.2708 52.1707 31.447 52.5015 32.65 52.6897C34.6028 53.0249 36.5335 53.4784 38.4314 54.0474C39.9816 54.5223 41.4564 55.2154 42.8112 56.106C43.9642 56.886 44.9231 57.9198 45.6143 59.1281C46.3213 60.4297 46.669 61.8961 46.6217 63.3765C46.6466 64.9998 46.2864 66.6059 45.5705 68.063C44.8785 69.4496 43.874 70.6565 42.636 71.5887C41.2576 72.5932 39.7061 73.3356 38.0591 73.7787C36.0981 74.3701 34.063 74.6798 32.0149 74.6984Z" fill="#FC4C02"/>
<path d="M55.7554 50.3682H45.9883V40.9954H76.6473V50.3682H66.8145V74.0852H55.7554V50.3682Z" fill="#FC4C02"/>
<path d="M78.1133 40.9953H94.1654C96.6355 40.9213 99.1004 41.2618 101.458 42.0026C103.177 42.5678 104.749 43.5106 106.057 44.7619C107.008 45.7343 107.753 46.8889 108.247 48.1563C108.773 49.5558 109.033 51.0412 109.013 52.5362C109.083 54.7127 108.47 56.8566 107.261 58.668C106.043 60.3835 104.397 61.7501 102.487 62.6317L110.196 73.888H97.7569L91.5156 64.4275H89.1724V73.888H78.1133V40.9953ZM93.9465 56.7408C95.0483 56.8014 96.1398 56.5016 97.0561 55.8868C97.4246 55.6154 97.721 55.258 97.9195 54.8457C98.118 54.4335 98.2126 53.9789 98.1949 53.5216C98.2264 53.0594 98.1381 52.5969 97.9387 52.1787C97.7392 51.7606 97.4352 51.401 97.0561 51.1346C96.1373 50.5682 95.0684 50.2933 93.9902 50.3462H89.1724V56.916H93.9465V56.7408Z" fill="#FC4C02"/>
<path d="M174.341 59.8507L181.568 74.0853H192.167L174.341 38.915L156.537 74.0853H167.136L174.341 59.8507Z" fill="#FC4C02"/>
<path d="M124.781 59.8507L131.986 74.0853H142.585L124.781 38.915L106.977 74.0853H117.576L124.781 59.8507Z" fill="#FC4C02"/>
<path d="M149.572 55.2299L142.367 40.9954H131.768L149.572 76.1437L167.376 40.9954H156.777L149.572 55.2299Z" fill="#FC4C02"/>
<path d="M23.8025 23.9798L25.9924 24.4178C25.9045 25.6791 25.3686 26.8675 24.4813 27.7684C24.0377 28.1956 23.5121 28.5284 22.9362 28.7468C22.3603 28.9651 21.7461 29.0643 21.1308 29.0385C20.4159 29.0626 19.7044 28.93 19.0461 28.65C18.3879 28.3701 17.7989 27.9496 17.3203 27.418C16.2347 26.04 15.7035 24.3059 15.8311 22.5564C15.7319 20.8663 16.2889 19.2031 17.386 17.9137C17.8547 17.3917 18.429 16.9754 19.0708 16.6922C19.7127 16.409 20.4074 16.2655 21.1089 16.2713C22.3033 16.2535 23.4578 16.7011 24.328 17.5195C25.2118 18.3447 25.758 19.4683 25.861 20.673L23.6711 21.0015C23.6918 20.6476 23.6425 20.2932 23.5259 19.9584C23.4094 19.6237 23.2279 19.3152 22.9919 19.0507C22.7559 18.7863 22.47 18.571 22.1506 18.4172C21.8313 18.2634 21.4847 18.1742 21.1308 18.1546C20.7067 18.1596 20.2893 18.2607 19.9099 18.4503C19.5306 18.64 19.1992 18.9133 18.9408 19.2496C18.2677 20.2229 17.9506 21.3985 18.043 22.5783C17.9518 23.7823 18.2596 24.9829 18.9189 25.9945C19.1705 26.3413 19.4994 26.6248 19.8795 26.8224C20.2596 27.0201 20.6805 27.1265 21.1089 27.1333C22.6564 27.1333 23.5543 26.0821 23.8025 23.9798Z" fill="#999999"/>
<path d="M36.0455 28.6661C34.7768 29.1534 33.3724 29.1534 32.1037 28.6661C31.4141 28.3943 30.7955 27.9691 30.2946 27.4227C29.7938 26.8763 29.4239 26.2231 29.213 25.5126C28.9063 24.5502 28.7584 23.5442 28.775 22.5343C28.6757 20.8442 29.2327 19.181 30.3298 17.8916C30.7985 17.3697 31.3728 16.9533 32.0147 16.6701C32.6565 16.387 33.3512 16.2435 34.0527 16.2492C34.7526 16.2465 35.445 16.3937 36.0834 16.6807C36.7217 16.9678 37.2912 17.3881 37.7537 17.9135C38.8903 19.1862 39.4872 20.8512 39.418 22.5562C39.4358 23.5662 39.2878 24.5723 38.98 25.5345C38.7501 26.2963 38.3451 26.9937 37.7975 27.5711C37.2974 28.0558 36.7003 28.429 36.0455 28.6661ZM31.819 25.9944C32.0823 26.3436 32.4231 26.6268 32.8145 26.8219C33.2059 27.017 33.6373 27.1185 34.0746 27.1185C34.5119 27.1185 34.9433 27.017 35.3347 26.8219C35.7261 26.6268 36.0669 26.3436 36.3302 25.9944C36.9944 24.976 37.3096 23.7693 37.2281 22.5562C37.307 21.3982 36.9904 20.2478 36.3302 19.2932C36.0676 18.9645 35.7344 18.6992 35.3553 18.5169C34.9763 18.3345 34.561 18.2398 34.1403 18.2398C33.7196 18.2398 33.3044 18.3345 32.9253 18.5169C32.5462 18.6992 32.213 18.9645 31.9504 19.2932C31.2934 20.241 30.9769 21.3835 31.0525 22.5343C30.9271 23.7402 31.1961 24.9542 31.819 25.9944Z" fill="#999999"/>
<path d="M42.9219 28.7758V16.5122H45.3308L49.0099 25.0529L52.6451 16.5122H55.0322V28.7758H52.9955V20.3446L49.2727 28.7758H48.7471L45.0461 20.3446V28.7758H42.9219Z" fill="#999999"/>
<path d="M59.3457 28.7756V16.512H64.2292C65.3348 16.451 66.4224 16.8109 67.2732 17.5194C67.6641 17.8794 67.9708 18.3212 68.1715 18.8133C68.3721 19.3053 68.4617 19.8356 68.4339 20.3663C68.4607 20.8864 68.3748 21.4062 68.1821 21.89C67.9893 22.3738 67.6942 22.8103 67.317 23.1694C66.4694 23.8858 65.3815 24.2536 64.273 24.1987H61.3166V28.7537H59.3457V28.7756ZM61.4042 22.2058H64.1854C64.7232 22.2583 65.2614 22.1101 65.6965 21.7898C65.8928 21.6146 66.0477 21.398 66.15 21.1556C66.2523 20.9132 66.2993 20.6511 66.2878 20.3882C66.313 20.111 66.2726 19.8318 66.1698 19.5731C66.0671 19.3144 65.905 19.0835 65.6965 18.8991C65.2616 18.5725 64.7291 18.4027 64.1854 18.4173H61.3166V22.3153L61.4042 22.2058Z" fill="#999999"/>
<path d="M77.6738 28.7758L76.9292 26.5859H71.98L71.2573 28.7758H69.2207L73.6006 16.5122H75.2868L79.6667 28.7758H77.6738ZM74.4546 19.5124L72.5932 24.8996H76.3161L74.4546 19.5124Z" fill="#999999"/>
<path d="M83.7431 28.7758V18.4174H80.0859V16.5122H89.4588V18.4174H85.8235V28.7758H83.7431Z" fill="#999999"/>
<path d="M92.6094 28.7758V16.5122H94.6679V28.7758H92.6094Z" fill="#999999"/>
<path d="M99.0512 28.7757V16.5121H104.088C104.571 16.4957 105.053 16.5764 105.504 16.7494C105.955 16.9224 106.368 17.1843 106.716 17.5195C107.018 17.8002 107.261 18.1386 107.43 18.5147C107.6 18.8908 107.692 19.297 107.701 19.7094C107.715 20.1984 107.588 20.6809 107.335 21.1C107.083 21.5191 106.716 21.8573 106.278 22.0745C106.795 22.313 107.246 22.6738 107.592 23.1257C107.972 23.6451 108.165 24.2781 108.139 24.9214C108.139 27.4179 106.636 28.6662 103.628 28.6662H99.0293L99.0512 28.7757ZM101.11 21.5489H103.803C104.276 21.5671 104.741 21.42 105.117 21.1328C105.279 20.9925 105.407 20.8169 105.491 20.6195C105.574 20.422 105.611 20.2081 105.599 19.9941C105.615 19.7732 105.579 19.5517 105.496 19.3467C105.412 19.1417 105.283 18.9586 105.117 18.8115C104.725 18.5239 104.244 18.3843 103.76 18.4173H101.132V21.527L101.11 21.5489ZM101.11 26.8704H104.176C104.428 26.852 104.677 26.808 104.92 26.7391C105.145 26.6845 105.355 26.5796 105.533 26.4325C105.695 26.2784 105.822 26.0918 105.906 25.885C106.013 25.6134 106.065 25.323 106.059 25.0309C106.096 24.7534 106.051 24.4711 105.931 24.2184C105.81 23.9657 105.619 23.7535 105.38 23.6075C104.688 23.3188 103.938 23.1987 103.19 23.2571H101V26.8704H101.11Z" fill="#999999"/>
<path d="M111.686 28.7758V16.5122H113.875V26.8706H119.022V28.7758H111.686Z" fill="#999999"/>
<path d="M122.109 28.7758V16.5122H129.752V18.4174H124.168V21.5709H129.205V23.4105H124.168V26.8706H129.73V28.7758H122.109Z" fill="#999999"/>
<path d="M140.769 28.7758L138.426 16.5122H140.616L142.28 25.1405L145.193 16.5122H146.375L149.266 25.1405L150.886 16.5122H152.945L150.602 28.7758H148.412L145.696 20.3665L142.981 28.7758H140.791H140.769Z" fill="#999999"/>
<path d="M156.467 28.7758V16.5122H158.525V28.7758H156.467Z" fill="#999999"/>
<path d="M165.339 28.7758V18.4174H161.682V16.5122H171.055V18.4174H167.419V28.7758H165.339Z" fill="#999999"/>
<path d="M174.119 28.7758V16.5122H176.178V21.549H180.798V16.5122H182.857V28.7758H180.82V23.3448H176.2V28.7758H174.119Z" fill="#999999"/>
</svg>
