<svg width="208" height="47" viewBox="0 0 208 47" fill="none" xmlns="http://www.w3.org/2000/svg">
<path d="M201.824 0H5.15618C3.78867 0 2.47718 0.543239 1.51021 1.51021C0.543239 2.47718 0 3.78867 0 5.15618L0 41.8438C0 43.2113 0.543239 44.5228 1.51021 45.4898C2.47718 46.4568 3.78867 47 5.15618 47H201.824C203.29 47 204.696 46.4174 205.733 45.3805C206.77 44.3435 207.353 42.9371 207.353 41.4706V5.52941C207.353 4.06292 206.77 2.65649 205.733 1.61953C204.696 0.582561 203.29 0 201.824 0V0ZM205.971 41.4706C205.971 42.5705 205.534 43.6253 204.756 44.403C203.978 45.1807 202.923 45.6176 201.824 45.6176H5.15618C4.15642 45.614 3.19865 45.2152 2.4917 44.5083C1.78476 43.8014 1.386 42.8436 1.38235 41.8438V5.15618C1.386 4.15642 1.78476 3.19865 2.4917 2.4917C3.19865 1.78476 4.15642 1.386 5.15618 1.38235H201.824C202.923 1.38235 203.978 1.81927 204.756 2.597C205.534 3.37472 205.971 4.42954 205.971 5.52941V41.4706Z" fill="black"/>
<path d="M23.5945 15.5376H17.6504V30.4117H20.3045V24.6611H23.5945C26.9122 24.6611 28.9857 23.0576 28.9857 20.0994C28.9857 17.1411 26.9122 15.5376 23.5945 15.5376ZM23.4563 22.4494H20.3045V17.8876H23.4977C25.4054 17.8876 26.4145 18.7032 26.4145 20.1685C26.4145 21.6338 25.3639 22.3802 23.4977 22.3802L23.4563 22.4494Z" fill="black"/>
<path d="M34.6975 19.3529C33.9708 19.3445 33.2503 19.4882 32.5824 19.7747C31.9145 20.0613 31.3139 20.4844 30.8193 21.0168C30.3246 21.5492 29.9467 22.1793 29.71 22.8664C29.4732 23.5535 29.3828 24.2826 29.4446 25.0067C29.3798 25.7348 29.4672 26.4685 29.7014 27.161C29.9356 27.8534 30.3114 28.4896 30.8049 29.0289C31.2983 29.5682 31.8986 29.9989 32.5676 30.2936C33.2366 30.5882 33.9596 30.7404 34.6906 30.7404C35.4216 30.7404 36.1446 30.5882 36.8136 30.2936C37.4826 29.9989 38.0829 29.5682 38.5763 29.0289C39.0698 28.4896 39.4456 27.8534 39.6798 27.161C39.9139 26.4685 40.0014 25.7348 39.9366 25.0067C40.0004 24.2833 39.9119 23.5545 39.6768 22.8674C39.4416 22.1803 39.0651 21.5501 38.5715 21.0174C38.0779 20.4847 37.4781 20.0613 36.8109 19.7747C36.1436 19.488 35.4237 19.3443 34.6975 19.3529ZM34.6975 28.5732C33.011 28.5732 31.9328 27.1908 31.9328 25.0067C31.9328 22.8226 32.9834 21.4403 34.6975 21.4403C36.4116 21.4403 37.4622 22.8226 37.4622 25.0067C37.4622 27.1908 36.3702 28.5594 34.6975 28.5594V28.5732Z" fill="black"/>
<path d="M50.8432 26.7486L48.894 19.5327H46.8482L44.9129 26.7486L42.9499 19.5327H40.3926L43.6688 30.4257H45.8252L47.8158 23.2927L49.8064 30.4257H51.9629L55.239 19.5327H52.7785L50.8432 26.7486Z" fill="black"/>
<path d="M60.8233 19.353C60.1061 19.3663 59.3991 19.5253 58.7452 19.8202C58.0912 20.1151 57.504 20.5398 57.0193 21.0685C56.5345 21.5973 56.1622 22.219 55.925 22.896C55.6878 23.573 55.5907 24.2912 55.6395 25.0069C55.5817 25.7336 55.6763 26.4644 55.9171 27.1525C56.1579 27.8407 56.5397 28.471 57.038 29.0031C57.5363 29.5353 58.1402 29.9576 58.8111 30.243C59.4819 30.5284 60.205 30.6707 60.9339 30.6607C61.9362 30.7147 62.9301 30.4529 63.7757 29.9123C64.6213 29.3717 65.2761 28.5795 65.6478 27.6471L63.5881 26.7901C63.4264 27.3243 63.088 27.7876 62.6283 28.1041C62.1686 28.4206 61.615 28.5714 61.0583 28.5318C60.6618 28.5413 60.2675 28.4702 59.8993 28.3228C59.5311 28.1754 59.1966 27.9548 58.9162 27.6743C58.6357 27.3939 58.4151 27.0594 58.2677 26.6912C58.1203 26.323 58.0492 25.9287 58.0586 25.5321H65.6892V24.7027C65.7169 21.7169 64.0304 19.353 60.8233 19.353ZM58.1554 23.6798C58.2523 23.045 58.576 22.4669 59.0666 22.0526C59.5572 21.6383 60.1813 21.4159 60.8233 21.4266C61.1284 21.4008 61.4354 21.4402 61.724 21.5423C62.0127 21.6444 62.2762 21.8068 62.4972 22.0186C62.7182 22.2305 62.8916 22.4869 63.0058 22.771C63.12 23.055 63.1724 23.3601 63.1595 23.666L58.1554 23.6798Z" fill="black"/>
<path d="M70.0722 21.1501V19.5327H67.584V30.4119H70.0722V24.7027C70.05 24.3339 70.1064 23.9645 70.2375 23.6191C70.3686 23.2736 70.5715 22.9598 70.8327 22.6986C71.094 22.4373 71.4078 22.2344 71.7532 22.1033C72.0987 21.9722 72.4681 21.9159 72.8369 21.938C73.1407 21.9166 73.4455 21.9166 73.7493 21.938V19.4498C73.5557 19.4498 73.3346 19.4498 73.0443 19.4498C72.438 19.4184 71.8355 19.562 71.3085 19.8634C70.7816 20.1649 70.3524 20.6115 70.0722 21.1501Z" fill="black"/>
<path d="M79.4581 19.353C78.7409 19.3663 78.0339 19.5253 77.3799 19.8202C76.726 20.1151 76.1388 20.5398 75.654 21.0685C75.1692 21.5973 74.797 22.219 74.5598 22.896C74.3226 23.573 74.2255 24.2912 74.2743 25.0069C74.2165 25.7336 74.3111 26.4644 74.5519 27.1525C74.7927 27.8407 75.1744 28.471 75.6728 29.0031C76.1711 29.5353 76.775 29.9576 77.4458 30.243C78.1167 30.5284 78.8397 30.6707 79.5687 30.6607C80.5617 30.7029 81.5433 30.4356 82.3779 29.8958C83.2124 29.3559 83.8586 28.5702 84.2272 27.6471L82.0984 26.8316C81.9368 27.3657 81.5983 27.8291 81.1387 28.1456C80.679 28.4621 80.1254 28.6129 79.5687 28.5733C79.1803 28.5698 78.7965 28.489 78.4396 28.3358C78.0826 28.1826 77.7597 27.96 77.4896 27.6808C77.2195 27.4017 77.0076 27.0717 76.8661 26.7099C76.7247 26.3482 76.6566 25.9619 76.6658 25.5736H84.324V24.7442C84.324 21.7169 82.6099 19.353 79.4581 19.353ZM76.7902 23.6798C76.8898 23.0499 77.2128 22.477 77.7002 22.0658C78.1875 21.6546 78.8067 21.4326 79.4443 21.4404C79.7493 21.4146 80.0564 21.4541 80.345 21.5561C80.6336 21.6582 80.8972 21.8206 81.1182 22.0324C81.3392 22.2443 81.5125 22.5008 81.6267 22.7848C81.7409 23.0688 81.7933 23.3739 81.7805 23.6798H76.7902Z" fill="black"/>
<path d="M93.3916 20.7352C93.008 20.2851 92.528 19.9271 91.9872 19.6878C91.4463 19.4485 90.8586 19.334 90.2675 19.3529C87.2125 19.3529 85.4707 21.9102 85.4707 25.0067C85.4707 28.1032 87.2125 30.6605 90.2675 30.6605C90.859 30.6824 91.4477 30.5693 91.989 30.3298C92.5303 30.0903 93.01 29.7307 93.3916 29.2782V30.4117H95.8798V15.5376H93.3916V20.7352ZM93.3916 25.3661C93.4473 25.7603 93.4173 26.1618 93.3036 26.5433C93.1898 26.9248 92.995 27.2772 92.7325 27.5765C92.47 27.8757 92.146 28.1148 91.7826 28.2773C91.4191 28.4397 91.0249 28.5218 90.6269 28.5179C88.816 28.5179 87.8622 27.1355 87.8622 25.0344C87.8622 22.9332 88.8298 21.5508 90.6269 21.5508C92.1613 21.5508 93.3916 22.6705 93.3916 24.7164V25.3661Z" fill="black"/>
<path d="M109.633 19.3529C109.03 19.3265 108.43 19.4373 107.877 19.6767C107.324 19.9162 106.832 20.2781 106.439 20.7352V15.5376H103.951V30.4117H106.439V29.2644C106.825 29.7156 107.307 30.0741 107.851 30.3134C108.394 30.5527 108.984 30.6667 109.577 30.6467C112.619 30.6467 114.36 28.0755 114.36 24.9929C114.36 21.9102 112.674 19.3529 109.633 19.3529ZM109.204 28.4764C108.806 28.4803 108.412 28.3983 108.048 28.2358C107.685 28.0733 107.361 27.8343 107.098 27.535C106.836 27.2357 106.641 26.8833 106.527 26.5018C106.414 26.1204 106.384 25.7188 106.439 25.3247V24.675C106.439 22.6291 107.601 21.5094 109.204 21.5094C111.001 21.5094 111.969 22.8917 111.969 24.9929C111.969 27.0941 110.932 28.4764 109.204 28.4764Z" fill="black"/>
<path d="M120.167 27.1771L117.5 19.5327H114.873L118.882 30.0248L118.467 31.0477C118.397 31.3982 118.193 31.7077 117.899 31.9113C117.605 32.115 117.244 32.1968 116.891 32.1398C116.615 32.1599 116.338 32.1599 116.062 32.1398V34.2271C116.396 34.2768 116.733 34.2999 117.071 34.2962C117.934 34.359 118.792 34.1165 119.494 33.6112C120.197 33.1058 120.699 32.3698 120.914 31.5315L125.393 19.6157H122.78L120.167 27.1771Z" fill="black"/>
<path d="M172.793 17.1827C172.248 17.1795 171.707 17.2841 171.201 17.4905C170.696 17.6969 170.236 18.001 169.849 18.3853L169.655 17.4315H166.352V35.2915L170.112 34.4759V30.1492C170.859 30.7754 171.804 31.1181 172.78 31.1168C175.461 31.1168 177.922 28.9189 177.922 24.053C177.922 19.6018 175.434 17.1827 172.793 17.1827ZM171.895 27.73C171.565 27.749 171.235 27.6944 170.929 27.5701C170.623 27.4457 170.348 27.2548 170.125 27.0112V21.3297C170.349 21.0772 170.627 20.8779 170.938 20.7464C171.249 20.6148 171.585 20.5544 171.922 20.5695C173.305 20.5695 174.245 22.1315 174.245 24.1359C174.245 26.1403 173.291 27.73 171.895 27.73Z" fill="black"/>
<path d="M184.861 17.1826C181.239 17.1826 179.041 20.3067 179.041 24.2464C179.041 28.905 181.64 31.2688 185.345 31.2688C186.79 31.2924 188.218 30.9449 189.492 30.2597V27.1494C188.335 27.7329 187.054 28.027 185.759 28.0064C184.266 28.0064 182.995 27.4673 182.801 25.6564H190.238C190.238 25.4491 190.238 24.6335 190.238 24.2741C190.362 20.3067 188.482 17.1826 184.861 17.1826ZM182.829 22.8088C182.829 21.067 183.893 20.3344 184.833 20.3344C185.773 20.3344 186.768 21.067 186.768 22.8088H182.829Z" fill="black"/>
<path d="M156.206 18.4683L155.971 17.3348H152.764V30.7574H156.468V21.6615C156.803 21.2553 157.254 20.9609 157.76 20.8176C158.266 20.6744 158.804 20.6891 159.302 20.8598V17.3348C158.737 17.1132 158.11 17.1062 157.539 17.315C156.969 17.5238 156.495 17.934 156.206 18.4683Z" fill="black"/>
<path d="M137.489 21.3712C137.489 20.763 137.987 20.528 138.775 20.528C140.08 20.5561 141.36 20.8974 142.507 21.5233V17.8877C141.322 17.4084 140.053 17.1688 138.775 17.1827C135.72 17.1827 133.688 18.8139 133.688 21.5509C133.688 25.8362 139.41 25.1451 139.41 26.9836C139.41 27.7024 138.802 27.9374 138.028 27.9374C136.568 27.8521 135.147 27.426 133.881 26.6933V30.4118C135.186 30.9939 136.599 31.2953 138.028 31.2965C141.152 31.2965 143.309 29.7068 143.309 26.9283C143.24 22.2836 137.489 23.113 137.489 21.3712Z" fill="black"/>
<path d="M148.299 14.1553L144.635 14.957V27.3015C144.616 27.8217 144.704 28.3403 144.892 28.8256C145.08 29.3109 145.366 29.7527 145.731 30.1241C146.096 30.4954 146.532 30.7884 147.014 30.9852C147.496 31.1821 148.013 31.2785 148.534 31.2688C149.442 31.3094 150.347 31.1341 151.174 30.7573V27.647C150.69 27.8544 148.326 28.5594 148.326 26.2647V20.7353H151.174V17.5006H148.326L148.299 14.1553Z" fill="black"/>
<path d="M160.697 16.1735L164.471 15.3855V12.3997L160.697 13.1876V16.1735Z" fill="black"/>
<path d="M164.471 17.4314H160.697V30.7573H164.471V17.4314Z" fill="black"/>
</svg>
