<svg width="24" height="24" viewBox="0 0 24 24" fill="none" xmlns="http://www.w3.org/2000/svg">
<path d="M5.06667 18C4.47756 18 4 17.5523 4 17C4 16.4477 4.47756 16 5.06667 16H18.9333C19.5224 16 20 16.4477 20 17C20 17.5523 19.5224 18 18.9333 18H5.06667ZM5.06667 13C4.47756 13 4 12.5523 4 12C4 11.4477 4.47756 11 5.06667 11H18.9333C19.5224 11 20 11.4477 20 12C20 12.5523 19.5224 13 18.9333 13H5.06667ZM5.06667 8C4.47756 8 4 7.55228 4 7C4 6.44772 4.47756 6 5.06667 6H18.9333C19.5224 6 20 6.44772 20 7C20 7.55228 19.5224 8 18.9333 8H5.06667Z" fill="#0D2D80"/>
</svg>
