<svg width="68" height="68" viewBox="0 0 68 68" fill="none" xmlns="http://www.w3.org/2000/svg">
<path d="M68 34C68 52.7777 52.7777 68 34 68C15.2223 68 0 52.7777 0 34C0 15.2223 15.2223 0 34 0C52.7777 0 68 15.2223 68 34Z" fill="white"/>
<circle cx="34" cy="34" r="30" fill="#00A980"/>
<path d="M30.8545 42.7004C29.9203 43.2028 28.7155 43.0733 27.9207 42.3119L22.7183 37.3279C21.7606 36.4104 21.7606 34.9228 22.7183 34.0053C23.676 33.0877 25.2288 33.0877 26.1865 34.0053L29.6592 37.3321L41.8135 25.6881C42.7712 24.7706 44.324 24.7706 45.2817 25.6881C46.2394 26.6057 46.2394 28.0933 45.2817 29.0108L31.4087 42.3013C31.2402 42.4627 31.0533 42.5957 30.8545 42.7004Z" fill="white"/>
</svg>
