<svg width="33" height="45" viewBox="0 0 33 45" fill="none" xmlns="http://www.w3.org/2000/svg">
<path fill-rule="evenodd" clip-rule="evenodd" d="M16.1192 45C19.0867 45 21.4924 42.5944 21.4924 39.6269C21.4924 36.6594 19.0867 34.2537 16.1192 34.2537C13.1517 34.2537 10.7461 36.6594 10.7461 39.6269C10.7461 42.5944 13.1517 45 16.1192 45Z" fill="#F1F3F8"/>
<path fill-rule="evenodd" clip-rule="evenodd" d="M16.1184 41.6418C17.2313 41.6418 18.1334 40.7397 18.1334 39.6269C18.1334 38.5141 17.2313 37.6119 16.1184 37.6119C15.0056 37.6119 14.1035 38.5141 14.1035 39.6269C14.1035 40.7397 15.0056 41.6418 16.1184 41.6418Z" fill="#BC9920"/>
<path d="M32.2388 16.1194C32.2388 24.1066 26.9771 30.0281 19.4776 31.903C18.1343 32.2388 17.4627 36.2687 16.1194 36.2687C14.7761 36.2687 14.1045 32.2388 12.7612 31.903C5.26175 30.0281 0 24.1066 0 16.1194C0 7.2169 7.2169 0 16.1194 0C25.0219 0 32.2388 7.2169 32.2388 16.1194Z" fill="#FFC911"/>
<path fill-rule="evenodd" clip-rule="evenodd" d="M16.1194 1.34328C7.95878 1.34328 1.34328 7.95878 1.34328 16.1194C1.34328 23.4232 6.11798 28.8576 13.087 30.5998C13.9673 30.8199 14.5047 31.5504 14.7941 32.0011C15.097 32.4729 15.3691 33.0412 15.5955 33.514C15.6144 33.5535 15.633 33.5924 15.6513 33.6305C15.8295 34.0018 15.9804 34.3074 16.1194 34.5504C16.2584 34.3074 16.4093 34.0018 16.5875 33.6305C16.6058 33.5924 16.6244 33.5535 16.6433 33.514C16.8697 33.0412 17.1418 32.4729 17.4447 32.0011C17.7341 31.5504 18.2715 30.8199 19.1518 30.5998C26.1208 28.8576 30.8955 23.4232 30.8955 16.1194C30.8955 7.95878 24.28 1.34328 16.1194 1.34328ZM15.7848 35.0244C15.7848 35.0237 15.7899 35.0188 15.8002 35.0114C15.79 35.0213 15.7848 35.025 15.7848 35.0244ZM16.4386 35.0114C16.4489 35.0188 16.454 35.0237 16.454 35.0244C16.454 35.025 16.4489 35.0213 16.4386 35.0114ZM19.4776 31.903C26.9771 30.0281 32.2388 24.1066 32.2388 16.1194C32.2388 7.2169 25.0219 0 16.1194 0C7.2169 0 0 7.2169 0 16.1194C0 24.1066 5.26175 30.0281 12.7612 31.903C13.4114 32.0655 13.9043 33.0936 14.3921 34.1112C14.9121 35.1959 15.4263 36.2687 16.1194 36.2687C16.8125 36.2687 17.3267 35.1959 17.8467 34.1112C18.3346 33.0936 18.8274 32.0655 19.4776 31.903Z" fill="#BC9920"/>
<path fill-rule="evenodd" clip-rule="evenodd" d="M14.2025 11.3451C14.9664 10.7354 16.054 10.4105 17.378 10.4105C18.0375 10.4105 18.6916 10.4899 19.1947 10.6179C19.7404 10.7567 20.0124 11.2715 20.0124 11.7567C20.0124 12.1368 19.8056 12.4485 19.5426 12.6448C19.281 12.8399 18.9331 12.9457 18.5904 12.8944C18.3106 12.8525 18.0032 12.8287 17.6908 12.8287C17.0221 12.8287 16.5575 12.9787 16.2674 13.204C15.9888 13.4205 15.8371 13.7323 15.8371 14.1507C15.8371 14.4489 15.9032 14.656 15.9608 14.7831C15.9687 14.8004 15.9765 14.8165 15.9841 14.8313H18.1333C18.7574 14.8313 19.2535 15.3445 19.2535 15.9652C19.2535 16.586 18.7574 17.0991 18.1333 17.0991H16.4885C16.4953 17.185 16.499 17.2724 16.499 17.3628C16.499 18.0597 16.3944 18.8043 16.0262 19.3731H19.2729C19.9479 19.3731 20.4852 19.9282 20.4852 20.6007C20.4852 21.2732 19.9479 21.8284 19.2729 21.8284H12.9906C12.3021 21.8284 11.7539 21.2622 11.7539 20.576C11.7539 19.9654 12.1883 19.5103 12.6368 19.2786C13.3107 18.9305 13.747 18.2623 13.747 17.4516C13.747 17.3362 13.7386 17.2189 13.7237 17.0991H12.8741C12.25 17.0991 11.7539 16.586 11.7539 15.9652C11.7539 15.3445 12.25 14.8313 12.8741 14.8313H13.3063C13.0972 14.4403 13.0196 14.222 13.0196 13.8843C13.0196 12.8449 13.4304 11.9613 14.2025 11.3451Z" fill="#AB870C"/>
</svg>
