<svg width="68" height="68" viewBox="0 0 68 68" fill="none" xmlns="http://www.w3.org/2000/svg">
<path d="M68 34C68 52.7777 52.7777 68 34 68C15.2223 68 0 52.7777 0 34C0 15.2223 15.2223 0 34 0C52.7777 0 68 15.2223 68 34Z" fill="white"/>
<path fill-rule="evenodd" clip-rule="evenodd" d="M34 6.22222C32.7694 6.22222 31.5579 6.30218 30.3706 6.45707C29.7621 6.53644 29.2044 6.1075 29.1251 5.49901C29.0457 4.89051 29.4746 4.33288 30.0831 4.25351C31.3656 4.08623 32.673 4 34 4C35.327 4 36.6344 4.08623 37.9169 4.25351C38.5254 4.33288 38.9543 4.89051 38.8749 5.49901C38.7956 6.1075 38.2379 6.53644 37.6294 6.45707C36.4421 6.30218 35.2306 6.22222 34 6.22222ZM44.032 6.8776C44.267 6.31076 44.9171 6.04179 45.4839 6.27685C47.9235 7.28849 50.2001 8.61245 52.2641 10.1986C52.7507 10.5725 52.842 11.27 52.4681 11.7566C52.0942 12.2432 51.3966 12.3345 50.9101 11.9606C48.9983 10.4915 46.8904 9.26579 44.6327 8.32958C44.0659 8.09452 43.7969 7.44444 44.032 6.8776ZM23.968 6.8776C24.2031 7.44445 23.9341 8.09452 23.3673 8.32958C21.1096 9.26579 19.0017 10.4915 17.0899 11.9606C16.6034 12.3345 15.9058 12.2432 15.5319 11.7566C15.158 11.27 15.2493 10.5725 15.7359 10.1986C17.7999 8.61245 20.0765 7.28849 22.5161 6.27685C23.0829 6.04179 23.733 6.31076 23.968 6.8776ZM56.2434 15.5319C56.73 15.158 57.4275 15.2493 57.8014 15.7359C59.3876 17.7999 60.7115 20.0765 61.7231 22.5161C61.9582 23.0829 61.6892 23.733 61.1224 23.968C60.5555 24.2031 59.9055 23.9341 59.6704 23.3673C58.7342 21.1096 57.5085 19.0017 56.0394 17.0899C55.6655 16.6034 55.7568 15.9058 56.2434 15.5319ZM11.7566 15.5319C12.2432 15.9058 12.3345 16.6034 11.9606 17.0899C10.4915 19.0017 9.26579 21.1096 8.32958 23.3673C8.09452 23.9341 7.44444 24.2031 6.8776 23.968C6.31076 23.733 6.04179 23.0829 6.27685 22.5161C7.28849 20.0765 8.61245 17.7999 10.1986 15.7359C10.5725 15.2493 11.27 15.158 11.7566 15.5319ZM62.501 29.1251C63.1095 29.0457 63.6671 29.4746 63.7465 30.0831C63.9138 31.3656 64 32.673 64 34C64 35.327 63.9138 36.6344 63.7465 37.9169C63.6671 38.5254 63.1095 38.9543 62.501 38.8749C61.8925 38.7956 61.4636 38.2379 61.5429 37.6294C61.6978 36.4421 61.7778 35.2306 61.7778 34C61.7778 32.7694 61.6978 31.5579 61.5429 30.3706C61.4636 29.7621 61.8925 29.2044 62.501 29.1251ZM5.49901 29.1251C6.1075 29.2044 6.53644 29.7621 6.45707 30.3706C6.30218 31.5579 6.22222 32.7694 6.22222 34C6.22222 35.2306 6.30218 36.4421 6.45707 37.6294C6.53644 38.2379 6.1075 38.7956 5.49901 38.8749C4.89051 38.9543 4.33288 38.5254 4.25351 37.9169C4.08623 36.6344 4 35.327 4 34C4 32.673 4.08623 31.3656 4.25351 30.0831C4.33288 29.4746 4.89051 29.0457 5.49901 29.1251ZM6.8776 44.032C7.44445 43.7969 8.09452 44.0659 8.32958 44.6327C9.26579 46.8904 10.4915 48.9983 11.9606 50.9101C12.3345 51.3966 12.2432 52.0942 11.7566 52.4681C11.27 52.842 10.5725 52.7507 10.1986 52.2641C8.61245 50.2001 7.28849 47.9235 6.27685 45.4839C6.04179 44.9171 6.31076 44.267 6.8776 44.032ZM61.1224 44.032C61.6892 44.267 61.9582 44.9171 61.7231 45.4839C60.7115 47.9235 59.3876 50.2001 57.8014 52.2641C57.4275 52.7507 56.73 52.842 56.2434 52.4681C55.7568 52.0942 55.6655 51.3966 56.0394 50.9101C57.5085 48.9983 58.7342 46.8904 59.6704 44.6327C59.9055 44.0659 60.5556 43.7969 61.1224 44.032ZM15.5319 56.2434C15.9058 55.7568 16.6034 55.6655 17.0899 56.0394C19.0017 57.5085 21.1096 58.7342 23.3673 59.6704C23.9341 59.9055 24.2031 60.5556 23.968 61.1224C23.733 61.6892 23.0829 61.9582 22.5161 61.7231C20.0765 60.7115 17.7999 59.3876 15.7359 57.8014C15.2493 57.4275 15.158 56.73 15.5319 56.2434ZM52.4681 56.2434C52.842 56.73 52.7507 57.4275 52.2641 57.8014C50.2001 59.3876 47.9235 60.7115 45.4839 61.7231C44.9171 61.9582 44.267 61.6892 44.032 61.1224C43.7969 60.5556 44.0659 59.9055 44.6327 59.6704C46.8904 58.7342 48.9983 57.5085 50.9101 56.0394C51.3966 55.6655 52.0942 55.7568 52.4681 56.2434ZM29.1251 62.501C29.2044 61.8925 29.7621 61.4636 30.3706 61.5429C31.5579 61.6978 32.7694 61.7778 34 61.7778C35.2306 61.7778 36.4421 61.6978 37.6294 61.5429C38.2379 61.4636 38.7956 61.8925 38.8749 62.501C38.9543 63.1095 38.5254 63.6671 37.9169 63.7465C36.6344 63.9138 35.327 64 34 64C32.673 64 31.3656 63.9138 30.0831 63.7465C29.4746 63.6671 29.0457 63.1095 29.1251 62.501Z" fill="#007AFF"/>
<path d="M33.7407 23C34.7372 23 35.545 23.8078 35.545 24.8043V31.9365H42.6772C43.6737 31.9365 44.4815 32.7443 44.4815 33.7407C44.4815 34.7372 43.6737 35.545 42.6772 35.545H35.545V42.6772C35.545 43.6737 34.7372 44.4815 33.7407 44.4815C32.7443 44.4815 31.9365 43.6737 31.9365 42.6772V35.545H24.8043C23.8078 35.545 23 34.7372 23 33.7407C23 32.7443 23.8078 31.9365 24.8043 31.9365H31.9365V24.8043C31.9365 23.8078 32.7443 23 33.7407 23Z" fill="#007AFF"/>
</svg>
