<svg width="68" height="68" viewBox="0 0 68 68" fill="none" xmlns="http://www.w3.org/2000/svg">
<path d="M68 34C68 52.7777 52.7777 68 34 68C15.2223 68 0 52.7777 0 34C0 15.2223 15.2223 0 34 0C52.7777 0 68 15.2223 68 34Z" fill="white"/>
<circle cx="34" cy="34" r="30" fill="#007AFF"/>
<path fill-rule="evenodd" clip-rule="evenodd" d="M30.487 25.719C31.8869 24.5977 33.8798 24 36.306 24C37.5145 24 38.7131 24.1461 39.6352 24.3815C40.6351 24.6368 41.1336 25.5837 41.1336 26.476C41.1336 27.1751 40.7546 27.7485 40.2726 28.1093C39.7932 28.4683 39.1557 28.6629 38.5278 28.5686C38.0151 28.4915 37.4518 28.4477 36.8792 28.4477C35.6539 28.4477 34.8024 28.7235 34.2709 29.138C33.7604 29.536 33.4824 30.1095 33.4824 30.8792C33.4824 31.4276 33.6035 31.8084 33.7091 32.0422C33.7235 32.0741 33.7378 32.1037 33.7517 32.1309H37.6901C38.8338 32.1309 39.7429 33.0748 39.7429 34.2164C39.7429 35.3581 38.8338 36.3019 37.6901 36.3019H34.676C34.6885 36.4598 34.6954 36.6207 34.6954 36.7868C34.6954 38.0687 34.5037 39.4381 33.8288 40.4842H39.7784C41.0153 40.4842 42 41.5052 42 42.7421C42 43.979 41.0153 45 39.7784 45H28.2662C27.0046 45 26 43.9586 26 42.6966C26 41.5735 26.796 40.7365 27.6179 40.3104C28.8527 39.6701 29.6523 38.4411 29.6523 36.9502C29.6523 36.7379 29.6369 36.5223 29.6096 36.3019H28.0528C26.9091 36.3019 26 35.3581 26 34.2164C26 33.0748 26.9091 32.1309 28.0528 32.1309H28.8448C28.4615 31.4118 28.3194 31.0102 28.3194 30.3892C28.3194 28.4775 29.0721 26.8524 30.487 25.719Z" fill="white"/>
</svg>
