<svg width="40" height="40" viewBox="0 0 40 40" fill="none" xmlns="http://www.w3.org/2000/svg">
<circle cx="20" cy="20" r="20" fill="#EA1018"/>
<path d="M24.2426 13.0711C25.0237 12.29 26.29 12.29 27.0711 13.0711C27.8521 13.8521 27.8521 15.1184 27.0711 15.8995L15.7574 27.2132C14.9763 27.9943 13.71 27.9943 12.9289 27.2132C12.1479 26.4322 12.1479 25.1658 12.9289 24.3848L24.2426 13.0711Z" fill="white"/>
<path d="M27.0711 24.3848C27.8521 25.1658 27.8521 26.4322 27.0711 27.2132C26.29 27.9943 25.0237 27.9943 24.2426 27.2132L12.9289 15.8995C12.1479 15.1184 12.1479 13.8521 12.9289 13.0711C13.71 12.29 14.9763 12.29 15.7574 13.0711L27.0711 24.3848Z" fill="white"/>
</svg>
