<svg width="16" height="19" viewBox="0 0 16 19" fill="none" xmlns="http://www.w3.org/2000/svg">
<path fill-rule="evenodd" clip-rule="evenodd" d="M8 2C6.3164 2 5 3.31977 5 4.88889V7H11V4.88889C11 3.31977 9.6836 2 8 2ZM3 4.88889V7H1C0.447715 7 0 7.44772 0 8V18C0 18.5523 0.447715 19 1 19H15C15.5523 19 16 18.5523 16 18V8C16 7.44772 15.5523 7 15 7H13V4.88889C13 2.16246 10.7347 0 8 0C5.26532 0 3 2.16246 3 4.88889ZM2 9V17H14V9H2ZM8 11C7.44772 11 7 11.4477 7 12V14C7 14.5523 7.44772 15 8 15C8.55228 15 9 14.5523 9 14V12C9 11.4477 8.55228 11 8 11Z" fill="#0D2D80"/>
</svg>
