<svg width="150" height="50" viewBox="0 0 150 50" fill="none" xmlns="http://www.w3.org/2000/svg">
<g clip-path="url(#clip0)">
<path d="M138.088 4.04297e-05H12.3383C11.8799 4.04297e-05 11.427 4.04298e-05 10.9699 0.00254043C10.5872 0.00504043 10.2075 0.0123029 9.82117 0.0184154C8.98181 0.0282927 8.14443 0.102136 7.3163 0.239303C6.48933 0.379456 5.68826 0.643685 4.9402 1.02305C4.19305 1.40563 3.51035 1.90275 2.91688 2.49638C2.3203 3.08834 1.823 3.77256 1.44411 4.52274C1.06417 5.27143 0.800723 6.07371 0.662859 6.90189C0.523686 7.72902 0.448795 8.56569 0.438859 9.40439C0.427259 9.78764 0.426034 10.1722 0.419922 10.5555V39.4483C0.426034 39.8364 0.427259 40.2124 0.438859 40.6007C0.448798 41.4393 0.523689 42.2759 0.662859 43.103C0.800342 43.9317 1.06381 44.7344 1.44411 45.4834C1.82283 46.2312 2.3202 46.9126 2.91688 47.5013C3.5081 48.0976 4.19124 48.595 4.9402 48.9747C5.68826 49.355 6.48923 49.6208 7.3163 49.7632C8.14457 49.8992 8.98187 49.9731 9.82117 49.9842C10.2075 49.9927 10.5872 49.9975 10.9699 49.9975C11.427 50 11.8799 50 12.3383 50H138.088C138.538 50 138.994 50 139.443 49.9975C139.824 49.9975 140.215 49.9927 140.596 49.9842C141.433 49.9737 142.269 49.8998 143.096 49.7632C143.925 49.6199 144.729 49.3541 145.481 48.9747C146.229 48.5948 146.912 48.0974 147.503 47.5013C148.098 46.9103 148.596 46.2294 148.98 45.4834C149.357 44.7339 149.618 43.9312 149.753 43.103C149.893 42.2758 149.97 41.4394 149.985 40.6007C149.99 40.2124 149.99 39.8364 149.99 39.4483C150 38.9942 150 38.5425 150 38.081V11.9202C150 11.4624 150 11.0083 149.99 10.5555C149.99 10.1722 149.99 9.78764 149.985 9.40434C149.97 8.56557 149.893 7.72909 149.753 6.90184C149.618 6.07414 149.357 5.27192 148.98 4.52269C148.208 3.01904 146.984 1.79507 145.481 1.02294C144.729 0.6445 143.925 0.380341 143.096 0.23919C142.269 0.101419 141.434 0.0275501 140.596 0.0182404C140.215 0.0121404 139.824 0.00481543 139.443 0.00237793C138.994 -0.00012207 138.538 -0.00012207 138.088 -0.00012207V4.04297e-05Z" fill="#A6A6A6"/>
<path d="M10.976 48.9063C10.5952 48.9063 10.2235 48.9014 9.84564 48.8929C9.06287 48.8827 8.28193 48.8145 7.50922 48.689C6.78871 48.5649 6.09072 48.3341 5.43829 48.0041C4.79185 47.6769 4.20223 47.2478 3.69204 46.7334C3.17447 46.225 2.74356 45.6353 2.41641 44.9878C2.08564 44.336 1.85673 43.6374 1.73766 42.9163C1.60906 42.1414 1.53949 41.3579 1.52953 40.5725C1.52161 40.3089 1.51123 39.4311 1.51123 39.4311V10.5554C1.51123 10.5554 1.52228 9.69116 1.52959 9.43725C1.53913 8.6531 1.6083 7.87082 1.73651 7.09716C1.8558 6.37406 2.08489 5.67344 2.41583 5.01954C2.74179 4.37243 3.1703 3.78233 3.68476 3.2721C4.19863 2.75703 4.79013 2.32576 5.43768 1.99401C6.08861 1.66512 6.78527 1.43592 7.50433 1.31409C8.27958 1.1873 9.06323 1.11875 9.84872 1.10901L10.9766 1.09375H139.437L140.579 1.10963C141.357 1.11887 142.134 1.18681 142.902 1.31286C143.628 1.43622 144.332 1.66702 144.99 1.99768C146.288 2.66623 147.343 3.72395 148.009 5.02259C148.335 5.67197 148.56 6.36688 148.678 7.08374C148.808 7.86374 148.88 8.65217 148.895 9.44275C148.899 9.79675 148.899 10.177 148.899 10.5554C148.909 11.0242 148.909 11.4703 148.909 11.9202V38.081C148.909 38.5351 148.909 38.9783 148.899 39.425C148.899 39.8315 148.899 40.2039 148.894 40.5871C148.879 41.3636 148.808 42.138 148.68 42.904C148.564 43.6303 148.336 44.3344 148.005 44.9915C147.676 45.632 147.248 46.2166 146.736 46.7236C146.225 47.2409 145.635 47.6724 144.987 48.0018C144.33 48.3342 143.627 48.5659 142.902 48.689C142.129 48.8152 141.348 48.8834 140.565 48.8929C140.199 48.9014 139.816 48.9063 139.443 48.9063L138.088 48.9088L10.976 48.9063Z" fill="black"/>
<path d="M31.3809 25.3761C31.3944 24.3328 31.6715 23.3098 32.1865 22.4023C32.7015 21.4949 33.4377 20.7325 34.3266 20.186C33.7619 19.3796 33.017 18.7159 32.151 18.2477C31.2849 17.7795 30.3217 17.5197 29.3377 17.4889C27.2386 17.2686 25.2037 18.7449 24.134 18.7449C23.0437 18.7449 21.3968 17.5108 19.6234 17.5473C18.4763 17.5843 17.3584 17.9179 16.3785 18.5155C15.3987 19.113 14.5904 19.9542 14.0323 20.9571C11.6148 25.1426 13.418 31.2939 15.7338 34.6772C16.8924 36.3339 18.2465 38.1845 20.0183 38.1188C21.7521 38.0469 22.3997 37.0132 24.4926 37.0132C26.566 37.0132 27.1735 38.1188 28.9813 38.0771C30.8418 38.0469 32.014 36.4131 33.1319 34.7407C33.9644 33.5602 34.605 32.2556 35.03 30.875C33.9491 30.4179 33.0267 29.6527 32.3778 28.6748C31.7289 27.6969 31.3822 26.5497 31.3809 25.3761Z" fill="white"/>
<path d="M27.9664 15.2637C28.9808 14.046 29.4806 12.4807 29.3596 10.9005C27.8098 11.0632 26.3782 11.8039 25.3501 12.975C24.8474 13.547 24.4624 14.2126 24.2171 14.9336C23.9718 15.6545 23.871 16.4168 23.9204 17.1767C24.6956 17.1847 25.4625 17.0167 26.1633 16.6853C26.8641 16.3539 27.4807 15.8679 27.9664 15.2637Z" fill="white"/>
<path d="M53.2978 33.9247H47.3811L45.9602 38.1203H43.4541L49.0584 22.5978H51.6621L57.2663 38.1203H54.7175L53.2978 33.9247ZM47.9939 31.9887H52.6839L50.3719 25.1796H50.3072L47.9939 31.9887Z" fill="white"/>
<path d="M69.3699 32.4622C69.3699 35.9791 67.4876 38.2386 64.647 38.2386C63.9274 38.2762 63.2118 38.1105 62.5821 37.7603C61.9523 37.4101 61.4339 36.8897 61.0862 36.2586H61.0325V41.8641H58.7095V26.8031H60.958V28.6854H61.0008C61.3645 28.0573 61.8916 27.5396 62.5262 27.1873C63.1607 26.8349 63.8789 26.6612 64.6043 26.6846C67.4766 26.6847 69.3699 28.9552 69.3699 32.4622ZM66.9822 32.4622C66.9822 30.171 65.7981 28.6646 63.9915 28.6646C62.2166 28.6646 61.0227 30.2027 61.0227 32.4622C61.0227 34.7425 62.2166 36.2696 63.9915 36.2696C65.7981 36.2696 66.9822 34.7743 66.9822 32.4622Z" fill="white"/>
<path d="M81.826 32.4622C81.826 35.9791 79.9437 38.2386 77.1031 38.2386C76.3835 38.2762 75.6679 38.1105 75.0381 37.7603C74.4084 37.4101 73.89 36.8897 73.5423 36.2586H73.4885V41.8641H71.1655V26.803H73.4141V28.6854H73.4568C73.8205 28.0573 74.3476 27.5396 74.9822 27.1872C75.6167 26.8349 76.3349 26.6612 77.0603 26.6846C79.9327 26.6846 81.826 28.9551 81.826 32.4622ZM79.4383 32.4622C79.4383 30.171 78.2542 28.6646 76.4475 28.6646C74.6726 28.6646 73.4788 30.2027 73.4788 32.4622C73.4788 34.7425 74.6726 36.2696 76.4475 36.2696C78.2542 36.2696 79.4383 34.7742 79.4383 32.4622H79.4383Z" fill="white"/>
<path d="M90.0581 33.7953C90.2303 35.3346 91.7256 36.3453 93.7691 36.3453C95.7271 36.3453 97.1358 35.3346 97.1358 33.9466C97.1358 32.7418 96.2862 32.0204 94.2745 31.526L92.2627 31.0413C89.4124 30.3529 88.0891 29.0198 88.0891 26.8568C88.0891 24.1785 90.4231 22.3389 93.7373 22.3389C97.0173 22.3389 99.2659 24.1785 99.3416 26.8568H96.9966C96.8562 25.3077 95.5757 24.3726 93.7044 24.3726C91.833 24.3726 90.5525 25.3187 90.5525 26.6956C90.5525 27.793 91.3704 28.4388 93.3711 28.9331L95.0813 29.3531C98.2661 30.1062 99.5894 31.3856 99.5894 33.656C99.5894 36.5601 97.2761 38.3789 93.5969 38.3789C90.1545 38.3789 87.8303 36.6028 87.6802 33.7952L90.0581 33.7953Z" fill="white"/>
<path d="M104.603 24.1248V26.803H106.755V28.6426H104.603V34.8816C104.603 35.8508 105.033 36.3025 105.979 36.3025C106.235 36.298 106.49 36.2801 106.744 36.2487V38.0774C106.318 38.1568 105.886 38.1928 105.453 38.1848C103.162 38.1848 102.269 37.3242 102.269 35.1294V28.6426H100.623V26.803H102.269V24.1248H104.603Z" fill="white"/>
<path d="M108.001 32.4622C108.001 28.9014 110.098 26.6638 113.368 26.6638C116.65 26.6638 118.737 28.9013 118.737 32.4622C118.737 36.0327 116.661 38.2605 113.368 38.2605C110.077 38.2605 108.001 36.0327 108.001 32.4622ZM116.37 32.4622C116.37 30.0195 115.251 28.5779 113.368 28.5779C111.486 28.5779 110.368 30.0305 110.368 32.4622C110.368 34.9145 111.486 36.3452 113.368 36.3452C115.251 36.3452 116.37 34.9145 116.37 32.4622H116.37Z" fill="white"/>
<path d="M120.653 26.803H122.868V28.7293H122.922C123.072 28.1277 123.425 27.596 123.92 27.2236C124.416 26.8513 125.025 26.6609 125.644 26.6846C125.912 26.6836 126.179 26.7127 126.44 26.7713V28.9441C126.102 28.8408 125.75 28.7934 125.397 28.8037C125.059 28.79 124.723 28.8495 124.41 28.9782C124.098 29.1068 123.817 29.3014 123.587 29.5488C123.357 29.7962 123.184 30.0904 123.078 30.4112C122.972 30.732 122.938 31.0719 122.976 31.4075V38.1201H120.653L120.653 26.803Z" fill="white"/>
<path d="M137.15 34.7961C136.838 36.8506 134.837 38.2605 132.277 38.2605C128.985 38.2605 126.941 36.0547 126.941 32.5159C126.941 28.9661 128.996 26.6638 132.179 26.6638C135.311 26.6638 137.28 28.8147 137.28 32.2461V33.042H129.286V33.1824C129.249 33.5989 129.302 34.0184 129.439 34.4132C129.577 34.808 129.797 35.169 130.085 35.4722C130.373 35.7754 130.722 36.0138 131.109 36.1717C131.497 36.3296 131.913 36.4033 132.331 36.3879C132.88 36.4394 133.431 36.3122 133.902 36.0254C134.372 35.7386 134.738 35.3075 134.944 34.7961L137.15 34.7961ZM129.297 31.4185H134.955C134.976 31.044 134.919 30.6692 134.789 30.3177C134.658 29.9662 134.456 29.6455 134.195 29.3758C133.934 29.1061 133.621 28.8932 133.274 28.7504C132.927 28.6076 132.554 28.5381 132.179 28.5461C131.801 28.5439 131.426 28.6166 131.076 28.76C130.726 28.9034 130.408 29.1148 130.14 29.3818C129.872 29.6488 129.66 29.9663 129.515 30.3159C129.37 30.6654 129.296 31.0402 129.297 31.4185V31.4185Z" fill="white"/>
<path d="M47.7024 10.9139C48.1894 10.8789 48.6781 10.9525 49.1332 11.1293C49.5884 11.3061 49.9986 11.5817 50.3343 11.9362C50.6701 12.2907 50.9229 12.7154 51.0747 13.1794C51.2264 13.6435 51.2733 14.1355 51.2119 14.6199C51.2119 17.0027 49.9241 18.3724 47.7024 18.3724H45.0083V10.9139H47.7024ZM46.1667 17.3176H47.573C47.921 17.3384 48.2693 17.2814 48.5924 17.1506C48.9156 17.0198 49.2056 16.8186 49.4412 16.5617C49.6768 16.3047 49.8521 15.9985 49.9545 15.6652C50.0568 15.3319 50.0835 14.98 50.0327 14.6351C50.0798 14.2916 50.0504 13.9419 49.9465 13.611C49.8426 13.2802 49.6668 12.9764 49.4317 12.7215C49.1967 12.4666 48.9081 12.2669 48.5868 12.1366C48.2654 12.0063 47.9192 11.9487 47.573 11.9679H46.1667V17.3176Z" fill="white"/>
<path d="M52.5204 15.5554C52.485 15.1855 52.5273 14.8123 52.6446 14.4597C52.7619 14.1071 52.9516 13.783 53.2015 13.508C53.4515 13.233 53.7561 13.0133 54.0959 12.863C54.4357 12.7126 54.8032 12.6349 55.1748 12.6349C55.5464 12.6349 55.9139 12.7126 56.2537 12.863C56.5935 13.0133 56.8981 13.233 57.1481 13.508C57.398 13.783 57.5877 14.1071 57.705 14.4597C57.8223 14.8123 57.8646 15.1855 57.8292 15.5554C57.8653 15.9257 57.8235 16.2994 57.7065 16.6526C57.5895 17.0057 57.3999 17.3305 57.1499 17.606C56.8999 17.8815 56.595 18.1017 56.2549 18.2524C55.9147 18.4031 55.5468 18.4809 55.1748 18.4809C54.8028 18.4809 54.4348 18.4031 54.0947 18.2524C53.7545 18.1017 53.4497 17.8815 53.1997 17.606C52.9497 17.3305 52.7601 17.0057 52.6431 16.6526C52.5261 16.2994 52.4843 15.9257 52.5204 15.5554ZM56.6866 15.5554C56.6866 14.3353 56.1385 13.6218 55.1766 13.6218C54.211 13.6218 53.6679 14.3353 53.6679 15.5554C53.6679 16.7853 54.2111 17.4933 55.1766 17.4933C56.1386 17.4933 56.6866 16.7804 56.6866 15.5554H56.6866Z" fill="white"/>
<path d="M64.8862 18.3723H63.7339L62.5706 14.2268H62.4827L61.3242 18.3723H60.1829L58.6313 12.7437H59.7581L60.7664 17.0387H60.8494L62.0066 12.7437H63.0723L64.2295 17.0387H64.3174L65.3208 12.7437H66.4316L64.8862 18.3723Z" fill="white"/>
<path d="M67.7368 12.7436H68.8062V13.6378H68.8892C69.03 13.3167 69.2675 13.0474 69.5686 12.8677C69.8697 12.6879 70.2193 12.6066 70.5689 12.635C70.8427 12.6144 71.1177 12.6557 71.3735 12.7558C71.6292 12.8559 71.8592 13.0123 72.0463 13.2134C72.2334 13.4144 72.3729 13.655 72.4544 13.9173C72.5359 14.1796 72.5573 14.4568 72.5171 14.7285V18.3722H71.4063V15.0074C71.4063 14.1029 71.0132 13.6531 70.1917 13.6531C70.0057 13.6444 69.8201 13.6761 69.6475 13.7458C69.4749 13.8156 69.3195 13.9219 69.1919 14.0574C69.0642 14.1929 68.9673 14.3544 68.9079 14.5308C68.8485 14.7072 68.828 14.8944 68.8477 15.0795V18.3723H67.7368L67.7368 12.7436Z" fill="white"/>
<path d="M74.2871 10.5464H75.398V18.3723H74.2871V10.5464Z" fill="white"/>
<path d="M76.9417 15.5557C76.9064 15.1858 76.9487 14.8126 77.066 14.46C77.1834 14.1074 77.3731 13.7832 77.623 13.5082C77.873 13.2332 78.1777 13.0135 78.5175 12.8631C78.8573 12.7128 79.2248 12.6351 79.5964 12.6351C79.9681 12.6351 80.3356 12.7128 80.6754 12.8631C81.0152 13.0135 81.3199 13.2332 81.5698 13.5082C81.8198 13.7832 82.0095 14.1074 82.1269 14.46C82.2442 14.8126 82.2865 15.1858 82.2512 15.5557C82.2872 15.926 82.2453 16.2997 82.1283 16.6529C82.0113 17.006 81.8217 17.3308 81.5716 17.6063C81.3216 17.8818 81.0167 18.102 80.6766 18.2527C80.3364 18.4033 79.9685 18.4811 79.5964 18.4811C79.2244 18.4811 78.8565 18.4033 78.5163 18.2527C78.1761 18.102 77.8713 17.8818 77.6212 17.6063C77.3712 17.3308 77.1816 17.006 77.0646 16.6529C76.9476 16.2997 76.9057 15.926 76.9417 15.5557ZM81.108 15.5557C81.108 14.3356 80.5599 13.6221 79.598 13.6221C78.6324 13.6221 78.0892 14.3356 78.0892 15.5557C78.0892 16.7856 78.6324 17.4936 79.598 17.4936C80.5599 17.4936 81.108 16.7807 81.108 15.5557H81.108Z" fill="white"/>
<path d="M83.4204 16.7804C83.4204 15.7673 84.1748 15.1832 85.5139 15.1001L87.0386 15.0123V14.5264C87.0386 13.9319 86.6455 13.5962 85.8862 13.5962C85.2661 13.5962 84.8364 13.8239 84.7131 14.2219H83.6377C83.7512 13.2551 84.6606 12.6349 85.9375 12.6349C87.3486 12.6349 88.1445 13.3374 88.1445 14.5264V18.3722H87.0752V17.5812H86.9873C86.8089 17.865 86.5584 18.0963 86.2614 18.2516C85.9643 18.4068 85.6314 18.4805 85.2966 18.465C85.0603 18.4896 84.8215 18.4644 84.5956 18.391C84.3696 18.3176 84.1615 18.1977 83.9848 18.039C83.808 17.8803 83.6665 17.6863 83.5692 17.4695C83.472 17.2527 83.4213 17.018 83.4204 16.7804ZM87.0386 16.2995V15.8289L85.6641 15.9168C84.8889 15.9687 84.5373 16.2323 84.5373 16.7286C84.5373 17.2351 84.9768 17.5299 85.5811 17.5299C85.7581 17.5479 85.937 17.53 86.107 17.4774C86.277 17.4248 86.4347 17.3385 86.5707 17.2237C86.7067 17.1089 86.8182 16.9679 86.8985 16.8091C86.9789 16.6504 87.0265 16.477 87.0386 16.2995Z" fill="white"/>
<path d="M89.6045 15.5556C89.6045 13.777 90.5188 12.6503 91.9409 12.6503C92.2927 12.6341 92.6418 12.7183 92.9475 12.8932C93.2531 13.0681 93.5027 13.3263 93.667 13.6378H93.75V10.5464H94.8608V18.3723H93.7964V17.483H93.7085C93.5315 17.7924 93.2732 18.0474 92.9617 18.2205C92.6501 18.3936 92.2971 18.4782 91.9409 18.4651C90.509 18.4651 89.6045 17.3384 89.6045 15.5556ZM90.752 15.5556C90.752 16.7494 91.3147 17.4678 92.2559 17.4678C93.1922 17.4678 93.7708 16.739 93.7708 15.5604C93.7708 14.3873 93.1861 13.6482 92.2559 13.6482C91.3208 13.6482 90.752 14.3715 90.752 15.5556H90.752Z" fill="white"/>
<path d="M99.4569 15.5554C99.4215 15.1855 99.4638 14.8123 99.5811 14.4597C99.6984 14.1071 99.8881 13.783 100.138 13.508C100.388 13.233 100.693 13.0133 101.032 12.863C101.372 12.7126 101.74 12.6349 102.111 12.6349C102.483 12.6349 102.85 12.7126 103.19 12.863C103.53 13.0133 103.835 13.233 104.085 13.508C104.334 13.783 104.524 14.1071 104.641 14.4597C104.759 14.8123 104.801 15.1855 104.766 15.5554C104.802 15.9257 104.76 16.2994 104.643 16.6526C104.526 17.0057 104.336 17.3305 104.086 17.606C103.836 17.8815 103.532 18.1017 103.191 18.2524C102.851 18.4031 102.483 18.4809 102.111 18.4809C101.739 18.4809 101.371 18.4031 101.031 18.2524C100.691 18.1017 100.386 17.8815 100.136 17.606C99.8862 17.3305 99.6966 17.0057 99.5796 16.6526C99.4626 16.2994 99.4208 15.9257 99.4569 15.5554ZM103.623 15.5554C103.623 14.3353 103.075 13.6218 102.113 13.6218C101.148 13.6218 100.604 14.3353 100.604 15.5554C100.604 16.7853 101.148 17.4933 102.113 17.4933C103.075 17.4933 103.623 16.7804 103.623 15.5554Z" fill="white"/>
<path d="M106.256 12.7436H107.326V13.6378H107.409C107.55 13.3167 107.787 13.0474 108.088 12.8677C108.389 12.6879 108.739 12.6066 109.088 12.635C109.362 12.6144 109.637 12.6557 109.893 12.7558C110.149 12.8559 110.379 13.0123 110.566 13.2134C110.753 13.4144 110.892 13.655 110.974 13.9173C111.055 14.1796 111.077 14.4568 111.037 14.7285V18.3722H109.926V15.0074C109.926 14.1029 109.533 13.6531 108.711 13.6531C108.525 13.6444 108.34 13.6761 108.167 13.7458C107.994 13.8156 107.839 13.9219 107.711 14.0574C107.584 14.1929 107.487 14.3544 107.427 14.5308C107.368 14.7072 107.347 14.8944 107.367 15.0795V18.3723H106.256V12.7436Z" fill="white"/>
<path d="M117.313 11.3423V12.7693H118.533V13.705H117.313V16.5993C117.313 17.1889 117.556 17.4471 118.109 17.4471C118.251 17.4466 118.392 17.4381 118.533 17.4214V18.3467C118.333 18.3824 118.131 18.4014 117.928 18.4035C116.693 18.4035 116.201 17.9689 116.201 16.8837V13.705H115.308V12.7693H116.201V11.3423H117.313Z" fill="white"/>
<path d="M120.051 10.5464H121.152V13.6482H121.24C121.387 13.324 121.631 13.0533 121.939 12.8729C122.246 12.6924 122.601 12.6111 122.956 12.6399C123.228 12.6251 123.501 12.6706 123.754 12.7731C124.007 12.8757 124.234 13.0328 124.419 13.2332C124.604 13.4336 124.743 13.6724 124.825 13.9326C124.907 14.1928 124.931 14.4679 124.894 14.7383V18.3723H123.783V15.0123C123.783 14.1133 123.364 13.6579 122.579 13.6579C122.388 13.6423 122.196 13.6685 122.016 13.7349C121.836 13.8012 121.673 13.906 121.538 14.0419C121.403 14.1778 121.3 14.3416 121.235 14.5217C121.17 14.7019 121.145 14.8941 121.162 15.0849V18.3723H120.051L120.051 10.5464Z" fill="white"/>
<path d="M131.371 16.8527C131.22 17.3671 130.893 17.8121 130.447 18.1098C130.002 18.4075 129.465 18.5389 128.932 18.4811C128.561 18.4909 128.193 18.4199 127.852 18.273C127.512 18.126 127.207 17.9068 126.96 17.6303C126.712 17.3539 126.528 17.027 126.42 16.6722C126.311 16.3174 126.281 15.9433 126.332 15.5758C126.283 15.2072 126.313 14.8323 126.421 14.4765C126.529 14.1206 126.713 13.7922 126.959 13.5133C127.205 13.2345 127.508 13.0118 127.848 12.8603C128.187 12.7088 128.555 12.632 128.927 12.6352C130.493 12.6352 131.438 13.7052 131.438 15.4727V15.8603H127.464V15.9225C127.446 16.1291 127.472 16.337 127.54 16.5329C127.608 16.7289 127.715 16.9085 127.857 17.0603C127.998 17.2121 128.169 17.3328 128.359 17.4145C128.55 17.4963 128.755 17.5373 128.963 17.535C129.228 17.5669 129.498 17.5191 129.736 17.3976C129.975 17.2761 130.171 17.0864 130.302 16.8527L131.371 16.8527ZM127.464 15.0387H130.307C130.321 14.8498 130.295 14.6601 130.231 14.4817C130.168 14.3033 130.067 14.1402 129.937 14.0029C129.806 13.8655 129.649 13.757 129.474 13.6843C129.299 13.6116 129.111 13.5763 128.921 13.5806C128.729 13.5782 128.538 13.6143 128.36 13.6867C128.182 13.7591 128.021 13.8664 127.885 14.0023C127.749 14.1382 127.642 14.2999 127.57 14.4779C127.497 14.6559 127.461 14.8466 127.464 15.0387H127.464Z" fill="white"/>
<path d="M137.42 45H12.4199C9.61992 45 7.41992 42.8 7.41992 40V10C7.41992 7.2 9.61992 5 12.4199 5H137.42C140.22 5 142.42 7.2 142.42 10V40C142.42 42.7 140.22 45 137.42 45Z" fill="black"/>
<path d="M137.42 5.8C139.72 5.8 141.62 7.7 141.62 10V40C141.62 42.3 139.72 44.2 137.42 44.2H12.4199C10.1199 44.2 8.21992 42.3 8.21992 40V10C8.21992 7.7 10.1199 5.8 12.4199 5.8H137.42ZM137.42 5H12.4199C9.61992 5 7.41992 7.2 7.41992 10V40C7.41992 42.8 9.61992 45 12.4199 45H137.42C140.22 45 142.42 42.8 142.42 40V10C142.42 7.3 140.22 5 137.42 5Z" fill="#A6A6A6"/>
<path d="M54.8198 15.2C54.8198 16 54.6198 16.7 54.1198 17.2C53.5198 17.8 52.8198 18.1 51.9198 18.1C51.0198 18.1 50.3198 17.8 49.7198 17.2C49.1198 16.6 48.8198 15.9 48.8198 15C48.8198 14.1 49.1198 13.4 49.7198 12.8C50.3198 12.2 51.0198 11.9 51.9198 11.9C52.3198 11.9 52.7198 12 53.1198 12.2C53.5198 12.4 53.8198 12.6 54.0198 12.9L53.5198 13.4C53.1198 12.9 52.6198 12.7 51.9198 12.7C51.3198 12.7 50.7198 12.9 50.3198 13.4C49.8198 13.8 49.6198 14.4 49.6198 15.1C49.6198 15.8 49.8198 16.4 50.3198 16.8C50.8198 17.2 51.3198 17.5 51.9198 17.5C52.6198 17.5 53.1198 17.3 53.6198 16.8C53.9198 16.5 54.1198 16.1 54.1198 15.6H51.9198V14.9H54.8198C54.8198 14.9 54.8198 15.1 54.8198 15.2Z" fill="white" stroke="white" stroke-width="0.2" stroke-miterlimit="10"/>
<path d="M59.4199 12.7H56.7199V14.6H59.2199V15.3H56.7199V17.2H59.4199V18H55.9199V12H59.4199V12.7Z" fill="white" stroke="white" stroke-width="0.2" stroke-miterlimit="10"/>
<path d="M62.7197 18H61.9197V12.7H60.2197V12H64.4197V12.7H62.7197V18Z" fill="white" stroke="white" stroke-width="0.2" stroke-miterlimit="10"/>
<path d="M67.3198 18V12H68.1198V18H67.3198Z" fill="white" stroke="white" stroke-width="0.2" stroke-miterlimit="10"/>
<path d="M71.52 18H70.72V12.7H69.02V12H73.12V12.7H71.42V18H71.52Z" fill="white" stroke="white" stroke-width="0.2" stroke-miterlimit="10"/>
<path d="M81.0197 17.2C80.4197 17.8 79.7197 18.1 78.8197 18.1C77.9197 18.1 77.2197 17.8 76.6197 17.2C76.0197 16.6 75.7197 15.9 75.7197 15C75.7197 14.1 76.0197 13.4 76.6197 12.8C77.2197 12.2 77.9197 11.9 78.8197 11.9C79.7197 11.9 80.4197 12.2 81.0197 12.8C81.6197 13.4 81.9197 14.1 81.9197 15C81.9197 15.9 81.6197 16.6 81.0197 17.2ZM77.2197 16.7C77.6197 17.1 78.2197 17.4 78.8197 17.4C79.4197 17.4 80.0197 17.2 80.4197 16.7C80.8197 16.3 81.1197 15.7 81.1197 15C81.1197 14.3 80.9197 13.7 80.4197 13.3C80.0197 12.9 79.4197 12.6 78.8197 12.6C78.2197 12.6 77.6197 12.8 77.2197 13.3C76.8197 13.7 76.5197 14.3 76.5197 15C76.5197 15.7 76.7197 16.3 77.2197 16.7Z" fill="white" stroke="white" stroke-width="0.2" stroke-miterlimit="10"/>
<path d="M83.02 18V12H83.92L86.82 16.7V15.5V12H87.62V18H86.82L83.72 13.1V14.3V18H83.02Z" fill="white" stroke="white" stroke-width="0.2" stroke-miterlimit="10"/>
<path d="M75.52 26.8C73.12 26.8 71.22 28.6 71.22 31.1C71.22 33.5 73.12 35.4 75.52 35.4C77.92 35.4 79.82 33.6 79.82 31.1C79.82 28.5 77.92 26.8 75.52 26.8ZM75.52 33.6C74.22 33.6 73.12 32.5 73.12 31C73.12 29.5 74.22 28.4 75.52 28.4C76.82 28.4 77.92 29.4 77.92 31C77.92 32.5 76.82 33.6 75.52 33.6ZM66.22 26.8C63.82 26.8 61.92 28.6 61.92 31.1C61.92 33.5 63.82 35.4 66.22 35.4C68.62 35.4 70.52 33.6 70.52 31.1C70.52 28.5 68.62 26.8 66.22 26.8ZM66.22 33.6C64.92 33.6 63.82 32.5 63.82 31C63.82 29.5 64.92 28.4 66.22 28.4C67.52 28.4 68.62 29.4 68.62 31C68.62 32.5 67.52 33.6 66.22 33.6ZM55.12 28.1V29.9H59.42C59.32 30.9 58.92 31.7 58.42 32.2C57.82 32.8 56.82 33.5 55.12 33.5C52.42 33.5 50.42 31.4 50.42 28.7C50.42 26 52.52 23.9 55.12 23.9C56.52 23.9 57.62 24.5 58.42 25.2L59.72 23.9C58.62 22.9 57.22 22.1 55.22 22.1C51.62 22.1 48.52 25.1 48.52 28.7C48.52 32.3 51.62 35.3 55.22 35.3C57.22 35.3 58.62 34.7 59.82 33.4C61.02 32.2 61.42 30.5 61.42 29.2C61.42 28.8 61.42 28.4 61.32 28.1H55.12ZM100.52 29.5C100.12 28.5 99.12 26.8 96.92 26.8C94.72 26.8 92.92 28.5 92.92 31.1C92.92 33.5 94.72 35.4 97.12 35.4C99.02 35.4 100.22 34.2 100.62 33.5L99.22 32.5C98.72 33.2 98.12 33.7 97.12 33.7C96.12 33.7 95.52 33.3 95.02 32.4L100.72 30L100.52 29.5ZM94.72 30.9C94.72 29.3 96.02 28.4 96.92 28.4C97.62 28.4 98.32 28.8 98.52 29.3L94.72 30.9ZM90.02 35H91.92V22.5H90.02V35ZM87.02 27.7C86.52 27.2 85.72 26.7 84.72 26.7C82.62 26.7 80.62 28.6 80.62 31C80.62 33.4 82.52 35.2 84.72 35.2C85.72 35.2 86.52 34.7 86.92 34.2H87.02V34.8C87.02 36.4 86.12 37.3 84.72 37.3C83.62 37.3 82.82 36.5 82.62 35.8L81.02 36.5C81.52 37.6 82.72 39 84.82 39C87.02 39 88.82 37.7 88.82 34.6V27H87.02V27.7ZM84.82 33.6C83.52 33.6 82.42 32.5 82.42 31C82.42 29.5 83.52 28.4 84.82 28.4C86.12 28.4 87.12 29.5 87.12 31C87.12 32.5 86.12 33.6 84.82 33.6ZM109.22 22.5H104.72V35H106.62V30.3H109.22C111.32 30.3 113.32 28.8 113.32 26.4C113.32 24 111.32 22.5 109.22 22.5ZM109.32 28.5H106.62V24.2H109.32C110.72 24.2 111.52 25.4 111.52 26.3C111.42 27.4 110.62 28.5 109.32 28.5ZM120.82 26.7C119.42 26.7 118.02 27.3 117.52 28.6L119.22 29.3C119.62 28.6 120.22 28.4 120.92 28.4C121.92 28.4 122.82 29 122.92 30V30.1C122.62 29.9 121.82 29.6 121.02 29.6C119.22 29.6 117.42 30.6 117.42 32.4C117.42 34.1 118.92 35.2 120.52 35.2C121.82 35.2 122.42 34.6 122.92 34H123.02V35H124.82V30.2C124.62 28 122.92 26.7 120.82 26.7ZM120.62 33.6C120.02 33.6 119.12 33.3 119.12 32.5C119.12 31.5 120.22 31.2 121.12 31.2C121.92 31.2 122.32 31.4 122.82 31.6C122.62 32.8 121.62 33.6 120.62 33.6ZM131.12 27L129.02 32.4H128.92L126.72 27H124.72L128.02 34.6L126.12 38.8H128.02L133.12 27H131.12ZM114.32 35H116.22V22.5H114.32V35Z" fill="white"/>
<path d="M17.8198 12.5C17.5198 12.8 17.3198 13.3 17.3198 13.9V36C17.3198 36.6 17.5198 37.1 17.8198 37.4L17.9198 37.5L30.3198 25.1V25V24.9L17.8198 12.5Z" fill="url(#paint0_linear)"/>
<path d="M34.4198 29.3L30.3198 25.2V25V24.9L34.4198 20.8L34.5198 20.9L39.4198 23.7C40.8198 24.5 40.8198 25.8 39.4198 26.6L34.4198 29.3Z" fill="url(#paint1_linear)"/>
<path d="M34.5198 29.2L30.3198 25L17.8198 37.5C18.3198 38 19.0198 38 19.9198 37.6L34.5198 29.2Z" fill="url(#paint2_linear)"/>
<path d="M34.5198 20.8L19.9198 12.5C19.0198 12 18.3198 12.1 17.8198 12.6L30.3198 25L34.5198 20.8Z" fill="url(#paint3_linear)"/>
<path opacity="0.2" d="M34.4198 29.1L19.9198 37.3C19.1198 37.8 18.4198 37.7 17.9198 37.3L17.8198 37.4L17.9198 37.5C18.4198 37.9 19.1198 38 19.9198 37.5L34.4198 29.1Z" fill="black"/>
<path opacity="0.12" d="M17.8199 37.3C17.5199 37 17.4199 36.5 17.4199 35.9V36C17.4199 36.6 17.6199 37.1 17.9199 37.4V37.3H17.8199Z" fill="black"/>
<path opacity="0.12" d="M39.4199 26.3L34.4199 29.1L34.5199 29.2L39.4199 26.4C40.1199 26 40.4199 25.5 40.4199 25C40.4199 25.5 40.0199 25.9 39.4199 26.3Z" fill="black"/>
<path opacity="0.25" d="M19.9199 12.6L39.4199 23.7C40.0199 24.1 40.4199 24.5 40.4199 25C40.4199 24.5 40.1199 24 39.4199 23.6L19.9199 12.5C18.5199 11.7 17.4199 12.4 17.4199 14V14.1C17.4199 12.5 18.5199 11.8 19.9199 12.6Z" fill="white"/>
</g>
<defs>
<linearGradient id="paint0_linear" x1="29.2195" y1="13.7097" x2="12.4371" y2="30.4921" gradientUnits="userSpaceOnUse">
<stop stop-color="#00A0FF"/>
<stop offset="0.00657445" stop-color="#00A1FF"/>
<stop offset="0.2601" stop-color="#00BEFF"/>
<stop offset="0.5122" stop-color="#00D2FF"/>
<stop offset="0.7604" stop-color="#00DFFF"/>
<stop offset="1" stop-color="#00E3FF"/>
</linearGradient>
<linearGradient id="paint1_linear" x1="41.2542" y1="25.0014" x2="17.0573" y2="25.0014" gradientUnits="userSpaceOnUse">
<stop stop-color="#FFE000"/>
<stop offset="0.4087" stop-color="#FFBD00"/>
<stop offset="0.7754" stop-color="#FFA500"/>
<stop offset="1" stop-color="#FF9C00"/>
</linearGradient>
<linearGradient id="paint2_linear" x1="32.2468" y1="27.2961" x2="9.48853" y2="50.0544" gradientUnits="userSpaceOnUse">
<stop stop-color="#FF3A44"/>
<stop offset="1" stop-color="#C31162"/>
</linearGradient>
<linearGradient id="paint3_linear" x1="14.7171" y1="5.17619" x2="24.8797" y2="15.3387" gradientUnits="userSpaceOnUse">
<stop stop-color="#32A071"/>
<stop offset="0.0685" stop-color="#2DA771"/>
<stop offset="0.4762" stop-color="#15CF74"/>
<stop offset="0.8009" stop-color="#06E775"/>
<stop offset="1" stop-color="#00F076"/>
</linearGradient>
<clipPath id="clip0">
<rect width="149.58" height="50" fill="white" transform="translate(0.419922)"/>
</clipPath>
</defs>
</svg>
