<svg width="40" height="40" viewBox="0 0 40 40" fill="none" xmlns="http://www.w3.org/2000/svg">
<circle cx="20" cy="20" r="20" fill="#00A980"/>
<path d="M17.3282 26.6299C17.2431 26.7163 17.1502 26.7861 17.0527 26.8405L17.0463 26.8441C16.5883 27.1053 15.9974 27.0392 15.6034 26.639L11.3623 22.3319C10.8792 21.8413 10.8792 21.0391 11.3623 20.5485C11.8361 20.0673 12.5972 20.0673 13.071 20.5485L16.4613 23.9916L26.929 13.3609C27.4028 12.8797 28.1639 12.8797 28.6377 13.3609C29.1208 13.8515 29.1208 14.6537 28.6377 15.1443L17.3282 26.6299Z" fill="white"/>
<path fill-rule="evenodd" clip-rule="evenodd" d="M15.6034 26.639L14.8908 27.3407L10.6498 23.0336C9.78341 22.1537 9.78341 20.7267 10.6498 19.8469C11.5153 18.9678 12.918 18.9678 13.7835 19.8469L16.4613 22.5663L26.2165 12.6593C27.082 11.7802 28.4847 11.7802 29.3502 12.6593C30.2166 13.5391 30.2166 14.9661 29.3502 15.846L18.0407 27.3316C18.0407 27.3316 18.0407 27.3316 18.0407 27.3316C17.8893 27.4853 17.7212 27.6124 17.5423 27.7125C17.5421 27.7126 17.5425 27.7123 17.5423 27.7125M17.0463 26.8441L17.0527 26.8405C17.1502 26.7861 17.2431 26.7163 17.3282 26.6299L28.6377 15.1443C29.1208 14.6537 29.1208 13.8515 28.6377 13.3609C28.1639 12.8797 27.4028 12.8797 26.929 13.3609L16.4613 23.9916L13.071 20.5485C12.5972 20.0673 11.8361 20.0673 11.3623 20.5485C10.8792 21.0391 10.8792 21.8413 11.3623 22.3319L15.6034 26.639C15.9974 27.0392 16.5883 27.1053 17.0463 26.8441ZM17.5407 27.7133C16.6961 28.1944 15.6086 28.0696 14.8908 27.3407L15.6034 26.639" fill="white"/>
</svg>
