<svg width="1192" height="331" viewBox="0 0 1192 331" fill="none" xmlns="http://www.w3.org/2000/svg">
<path d="M1055.5 112.007C1054.17 107.007 1050.5 98.5072 1035.5 98.5068C1023.99 98.5066 1009 109.007 1009 126.507C1009 140.507 999 156.341 994 162.507" stroke="#CFD5E9" stroke-width="3" stroke-linecap="round"/>
<path d="M602 149.507C596.333 151.507 584.2 157.707 581 166.507C577.8 175.307 563.667 182.174 557 184.507" stroke="#CCD3E7" stroke-width="3" stroke-linecap="round"/>
<path d="M602 273.507C598.667 270.341 591.4 262.607 589 257.007M609.5 165.507C609.5 158.307 575.833 101.841 559 74.5073" stroke="#CCD3E7" stroke-width="3" stroke-linecap="round"/>
<path d="M243.771 93.7479L229.069 82.0804L214.64 101.474L228.676 112.457L243.771 93.7479Z" fill="#E1E6EF" fill-opacity="0.65"/>
<path d="M168.079 222.467L160.065 215.612L152.5 226.317L159.847 232.488L168.079 222.467Z" fill="#E1E6EF" fill-opacity="0.65"/>
<path d="M170.727 226.552L180.351 213.174L199.718 229.627L183.931 249.678L174.576 242.131L180.073 234.775L170.727 226.552Z" fill="#E1E6EF" fill-opacity="0.65"/>
<path d="M199.361 257.304L190.682 249.765L183.8 259.804L192.48 267.342L199.361 257.304Z" fill="#E1E6EF" fill-opacity="0.65"/>
<path d="M227.658 205.06L211.631 191.35L202.725 201.363L204.707 204.764L202.629 208.788L214.64 219.746L227.658 205.06Z" fill="#E1E6EF" fill-opacity="0.65"/>
<path d="M227.405 224.637L222.092 217.816L212.537 225.795L219.2 232.632L227.405 224.637Z" fill="#E1E6EF" fill-opacity="0.65"/>
<path d="M275.423 114.456L303.265 101.987L311.779 122.352L296.166 128.902L292.229 120.074L280.009 125.318L275.423 114.456Z" fill="#E1E6EF" fill-opacity="0.65"/>
<path d="M298.263 217.842L294.369 205.639L285.541 209.576L289.435 221.779L298.263 217.842Z" fill="#E1E6EF" fill-opacity="0.65"/>
<path d="M265.343 198.401L267.534 185.601L256.084 183.428L253.893 196.228L265.343 198.401Z" fill="#E1E6EF" fill-opacity="0.65"/>
<path d="M245.209 159.571L245.488 137.97L239.413 137.891L239.561 126.415L228.085 126.267L227.658 159.344L245.209 159.571Z" fill="#E1E6EF" fill-opacity="0.65"/>
<path d="M240.972 121.708L247.178 111.66L266.58 125.414L261.049 135.47L240.972 121.708Z" fill="#E1E6EF" fill-opacity="0.65"/>
<path d="M209.655 135.287L207.164 119.051L184.817 124.164L188.001 139.058L209.655 135.287Z" fill="#E1E6EF" fill-opacity="0.65"/>
<path d="M180.11 122.753L176.856 113.259L166.012 116.495L169.265 125.989L180.11 122.753Z" fill="#E1E6EF" fill-opacity="0.65"/>
<path d="M192.565 99.2834L196.002 94.6017L187.313 87.738L183.886 91.7446L192.565 99.2834Z" fill="#E1E6EF" fill-opacity="0.65"/>
<path d="M169.026 92.2279L159.741 79.2801L157.076 76.5451L138.667 90.4856L146.61 102.741L156.832 95.4462L159.488 98.8563L169.026 92.2279Z" fill="#E1E6EF" fill-opacity="0.65"/>
<path d="M140.404 112.788L140.544 101.987L121.643 101.743L121.503 112.544L140.404 112.788Z" fill="#E1E6EF" fill-opacity="0.65"/>
<path d="M91.1621 107.838L94.0279 95.047L81.2283 92.8563L78.3625 105.647L91.1621 107.838Z" fill="#E1E6EF" fill-opacity="0.65"/>
<path d="M72.0257 125.82L69.587 105.534L46.592 108.613L48.3644 128.215L72.0257 125.82Z" fill="#E1E6EF" fill-opacity="0.65"/>
<path d="M80.531 146.86L79.4162 128.616L60.4802 131.072L61.6037 148.641L80.531 146.86Z" fill="#E1E6EF" fill-opacity="0.65"/>
<path d="M101.918 213.174L100.137 194.246L79.176 196.676L80.9571 215.604L101.918 213.174Z" fill="#E1E6EF" fill-opacity="0.65"/>
<path d="M126.72 226.997L124.87 213.47L111.334 215.996L113.868 228.856L126.72 226.997Z" fill="#E1E6EF" fill-opacity="0.65"/>
<path d="M56.592 212.781L61.0432 181.782L38.1266 178.785L34.4638 201.018L43.2219 202.481L42.4336 211.248L56.592 212.781Z" fill="#E1E6EF" fill-opacity="0.65"/>
<path d="M22.4839 202.481L22.8064 177.505L14.0308 177.392L14.057 175.366L1.23124 175.201L0.873907 202.877L22.4839 202.481Z" fill="#E1E6EF" fill-opacity="0.65"/>
<path d="M508.285 277.758L526.003 283.951L533.264 260.895L516.399 255.13L508.285 277.758Z" fill="#E1E6EF" fill-opacity="0.65"/>
<path d="M548.892 110.315L558.712 114.158L562.342 101.563L553.376 98.1465L548.892 110.315Z" fill="#E1E6EF" fill-opacity="0.65"/>
<path d="M545.049 107.326L540.351 123.123L516.655 113.941L524.983 89.818L536.298 93.8752L533.522 102.628L545.049 107.326Z" fill="#E1E6EF" fill-opacity="0.65"/>
<path d="M507.905 87.6815L518.579 91.9522L521.782 80.2109L511.108 75.9402L507.905 87.6815Z" fill="#E1E6EF" fill-opacity="0.65"/>
<path d="M498.332 146.32L517.972 154.007L523.096 141.626L520.108 139.063L520.749 134.58L505.805 128.174L498.332 146.32Z" fill="#E1E6EF" fill-opacity="0.65"/>
<path d="M492.142 127.746L499.4 132.443L505.806 121.77L497.267 117.499L492.142 127.746Z" fill="#E1E6EF" fill-opacity="0.65"/>
<path d="M461.068 227.284L438.864 248.203L424.135 231.764L436.732 220.45L443.349 227.496L453.17 218.53L461.068 227.284Z" fill="#E1E6EF" fill-opacity="0.65"/>
<path d="M417.089 104.763L424.774 115.011L431.82 108.394L424.135 98.146L417.089 104.763Z" fill="#E1E6EF" fill-opacity="0.65"/>
<path d="M454.567 112.317L456.701 125.126L468.229 123.419L466.096 110.61L454.567 112.317Z" fill="#E1E6EF" fill-opacity="0.65"/>
<path d="M485.313 216.057L492.142 236.552L497.907 234.631L501.535 245.519L512.423 241.891L501.965 210.508L485.313 216.057Z" fill="#E1E6EF" fill-opacity="0.65"/>
<path d="M501.748 250.43L499.185 261.957L476.343 255.337L478.265 244.023L501.748 250.43Z" fill="#E1E6EF" fill-opacity="0.65"/>
<path d="M526.87 227.32L534.554 241.837L553.982 229.67L546.084 216.647L526.87 227.32Z" fill="#E1E6EF" fill-opacity="0.65"/>
<path d="M558.892 229.457L565.083 237.357L574.263 230.74L568.073 222.84L558.892 229.457Z" fill="#E1E6EF" fill-opacity="0.65"/>
<path d="M554.834 255.716L553.125 261.266L563.585 264.896L565.507 259.986L554.834 255.716Z" fill="#E1E6EF" fill-opacity="0.65"/>
<path d="M595.756 237.541L608.778 246.722L612.193 248.43L625.004 229.218L613.477 220.25L606.217 230.497L602.588 228.148L595.756 237.541Z" fill="#E1E6EF" fill-opacity="0.65"/>
<path d="M616.04 208.723L619.454 218.97L637.388 212.994L633.973 202.747L616.04 208.723Z" fill="#E1E6EF" fill-opacity="0.65"/>
<path d="M668.469 206.091L669.963 219.113L682.772 216.98L681.279 203.957L668.469 206.091Z" fill="#E1E6EF" fill-opacity="0.65"/>
<path d="M680.64 182.822L689.605 201.182L710.314 190.724L702.203 172.79L680.64 182.822Z" fill="#E1E6EF" fill-opacity="0.65"/>
<path d="M665.698 165.742L672.741 182.608L689.821 174.07L682.991 157.844L665.698 165.742Z" fill="#E1E6EF" fill-opacity="0.65"/>
<path d="M725.205 148.449L733.102 165.742L752.103 156.564L744.206 139.271L725.205 148.449Z" fill="#E1E6EF" fill-opacity="0.65"/>
<path d="M697.239 143.536L703.429 155.705L715.385 148.875L708.768 137.559L697.239 143.536Z" fill="#E1E6EF" fill-opacity="0.65"/>
<path d="M680.64 31.9476L686.615 62.6899L709.245 57.9954L705.404 35.7927L696.651 37.2863L694.517 28.7466L680.64 31.9476Z" fill="#E1E6EF" fill-opacity="0.65"/>
<path d="M640.931 241.198L648.828 264.895L657.154 262.121L657.795 264.042L669.963 259.987L661.213 233.728L640.931 241.198Z" fill="#E1E6EF" fill-opacity="0.65"/>
<path d="M1043.43 231.382L1032.05 216.452L1013.29 231.693L1024.19 245.796L1043.43 231.382Z" fill="#E1E6EF" fill-opacity="0.65"/>
<path d="M900.585 26.7303L894.508 18.1126L884.539 26.6242L890.139 34.415L900.585 26.7303Z" fill="#E1E6EF" fill-opacity="0.65"/>
<path d="M958.16 112.25L970.783 101.655L985.501 122.372L965.261 137.916L958.053 128.297L965.192 122.522L958.16 112.25Z" fill="#E1E6EF" fill-opacity="0.65"/>
<path d="M978.337 149.108L971.782 139.663L962.64 147.697L969.195 157.142L978.337 149.108Z" fill="#E1E6EF" fill-opacity="0.65"/>
<path d="M1013.29 77.0152L1001.14 59.7799L990.038 67.2899L991.121 71.0745L988.116 74.4629L997.058 88.0415L1013.29 77.0152Z" fill="#E1E6EF" fill-opacity="0.65"/>
<path d="M1008.22 95.926L1004.76 88.0072L993.529 93.3861L998.303 101.654L1008.22 95.926Z" fill="#E1E6EF" fill-opacity="0.65"/>
<path d="M1069.93 114.685L1069.16 101.899L1059.64 103.54L1060.41 116.326L1069.93 114.685Z" fill="#E1E6EF" fill-opacity="0.65"/>
<path d="M1042.81 87.7346L1048.09 75.869L1037.53 70.9424L1032.25 82.8079L1042.81 87.7346Z" fill="#E1E6EF" fill-opacity="0.65"/>
<path d="M1117.37 288.133L1122.96 267.266L1117.1 265.694L1120.07 254.608L1108.98 251.638L1100.42 283.59L1117.37 288.133Z" fill="#E1E6EF" fill-opacity="0.65"/>
<path d="M1122.59 250.393L1131.08 242.184L1146.5 260.293L1138.66 268.676L1122.59 250.393Z" fill="#E1E6EF" fill-opacity="0.65"/>
<path d="M1000.13 263.237L1001.72 246.888L978.799 246.339L978.215 261.558L1000.13 263.237Z" fill="#E1E6EF" fill-opacity="0.65"/>
<path d="M974.584 243.811L973.77 233.808L962.462 234.273L963.277 244.276L974.584 243.811Z" fill="#E1E6EF" fill-opacity="0.65"/>
<path d="M992.437 224.133L996.921 220.442L990.191 211.65L985.882 214.689L992.437 224.133Z" fill="#E1E6EF" fill-opacity="0.65"/>
<path d="M948.272 216.756L942.463 201.92L940.553 198.613L919.277 207.589L923.957 221.424L935.661 216.872L937.396 220.831L948.272 216.756Z" fill="#E1E6EF" fill-opacity="0.65"/>
<path d="M915.468 229.633L918.263 219.199L900.005 214.307L897.209 224.74L915.468 229.633Z" fill="#E1E6EF" fill-opacity="0.65"/>
<path d="M870.262 202.945L876.19 191.254L864.324 185.978L858.396 197.669L870.262 202.945Z" fill="#E1E6EF" fill-opacity="0.65"/>
<path d="M847.285 215.659L849.919 195.398L826.874 192.717L823.763 212.152L847.285 215.659Z" fill="#E1E6EF" fill-opacity="0.65"/>
<path d="M850.346 238.146L853.759 220.19L834.802 217.906L831.563 235.21L850.346 238.146Z" fill="#E1E6EF" fill-opacity="0.65"/>
<path d="M842.153 137.256L845.089 118.473L824.175 115.665L821.239 134.448L842.153 137.256Z" fill="#E1E6EF" fill-opacity="0.65"/>
<path d="M862.786 156.763L864.324 143.197L850.583 142.31L849.872 155.399L862.786 156.763Z" fill="#E1E6EF" fill-opacity="0.65"/>
<path d="M870.885 40.0073L882.835 11.0593L861.363 2.5102L852.337 23.1556L860.464 26.7313L857.541 35.0338L870.885 40.0073Z" fill="#E1E6EF" fill-opacity="0.65"/>
<path d="M912.585 188.817L919.05 164.689L910.572 162.418L911.097 160.462L898.707 157.142L891.543 183.878L912.585 188.817Z" fill="#E1E6EF" fill-opacity="0.65"/>
<path fill-rule="evenodd" clip-rule="evenodd" d="M285.584 249.735C284.839 250.098 283.941 249.79 283.577 249.046L273.894 229.248C267.704 224.457 255.168 214.804 252.169 212.675C251.244 212.018 250.216 210.96 249.199 209.773C248.164 208.563 247.068 207.135 246.004 205.667C243.971 202.86 242.016 199.852 240.769 197.831L226.07 187.791L225.958 187.174C225.463 184.443 224.484 180.148 223.163 176.182C222.503 174.198 221.768 172.33 220.982 170.793C220.178 169.222 219.393 168.144 218.693 167.589C218.441 167.391 218.194 167.194 217.951 167.001C215.796 165.289 213.929 163.805 212.192 162.989C211.255 162.549 210.476 162.365 209.811 162.399C209.183 162.431 208.54 162.662 207.848 163.277C204.786 165.999 199.096 169.768 196.669 171.295C195.968 171.736 195.042 171.525 194.601 170.824C194.16 170.123 194.37 169.197 195.072 168.756C197.499 167.229 202.998 163.575 205.855 161.035C207.012 160.006 208.292 159.473 209.658 159.403C210.987 159.335 212.272 159.711 213.468 160.273C215.546 161.25 217.71 162.973 219.794 164.632C220.049 164.835 220.302 165.037 220.554 165.237C221.768 166.197 222.79 167.742 223.653 169.427C224.532 171.147 225.322 173.169 226.01 175.234C227.288 179.075 228.253 183.181 228.795 186.02L242.991 195.715L243.159 195.99C244.362 197.955 246.361 201.046 248.433 203.907C249.47 205.337 250.514 206.695 251.478 207.821C252.461 208.968 253.293 209.794 253.906 210.229C257.016 212.436 269.955 222.404 276.006 227.089L276.282 227.303L286.272 247.728C286.636 248.472 286.328 249.371 285.584 249.735Z" fill="#CCD3E7"/>
<path fill-rule="evenodd" clip-rule="evenodd" d="M109.861 129.246C109.619 130.038 108.781 130.484 107.988 130.241C105.841 129.585 102.389 128.464 98.9882 127.228C95.6222 126.005 92.189 124.628 90.1556 123.454C88.1072 122.271 85.5535 120.186 83.2494 118.132C80.9223 116.057 78.7593 113.931 77.4712 112.6C76.8951 112.005 76.9108 111.055 77.5061 110.479C78.1015 109.903 79.0511 109.919 79.6272 110.514C80.8702 111.799 82.9801 113.872 85.2459 115.892C87.5345 117.933 89.8935 119.839 91.6556 120.856C93.4326 121.882 96.6338 123.181 100.013 124.409C103.357 125.624 106.76 126.729 108.866 127.373C109.658 127.615 110.104 128.453 109.861 129.246Z" fill="#CCD3E7"/>
<path fill-rule="evenodd" clip-rule="evenodd" d="M132.635 165.878C132.221 166.595 131.303 166.841 130.586 166.427L108.452 153.648L108.405 153.615C107.41 152.934 105.924 151.702 104.585 150.149C103.262 148.615 101.96 146.628 101.55 144.44C101.406 143.67 101.534 142.74 101.728 141.856C101.934 140.919 102.265 139.824 102.681 138.631C103.514 136.241 104.728 133.341 106.092 130.317C108.822 124.262 112.204 117.601 114.487 113.313C114.876 112.582 115.784 112.304 116.516 112.694C117.247 113.083 117.524 113.991 117.135 114.723C114.872 118.973 111.522 125.573 108.827 131.55C107.477 134.542 106.304 137.35 105.514 139.618C105.118 140.754 104.828 141.725 104.658 142.5C104.476 143.327 104.474 143.751 104.499 143.888C104.768 145.324 105.684 146.83 106.856 148.19C107.991 149.506 109.253 150.553 110.054 151.109L132.086 163.829C132.803 164.243 133.049 165.16 132.635 165.878Z" fill="#CCD3E7"/>
<path d="M830.5 172.008C836.667 173.841 852.6 176.408 867 172.008C885 166.508 887 155.508 896.5 150.508C904.1 146.508 912.667 146.841 916 147.508" stroke="#CCD3E7" stroke-width="3" stroke-linecap="round"/>
<path d="M8 155.115C17.3333 153.949 63.5 155.115 97.5 178.613C132.963 203.121 159 198.196 169.5 194.113C192 185.363 211.5 175.608 233.5 171.608C268.5 165.244 305.667 171.56 328 174.036C408.57 182.437 438.353 193.09 480 198.613C570.5 210.613 640.726 178.702 674.5 126.113C709.5 71.6147 784 50.6152 846.5 84.1153C889.702 107.272 914.5 146.113 985.5 175.113C1042.3 198.313 1083.83 199.115 1103 196.615" stroke="#CCD3E7" stroke-width="6" stroke-linecap="round"/>
</svg>
