<svg width="68" height="69" viewBox="0 0 68 69" fill="none" xmlns="http://www.w3.org/2000/svg">
<path fill-rule="evenodd" clip-rule="evenodd" d="M44 68.5073C47.3137 68.5073 50 65.821 50 62.5073C50 59.1936 47.3137 56.5073 44 56.5073C40.6863 56.5073 38 59.1936 38 62.5073C38 65.821 40.6863 68.5073 44 68.5073Z" fill="white"/>
<path fill-rule="evenodd" clip-rule="evenodd" d="M44 65.5073C45.6569 65.5073 47 64.1642 47 62.5073C47 60.8505 45.6569 59.5073 44 59.5073C42.3431 59.5073 41 60.8505 41 62.5073C41 64.1642 42.3431 65.5073 44 65.5073Z" fill="#BC9920"/>
<path d="M68 27.5073C68 39.3993 60.1658 48.2159 49 51.0073C47 51.5073 46 57.5073 44 57.5073C42 57.5073 41 51.5073 39 51.0073C27.8342 48.2159 20 39.3993 20 27.5073C20 14.2525 30.7452 3.50732 44 3.50732C57.2548 3.50732 68 14.2525 68 27.5073Z" fill="#FFC911"/>
<path fill-rule="evenodd" clip-rule="evenodd" d="M44 5.50732C31.8497 5.50732 22 15.3571 22 27.5073C22 38.3818 29.109 46.473 39.4851 49.067C40.7957 49.3947 41.596 50.4823 42.0268 51.1534C42.4778 51.8559 42.8829 52.702 43.2199 53.4059C43.2481 53.4648 43.2758 53.5226 43.303 53.5794C43.5684 54.1322 43.793 54.5872 44 54.9491C44.207 54.5872 44.4316 54.1322 44.697 53.5794C44.7242 53.5226 44.7519 53.4648 44.7801 53.4059C45.1171 52.702 45.5222 51.8559 45.9732 51.1534C46.404 50.4823 47.2043 49.3947 48.5149 49.067C58.891 46.473 66 38.3818 66 27.5073C66 15.3571 56.1503 5.50732 44 5.50732ZM43.5018 55.6547C43.5018 55.6538 43.5094 55.6464 43.5247 55.6353C43.5095 55.6501 43.5018 55.6556 43.5018 55.6547ZM44.4753 55.6354C44.4906 55.6464 44.4982 55.6537 44.4982 55.6547C44.4982 55.6556 44.4905 55.6501 44.4753 55.6354ZM49 51.0073C60.1658 48.2159 68 39.3993 68 27.5073C68 14.2525 57.2548 3.50732 44 3.50732C30.7452 3.50732 20 14.2525 20 27.5073C20 39.3993 27.8342 48.2159 39 51.0073C39.9681 51.2493 40.7019 52.78 41.4282 54.2951C42.2024 55.9101 42.9681 57.5073 44 57.5073C45.0319 57.5073 45.7976 55.9101 46.5718 54.2951C47.2981 52.78 48.0319 51.2493 49 51.0073Z" fill="#BC9920"/>
<path fill-rule="evenodd" clip-rule="evenodd" d="M41.1457 20.3989C42.2831 19.4912 43.9023 19.0073 45.8736 19.0073C46.8555 19.0073 47.8294 19.1256 48.5786 19.3162C49.391 19.5228 49.796 20.2894 49.796 21.0117C49.796 21.5776 49.4881 22.0418 49.0965 22.3339C48.707 22.6245 48.189 22.7821 47.6788 22.7057C47.2622 22.6433 46.8045 22.6079 46.3393 22.6079C45.3438 22.6079 44.652 22.8311 44.2201 23.1666C43.8053 23.4889 43.5794 23.9531 43.5794 24.5762C43.5794 25.0201 43.6779 25.3284 43.7636 25.5176C43.7753 25.5435 43.787 25.5674 43.7983 25.5895H46.9982C47.9275 25.5895 48.6661 26.3536 48.6661 27.2778C48.6661 28.202 47.9275 28.966 46.9982 28.966H44.5492C44.5594 29.0938 44.565 29.224 44.565 29.3586C44.565 30.3963 44.4092 31.5048 43.8609 32.3517H48.6949C49.7 32.3517 50.5 33.1782 50.5 34.1795C50.5 35.1808 49.7 36.0073 48.6949 36.0073H39.3413C38.3163 36.0073 37.5 35.1643 37.5 34.1426C37.5 33.2335 38.1468 32.5559 38.8145 32.211C39.8179 31.6927 40.4675 30.6978 40.4675 29.4908C40.4675 29.319 40.455 29.1444 40.4328 28.966H39.1679C38.2386 28.966 37.5 28.202 37.5 27.2778C37.5 26.3536 38.2386 25.5895 39.1679 25.5895H39.8114C39.5 25.0073 39.3845 24.6822 39.3845 24.1795C39.3845 22.632 39.9961 21.3164 41.1457 20.3989Z" fill="#AB870C"/>
<circle cx="16" cy="16.5073" r="16" fill="white"/>
<circle cx="16" cy="16.5073" r="14" fill="#0D2D80"/>
<path d="M15.7881 21.5073H17.8525V11.6431H15.7949L13.2451 13.4136V15.2729L15.665 13.5913H15.7881V21.5073Z" fill="white"/>
</svg>
