<svg width="136" height="74" viewBox="0 0 136 74" fill="none" xmlns="http://www.w3.org/2000/svg">
<path d="M77 71.5073C79.7614 71.5073 82 69.2687 82 66.5073C82 63.7459 79.7614 61.5073 77 61.5073C74.2386 61.5073 72 63.7459 72 66.5073C72 69.2687 74.2386 71.5073 77 71.5073Z" fill="#BC9920" stroke="white" stroke-width="4"/>
<path d="M20 29.5073C20 16.2525 30.7452 5.50732 44 5.50732L111.003 5.50732C124.258 5.50732 135.003 16.2525 135.003 29.5073C135.003 42.7622 124.255 53.5073 111 53.5073C105.826 53.5073 82.6796 53.5073 82 53.5073C80 53.5073 79 59.5073 77 59.5073C75 59.5073 74 53.5073 72 53.5073C71.3204 53.5073 49.1775 53.5073 44.0031 53.5073C30.7482 53.5073 20 42.7622 20 29.5073Z" fill="#FFC911"/>
<path fill-rule="evenodd" clip-rule="evenodd" d="M111.003 7.50732H44C31.8497 7.50732 22 17.3571 22 29.5073C22 41.6573 31.8525 51.5073 44.0031 51.5073H72C73.5493 51.5073 74.5114 52.6457 74.9651 53.2738C75.4679 53.97 75.9046 54.8439 76.2514 55.538L76.2889 55.6129C76.5624 56.16 76.7898 56.6089 77 56.9673C77.2102 56.6089 77.4376 56.16 77.7112 55.6129L77.7486 55.538C78.0954 54.8439 78.5321 53.97 79.0349 53.2738C79.4886 52.6457 80.4507 51.5073 82 51.5073H111C123.151 51.5073 133.003 41.6573 133.003 29.5073C133.003 17.3571 123.153 7.50732 111.003 7.50732ZM76.5069 57.6517C76.5069 57.6508 76.5144 57.6436 76.5294 57.633C76.5144 57.6472 76.5069 57.6526 76.5069 57.6517ZM77.4707 57.633C77.4857 57.6436 77.4931 57.6508 77.4931 57.6517C77.4931 57.6526 77.4856 57.6473 77.4707 57.633ZM44 5.50732C30.7452 5.50732 20 16.2525 20 29.5073C20 42.7622 30.7482 53.5073 44.0031 53.5073H72C73 53.5073 73.75 55.0073 74.5 56.5073C75.25 58.0073 76 59.5073 77 59.5073C78 59.5073 78.75 58.0073 79.5 56.5073C80.25 55.0073 81 53.5073 82 53.5073H111C124.255 53.5073 135.003 42.7622 135.003 29.5073C135.003 16.2525 124.258 5.50732 111.003 5.50732H44Z" fill="#BC9920"/>
<path d="M39.2451 30.8198V31.6636H40.8681C40.9326 31.9214 40.9795 32.1851 40.9795 32.4487C40.9795 33.3862 40.2646 34.2124 39.2627 34.4292V35.478H45.5673V34.3882H41.1142V34.312C41.747 33.9663 42.2451 33.2925 42.2451 32.396C42.2451 32.144 42.2099 31.9038 42.1513 31.6636H44.6064V30.8198H41.8877C41.7295 30.3511 41.5713 29.8765 41.5713 29.396C41.5713 28.5054 42.2744 27.9663 43.4931 27.9663C44.1611 27.9663 44.8525 28.1069 45.1572 28.2769V27.187C44.788 27.0054 44.0966 26.8765 43.3642 26.8765C41.4189 26.8765 40.2588 27.814 40.2588 29.3315C40.2588 29.8413 40.4228 30.3335 40.5927 30.8198H39.2451ZM50.7793 35.5073H53.4336V22.8247H50.788L47.5097 25.1011V27.4917L50.6211 25.3296H50.7793V35.5073ZM56.6957 38.9175L58.2953 33.4771H55.7904L54.9818 38.9175H56.6957ZM63.8778 35.8325C67.0155 35.8325 68.9139 33.354 68.9139 29.1528C68.9139 24.9429 66.9891 22.4995 63.8778 22.4995C60.7577 22.4995 58.8416 24.9429 58.8416 29.144C58.8416 33.354 60.7401 35.8325 63.8778 35.8325ZM63.8778 33.7319C62.4276 33.7319 61.5311 32.1851 61.5311 29.144C61.5311 26.1294 62.4364 24.6001 63.8778 24.6001C65.328 24.6001 66.2245 26.1206 66.2245 29.144C66.2245 32.1851 65.3368 33.7319 63.8778 33.7319ZM75.8059 35.5073H78.3372V33.1782H79.9983V31.0513H78.3372V22.8247H74.6194C72.9231 25.4263 71.2005 28.2388 69.6009 31.0952V33.1782H75.8059V35.5073ZM71.9827 30.981C73.1341 28.9331 74.4876 26.7271 75.7268 24.8374H75.8675V31.1216H71.9827V30.981ZM85.6599 35.8325C88.5163 35.8325 90.4236 34.0044 90.4236 31.3149C90.4236 28.7573 88.6745 27.1489 86.4861 27.1489C85.1677 27.1489 84.2361 27.6147 83.7087 28.4058H83.5505L83.8757 24.9341H89.738V22.8247H81.8191L81.1423 30.2603H83.5154C83.9109 29.5044 84.6843 29.021 85.6862 29.021C86.9782 29.021 87.8923 29.9526 87.8923 31.3501C87.8923 32.7827 86.9695 33.7231 85.6335 33.7231C84.4558 33.7231 83.5505 33.02 83.4099 31.9126H80.9577C81.0368 34.1802 82.9089 35.8325 85.6599 35.8325ZM92.4904 35.7271C93.4396 35.7271 94.0461 35.0942 94.0461 34.2329C94.0461 33.3716 93.4396 32.7476 92.4904 32.7476C91.55 32.7476 90.9347 33.3716 90.9347 34.2329C90.9347 35.0942 91.55 35.7271 92.4904 35.7271ZM99.4967 35.8325C102.634 35.8325 104.533 33.354 104.533 29.1528C104.533 24.9429 102.608 22.4995 99.4967 22.4995C96.3766 22.4995 94.4605 24.9429 94.4605 29.144C94.4605 33.354 96.359 35.8325 99.4967 35.8325ZM99.4967 33.7319C98.0465 33.7319 97.15 32.1851 97.15 29.144C97.15 26.1294 98.0553 24.6001 99.4967 24.6001C100.947 24.6001 101.843 26.1206 101.843 29.144C101.843 32.1851 100.956 33.7319 99.4967 33.7319ZM110.379 35.8325C113.517 35.8325 115.415 33.354 115.415 29.1528C115.415 24.9429 113.49 22.4995 110.379 22.4995C107.259 22.4995 105.343 24.9429 105.343 29.144C105.343 33.354 107.241 35.8325 110.379 35.8325ZM110.379 33.7319C108.929 33.7319 108.032 32.1851 108.032 29.144C108.032 26.1294 108.938 24.6001 110.379 24.6001C111.829 24.6001 112.726 26.1206 112.726 29.144C112.726 32.1851 111.838 33.7319 110.379 33.7319Z" fill="#0D2D80"/>
<circle cx="16" cy="42.5073" r="16" fill="white"/>
<circle cx="16" cy="42.5073" r="14" fill="#EA1018"/>
<rect x="11.334" y="40.8408" width="3.33333" height="3.33333" rx="1" fill="white"/>
<rect x="14.666" y="37.5073" width="3.33333" height="3.33333" rx="1" fill="white"/>
<rect x="18" y="40.8408" width="3.33333" height="3.33333" rx="1" fill="white"/>
<rect x="21.334" y="37.5073" width="3.33333" height="3.33333" rx="1" fill="white"/>
<rect x="14.666" y="44.1738" width="3.33333" height="3.33333" rx="1" fill="white"/>
<rect x="8" y="37.5073" width="3.33333" height="3.33333" rx="1" fill="white"/>
<rect x="8" y="44.1738" width="3.33333" height="3.33333" rx="1" fill="white"/>
<rect x="21.334" y="44.1738" width="3.33333" height="3.33333" rx="1" fill="white"/>
<circle cx="16" cy="16.5073" r="16" fill="white"/>
<circle cx="16" cy="16.5073" r="14" fill="#00A980"/>
<path fill-rule="evenodd" clip-rule="evenodd" d="M14.4893 20.8749C14.0156 21.1408 13.4048 21.0723 13.0018 20.6693L10.3642 18.0316C9.87861 17.546 9.87861 16.7587 10.3642 16.2732C10.8498 15.7876 11.637 15.7876 12.1226 16.2732L13.8833 18.0338L20.0456 11.8715C20.5312 11.3859 21.3185 11.3859 21.804 11.8715C22.2896 12.3571 22.2896 13.1444 21.804 13.6299L14.7703 20.6637C14.6849 20.7491 14.5901 20.8195 14.4893 20.8749Z" fill="white"/>
</svg>
