<svg width="48" height="65" viewBox="0 0 48 65" fill="none" xmlns="http://www.w3.org/2000/svg">
<path fill-rule="evenodd" clip-rule="evenodd" d="M24 65C27.3137 65 30 62.3137 30 59C30 55.6863 27.3137 53 24 53C20.6863 53 18 55.6863 18 59C18 62.3137 20.6863 65 24 65Z" fill="white"/>
<path fill-rule="evenodd" clip-rule="evenodd" d="M24 62C25.6569 62 27 60.6569 27 59C27 57.3431 25.6569 56 24 56C22.3431 56 21 57.3431 21 59C21 60.6569 22.3431 62 24 62Z" fill="#008B69"/>
<path d="M48 24C48 35.892 40.1658 44.7085 29 47.5C27 48 26 54 24 54C22 54 21 48 19 47.5C7.83416 44.7085 0 35.892 0 24C0 10.7452 10.7452 0 24 0C37.2548 0 48 10.7452 48 24Z" fill="#00A980"/>
<path fill-rule="evenodd" clip-rule="evenodd" d="M24 2C11.8497 2 2 11.8497 2 24C2 34.8745 9.10899 42.9657 19.4851 45.5597C20.7957 45.8874 21.596 46.975 22.0268 47.6461C22.4778 48.3486 22.8829 49.1947 23.2199 49.8986C23.2481 49.9574 23.2758 50.0153 23.303 50.072C23.5684 50.6248 23.793 51.0798 24 51.4417C24.207 51.0798 24.4316 50.6248 24.697 50.072C24.7242 50.0153 24.7519 49.9574 24.7801 49.8986C25.1171 49.1947 25.5222 48.3486 25.9732 47.6461C26.404 46.975 27.2043 45.8874 28.5149 45.5597C38.891 42.9657 46 34.8745 46 24C46 11.8497 36.1503 2 24 2ZM23.5018 52.1474C23.5018 52.1464 23.5094 52.139 23.5247 52.128C23.5095 52.1428 23.5018 52.1483 23.5018 52.1474ZM24.4753 52.128C24.4906 52.139 24.4982 52.1464 24.4982 52.1474C24.4982 52.1483 24.4905 52.1428 24.4753 52.128ZM29 47.5C40.1658 44.7085 48 35.892 48 24C48 10.7452 37.2548 0 24 0C10.7452 0 0 10.7452 0 24C0 35.892 7.83416 44.7085 19 47.5C19.9681 47.742 20.7019 49.2727 21.4282 50.7878C22.2024 52.4028 22.9681 54 24 54C25.0319 54 25.7976 52.4028 26.5718 50.7878C27.2981 49.2727 28.0319 47.742 29 47.5Z" fill="#008B69"/>
<rect x="17.2852" y="22.2856" width="4.28571" height="4.28571" rx="1" fill="white"/>
<rect x="21.5713" y="18" width="4.28571" height="4.28571" rx="1" fill="white"/>
<rect x="26" y="22" width="4.28571" height="4.28571" rx="1" fill="white"/>
<rect x="30.1426" y="18" width="4.28571" height="4.28571" rx="1" fill="white"/>
<rect x="21.5713" y="26.5713" width="4.28571" height="4.28571" rx="1" fill="white"/>
<rect x="13" y="18" width="4.28571" height="4.28571" rx="1" fill="white"/>
<rect x="13" y="26.5713" width="4.28571" height="4.28571" rx="1" fill="white"/>
<rect x="30.1426" y="26.5713" width="4.28571" height="4.28571" rx="1" fill="white"/>
</svg>
