<svg width="136" height="69" viewBox="0 0 136 69" fill="none" xmlns="http://www.w3.org/2000/svg">
<path d="M77 66.5073C79.7614 66.5073 82 64.2687 82 61.5073C82 58.7459 79.7614 56.5073 77 56.5073C74.2386 56.5073 72 58.7459 72 61.5073C72 64.2687 74.2386 66.5073 77 66.5073Z" fill="#BC9920" stroke="white" stroke-width="4"/>
<path d="M20 24.5073C20 11.2525 30.7452 0.507324 44 0.507324L111.003 0.507324C124.258 0.507324 135.003 11.2525 135.003 24.5073C135.003 37.7622 124.255 48.5073 111 48.5073C105.826 48.5073 82.6796 48.5073 82 48.5073C80 48.5073 79 54.5073 77 54.5073C75 54.5073 74 48.5073 72 48.5073C71.3204 48.5073 49.1775 48.5073 44.0031 48.5073C30.7482 48.5073 20 37.7622 20 24.5073Z" fill="#FFC911"/>
<path fill-rule="evenodd" clip-rule="evenodd" d="M111.003 2.50732H44C31.8497 2.50732 22 12.3571 22 24.5073C22 36.6573 31.8525 46.5073 44.0031 46.5073H72C73.5493 46.5073 74.5114 47.6457 74.9651 48.2738C75.4679 48.97 75.9046 49.8439 76.2514 50.538L76.2889 50.6129C76.5624 51.16 76.7898 51.6089 77 51.9673C77.2102 51.6089 77.4376 51.16 77.7112 50.6129L77.7486 50.538C78.0954 49.8439 78.5321 48.97 79.0349 48.2738C79.4886 47.6457 80.4507 46.5073 82 46.5073H111C123.151 46.5073 133.003 36.6573 133.003 24.5073C133.003 12.3571 123.153 2.50732 111.003 2.50732ZM76.5069 52.6517C76.5069 52.6508 76.5144 52.6436 76.5294 52.633C76.5144 52.6472 76.5069 52.6526 76.5069 52.6517ZM77.4707 52.633C77.4857 52.6436 77.4931 52.6508 77.4931 52.6517C77.4931 52.6526 77.4856 52.6473 77.4707 52.633ZM44 0.507324C30.7452 0.507324 20 11.2525 20 24.5073C20 37.7622 30.7482 48.5073 44.0031 48.5073H72C73 48.5073 73.75 50.0073 74.5 51.5073C75.25 53.0073 76 54.5073 77 54.5073C78 54.5073 78.75 53.0073 79.5 51.5073C80.25 50.0073 81 48.5073 82 48.5073H111C124.255 48.5073 135.003 37.7622 135.003 24.5073C135.003 11.2525 124.258 0.507324 111.003 0.507324H44Z" fill="#BC9920"/>
<path d="M38.0849 25.8198V26.6636H39.708C39.7724 26.9214 39.8193 27.1851 39.8193 27.4487C39.8193 28.3862 39.1045 29.2124 38.1025 29.4292V30.478H44.4072V29.3882H39.9541V29.312C40.5869 28.9663 41.0849 28.2925 41.0849 27.396C41.0849 27.144 41.0498 26.9038 40.9912 26.6636H43.4463V25.8198H40.7275C40.5693 25.3511 40.4111 24.8765 40.4111 24.396C40.4111 23.5054 41.1142 22.9663 42.333 22.9663C43.0009 22.9663 43.6923 23.1069 43.997 23.2769V22.187C43.6279 22.0054 42.9365 21.8765 42.2041 21.8765C40.2588 21.8765 39.0986 22.814 39.0986 24.3315C39.0986 24.8413 39.2627 25.3335 39.4326 25.8198H38.0849ZM46.4023 21.6743H48.8632C48.8632 20.4351 49.6718 19.5649 50.9638 19.5649C52.2031 19.5649 52.9238 20.3911 52.9238 21.4282C52.9238 22.3071 52.581 22.8872 50.999 24.4253L46.5517 28.7231V30.5073H55.7011V28.3716H50.1289V28.2134L52.7656 25.6997C54.875 23.6958 55.5254 22.6763 55.5254 21.1909C55.5254 19.0552 53.8027 17.4995 51.1132 17.4995C48.3359 17.4995 46.4023 19.2046 46.4023 21.6743ZM58.225 33.9175L59.8246 28.4771H57.3197L56.5111 33.9175H58.225ZM65.4071 30.8325C68.5448 30.8325 70.4432 28.354 70.4432 24.1528C70.4432 19.9429 68.5184 17.4995 65.4071 17.4995C62.287 17.4995 60.3709 19.9429 60.3709 24.144C60.3709 28.354 62.2694 30.8325 65.4071 30.8325ZM65.4071 28.7319C63.9569 28.7319 63.0604 27.1851 63.0604 24.144C63.0604 21.1294 63.9657 19.6001 65.4071 19.6001C66.8573 19.6001 67.7537 21.1206 67.7537 24.144C67.7537 27.1851 66.8661 28.7319 65.4071 28.7319ZM76.2366 30.8325C79.093 30.8325 81.0003 29.0044 81.0003 26.3149C81.0003 23.7573 79.2513 22.1489 77.0628 22.1489C75.7444 22.1489 74.8128 22.6147 74.2854 23.4058H74.1272L74.4524 19.9341H80.3147V17.8247H72.3958L71.719 25.2603H74.0921C74.4876 24.5044 75.261 24.021 76.263 24.021C77.555 24.021 78.469 24.9526 78.469 26.3501C78.469 27.7827 77.5462 28.7231 76.2102 28.7231C75.0325 28.7231 74.1272 28.02 73.9866 26.9126H71.5345C71.6136 29.1802 73.4856 30.8325 76.2366 30.8325ZM86.5652 30.8237C89.8698 30.8237 91.8562 28.2837 91.8562 24.0562C91.8562 19.9165 89.8259 17.4995 86.6091 17.4995C83.7702 17.4995 81.7575 19.3628 81.7575 21.9907C81.7575 24.4165 83.5241 26.1831 85.9323 26.1831C87.4089 26.1831 88.5866 25.5151 89.1667 24.3198H89.3249C89.3337 27.0796 88.323 28.7144 86.6003 28.7144C85.5984 28.7144 84.781 28.1694 84.5525 27.3081H81.9245C82.2761 29.4087 84.157 30.8237 86.5652 30.8237ZM86.6267 24.2144C85.2732 24.2144 84.3327 23.2651 84.3327 21.9116C84.3327 20.6108 85.3083 19.6001 86.6355 19.6001C87.9626 19.6001 88.9294 20.6284 88.9294 21.9556C88.9294 23.2563 87.9802 24.2144 86.6267 24.2144ZM93.7209 30.7271C94.6701 30.7271 95.2765 30.0942 95.2765 29.2329C95.2765 28.3716 94.6701 27.7476 93.7209 27.7476C92.7804 27.7476 92.1652 28.3716 92.1652 29.2329C92.1652 30.0942 92.7804 30.7271 93.7209 30.7271ZM96.3678 21.6743H98.8287C98.8287 20.4351 99.6373 19.5649 100.929 19.5649C102.169 19.5649 102.889 20.3911 102.889 21.4282C102.889 22.3071 102.546 22.8872 100.964 24.4253L96.5172 28.7231V30.5073H105.667V28.3716H100.094V28.2134L102.731 25.6997C104.84 23.6958 105.491 22.6763 105.491 21.1909C105.491 19.0552 103.768 17.4995 101.079 17.4995C98.3014 17.4995 96.3678 19.2046 96.3678 21.6743ZM111.539 30.8325C114.677 30.8325 116.575 28.354 116.575 24.1528C116.575 19.9429 114.65 17.4995 111.539 17.4995C108.419 17.4995 106.503 19.9429 106.503 24.144C106.503 28.354 108.401 30.8325 111.539 30.8325ZM111.539 28.7319C110.089 28.7319 109.192 27.1851 109.192 24.144C109.192 21.1294 110.098 19.6001 111.539 19.6001C112.989 19.6001 113.886 21.1206 113.886 24.144C113.886 27.1851 112.998 28.7319 111.539 28.7319Z" fill="#0D2D80"/>
<circle cx="16" cy="16.5073" r="15" fill="#0D2D80" stroke="white" stroke-width="2"/>
<circle cx="16" cy="16.5073" r="16" fill="white"/>
<circle cx="16" cy="16.5073" r="14" fill="#00A980"/>
<path fill-rule="evenodd" clip-rule="evenodd" d="M14.4893 20.8749C14.0156 21.1408 13.4048 21.0723 13.0018 20.6693L10.3642 18.0316C9.87861 17.546 9.87861 16.7587 10.3642 16.2732C10.8498 15.7876 11.637 15.7876 12.1226 16.2732L13.8833 18.0338L20.0456 11.8715C20.5312 11.3859 21.3185 11.3859 21.804 11.8715C22.2896 12.3571 22.2896 13.1444 21.804 13.6299L14.7703 20.6637C14.6849 20.7491 14.5901 20.8195 14.4893 20.8749Z" fill="white"/>
</svg>
