<svg width="156" height="69" viewBox="0 0 156 69" fill="none" xmlns="http://www.w3.org/2000/svg">
<path d="M77 66.5073C79.7614 66.5073 82 64.2687 82 61.5073C82 58.7459 79.7614 56.5073 77 56.5073C74.2386 56.5073 72 58.7459 72 61.5073C72 64.2687 74.2386 66.5073 77 66.5073Z" fill="#BC9920" stroke="white" stroke-width="4"/>
<path d="M20 24.5073C20 11.2525 30.7452 0.507324 44 0.507324L111.003 0.507324C124.258 0.507324 135.003 11.2525 135.003 24.5073C135.003 37.7622 124.255 48.5073 111 48.5073C105.826 48.5073 82.6796 48.5073 82 48.5073C80 48.5073 79 54.5073 77 54.5073C75 54.5073 74 48.5073 72 48.5073C71.3204 48.5073 49.1775 48.5073 44.0031 48.5073C30.7482 48.5073 20 37.7622 20 24.5073Z" fill="#FFC911"/>
<path fill-rule="evenodd" clip-rule="evenodd" d="M111.003 2.50732H44C31.8497 2.50732 22 12.3571 22 24.5073C22 36.6573 31.8525 46.5073 44.0031 46.5073H72C73.5493 46.5073 74.5114 47.6457 74.9651 48.2738C75.4679 48.97 75.9046 49.8439 76.2514 50.538L76.2889 50.6129C76.5624 51.16 76.7898 51.6089 77 51.9673C77.2102 51.6089 77.4376 51.16 77.7112 50.6129L77.7486 50.538C78.0954 49.8439 78.5321 48.97 79.0349 48.2738C79.4886 47.6457 80.4507 46.5073 82 46.5073H111C123.151 46.5073 133.003 36.6573 133.003 24.5073C133.003 12.3571 123.153 2.50732 111.003 2.50732ZM76.5069 52.6517C76.5069 52.6508 76.5144 52.6436 76.5294 52.633C76.5144 52.6472 76.5069 52.6526 76.5069 52.6517ZM77.4707 52.633C77.4857 52.6436 77.4931 52.6508 77.4931 52.6517C77.4931 52.6526 77.4856 52.6473 77.4707 52.633ZM44 0.507324C30.7452 0.507324 20 11.2525 20 24.5073C20 37.7622 30.7482 48.5073 44.0031 48.5073H72C73 48.5073 73.75 50.0073 74.5 51.5073C75.25 53.0073 76 54.5073 77 54.5073C78 54.5073 78.75 53.0073 79.5 51.5073C80.25 50.0073 81 48.5073 82 48.5073H111C124.255 48.5073 135.003 37.7622 135.003 24.5073C135.003 11.2525 124.258 0.507324 111.003 0.507324H44Z" fill="#BC9920"/>
<path d="M39.2451 25.8198V26.6636H40.8682C40.9326 26.9214 40.9795 27.1851 40.9795 27.4487C40.9795 28.3862 40.2646 29.2124 39.2627 29.4292V30.478H45.5674V29.3882H41.1143V29.312C41.7471 28.9663 42.2451 28.2925 42.2451 27.396C42.2451 27.144 42.21 26.9038 42.1514 26.6636H44.6064V25.8198H41.8877C41.7295 25.3511 41.5713 24.8765 41.5713 24.396C41.5713 23.5054 42.2744 22.9663 43.4932 22.9663C44.1611 22.9663 44.8525 23.1069 45.1572 23.2769V22.187C44.7881 22.0054 44.0967 21.8765 43.3643 21.8765C41.4189 21.8765 40.2588 22.814 40.2588 24.3315C40.2588 24.8413 40.4229 25.3335 40.5928 25.8198H39.2451Z" fill="#0D2D80"/>
<path d="M50.7793 30.5073H53.4336V17.8247H50.7881L47.5098 20.1011V22.4917L50.6211 20.3296H50.7793V30.5073Z" fill="#0D2D80"/>
<path d="M56.6957 33.9175L58.2953 28.4771H55.7905L54.9819 33.9175H56.6957Z" fill="#0D2D80"/>
<path d="M63.8778 30.8325C67.0155 30.8325 68.9139 28.354 68.9139 24.1528C68.9139 19.9429 66.9891 17.4995 63.8778 17.4995C60.7577 17.4995 58.8417 19.9429 58.8417 24.144C58.8417 28.354 60.7401 30.8325 63.8778 30.8325ZM63.8778 28.7319C62.4276 28.7319 61.5311 27.1851 61.5311 24.144C61.5311 21.1294 62.4364 19.6001 63.8778 19.6001C65.328 19.6001 66.2245 21.1206 66.2245 24.144C66.2245 27.1851 65.3368 28.7319 63.8778 28.7319Z" fill="#0D2D80"/>
<path d="M75.806 30.5073H78.3372V28.1782H79.9984V26.0513H78.3372V17.8247H74.6195C72.9232 20.4263 71.2005 23.2388 69.6009 26.0952V28.1782H75.806V30.5073ZM71.9827 25.981C73.1341 23.9331 74.4876 21.7271 75.7269 19.8374H75.8675V26.1216H71.9827V25.981Z" fill="#0D2D80"/>
<path d="M85.6599 30.8325C88.5164 30.8325 90.4236 29.0044 90.4236 26.3149C90.4236 23.7573 88.6746 22.1489 86.4861 22.1489C85.1677 22.1489 84.2361 22.6147 83.7087 23.4058H83.5505L83.8757 19.9341H89.738V17.8247H81.8191L81.1423 25.2603H83.5154C83.9109 24.5044 84.6843 24.021 85.6863 24.021C86.9783 24.021 87.8923 24.9526 87.8923 26.3501C87.8923 27.7827 86.9695 28.7231 85.6336 28.7231C84.4558 28.7231 83.5505 28.02 83.4099 26.9126H80.9578C81.0369 29.1802 82.9089 30.8325 85.6599 30.8325Z" fill="#0D2D80"/>
<path d="M92.4904 30.7271C93.4396 30.7271 94.0461 30.0942 94.0461 29.2329C94.0461 28.3716 93.4396 27.7476 92.4904 27.7476C91.55 27.7476 90.9348 28.3716 90.9348 29.2329C90.9348 30.0942 91.55 30.7271 92.4904 30.7271Z" fill="#0D2D80"/>
<path d="M99.4967 30.8325C102.634 30.8325 104.533 28.354 104.533 24.1528C104.533 19.9429 102.608 17.4995 99.4967 17.4995C96.3766 17.4995 94.4606 19.9429 94.4606 24.144C94.4606 28.354 96.359 30.8325 99.4967 30.8325ZM99.4967 28.7319C98.0465 28.7319 97.15 27.1851 97.15 24.144C97.15 21.1294 98.0553 19.6001 99.4967 19.6001C100.947 19.6001 101.843 21.1206 101.843 24.144C101.843 27.1851 100.956 28.7319 99.4967 28.7319Z" fill="#0D2D80"/>
<path d="M110.379 30.8325C113.517 30.8325 115.415 28.354 115.415 24.1528C115.415 19.9429 113.49 17.4995 110.379 17.4995C107.259 17.4995 105.343 19.9429 105.343 24.144C105.343 28.354 107.241 30.8325 110.379 30.8325ZM110.379 28.7319C108.929 28.7319 108.032 27.1851 108.032 24.144C108.032 21.1294 108.938 19.6001 110.379 19.6001C111.829 19.6001 112.726 21.1206 112.726 24.144C112.726 27.1851 111.838 28.7319 110.379 28.7319Z" fill="#0D2D80"/>
<circle cx="16" cy="16.5073" r="15" fill="#0D2D80" stroke="white" stroke-width="2"/>
<circle cx="140" cy="24.5073" r="15" fill="#007AFF" stroke="white" stroke-width="2"/>
<path fill-rule="evenodd" clip-rule="evenodd" d="M137.804 19.4896C138.679 18.8489 139.925 18.5073 141.441 18.5073C142.197 18.5073 142.946 18.5908 143.522 18.7253C144.147 18.8712 144.458 19.4123 144.458 19.9222C144.458 20.3217 144.222 20.6493 143.92 20.8555C143.621 21.0606 143.222 21.1719 142.83 21.1179C142.509 21.0739 142.157 21.0489 141.799 21.0489C141.034 21.0489 140.502 21.2065 140.169 21.4433C139.85 21.6708 139.676 21.9985 139.676 22.4383C139.676 22.7517 139.752 22.9693 139.818 23.1028C139.827 23.1211 139.836 23.138 139.845 23.1536H142.306C143.021 23.1536 143.589 23.6929 143.589 24.3453C143.589 24.9977 143.021 25.537 142.306 25.537H140.422C140.43 25.6272 140.435 25.7191 140.435 25.8141C140.435 26.5466 140.315 27.3291 139.893 27.9269H143.611C144.385 27.9269 145 28.5103 145 29.2171C145 29.9239 144.385 30.5073 143.611 30.5073H136.416C135.628 30.5073 135 29.9122 135 29.1911C135 28.5493 135.498 28.0711 136.011 27.8276C136.783 27.4617 137.283 26.7594 137.283 25.9074C137.283 25.7861 137.273 25.6629 137.256 25.537H136.283C135.568 25.537 135 24.9977 135 24.3453C135 23.6929 135.568 23.1536 136.283 23.1536H136.778C136.538 22.7426 136.45 22.5131 136.45 22.1583C136.45 21.0659 136.92 20.1372 137.804 19.4896Z" fill="white"/>
</svg>
