<svg width="60" height="60" viewBox="0 0 60 60" fill="none" xmlns="http://www.w3.org/2000/svg">
<path d="M18 40C18 26.75 28.75 16 42 16C48.77 16 54.88 18.81 59.24 23.32C56.2 9.97 44.27 0 30 0C13.43 0 0 13.43 0 30C0 46.13 12.73 59.28 28.68 59.97C22.24 55.66 18 48.33 18 40Z" fill="#E1E6EF"/>
<path d="M60 30C60 27.7 59.73 25.47 59.24 23.32C54.88 18.81 48.77 16 42 16C28.75 16 18 26.75 18 40C18 48.33 22.24 55.66 28.68 59.97C29.12 59.99 29.56 60 30 60C46.57 60 60 46.57 60 30Z" fill="#0D2D80"/>
<path d="M39.7131 49.7553C39.5152 49.8255 39.3039 49.8581 39.0726 49.834C27.1625 48.7436 25.524 39.0113 25.5094 38.9104C25.38 38.0968 25.9473 37.3332 26.7608 37.2037C27.5743 37.0743 28.3441 37.6288 28.4769 38.4518C28.5334 38.7606 29.8327 45.9818 39.3506 46.8493C40.1745 46.9284 40.7831 47.6568 40.704 48.4807C40.6523 49.0826 40.2409 49.5681 39.7131 49.7553Z" fill="white"/>
<path d="M35.6245 32.3632C35.3511 32.4601 35.0511 32.4817 34.7586 32.4051L28.3475 30.9048C27.5434 30.702 27.0628 29.8857 27.2656 29.0816C27.4684 28.2775 28.2847 27.7969 29.0888 27.9997L35.4999 29.5C36.304 29.7028 36.7846 30.5191 36.5818 31.3232C36.4429 31.8288 36.0768 32.2027 35.6245 32.3632Z" fill="white"/>
<path d="M48.391 39.3381C47.4109 39.6858 46.3553 39.7314 45.3193 39.4729C42.4936 38.7459 40.7715 35.866 41.4951 33.0308C42.2188 30.1957 45.1021 28.483 47.9373 29.2067C49.3041 29.56 50.4593 30.4234 51.1846 31.6304C51.9038 32.8501 52.1114 34.2726 51.7581 35.6394C51.4047 37.0062 50.5507 38.158 49.3344 38.8867C49.0373 39.0664 48.7209 39.2211 48.391 39.3381ZM45.872 32.1783C45.1746 32.4257 44.607 33.0091 44.413 33.7782C44.1044 35.0018 44.8464 36.2559 46.07 36.5645C46.6643 36.7144 47.2827 36.633 47.8047 36.3098C48.33 35.9961 48.7064 35.5018 48.8563 34.9075C49.0062 34.3132 48.9154 33.6982 48.6111 33.1695C48.2974 32.6441 47.8031 32.2677 47.2087 32.1178C46.7415 31.9971 46.2867 32.0312 45.872 32.1783Z" fill="white"/>
</svg>
