<svg width="60" height="60" viewBox="0 0 60 60" fill="none" xmlns="http://www.w3.org/2000/svg">
<path d="M19 19.9998C19 11.6498 23.26 4.30977 29.72 0.00976562C13.28 0.159766 0 13.5198 0 29.9998C0 46.5698 13.43 59.9998 30 59.9998C43.82 59.9998 55.44 50.6598 58.93 37.9498C54.69 41.7098 49.11 43.9998 43 43.9998C29.75 43.9998 19 33.2498 19 19.9998Z" fill="#E1E6EF"/>
<path d="M30 0C29.91 0 29.82 0.01 29.72 0.01C23.26 4.31 19 11.65 19 20C19 33.25 29.75 44 43 44C49.11 44 54.69 41.71 58.93 37.95C59.62 35.41 60 32.75 60 30C60 13.43 46.57 0 30 0Z" fill="#00A980"/>
<path d="M37.94 35.2999C32.1 35.2999 28.55 31.5699 27.42 29.3599C27.04 28.6199 27.33 27.7199 28.07 27.3399C28.81 26.9599 29.71 27.2499 30.09 27.9799C30.21 28.2099 32.95 33.1799 39.68 32.1599C40.5 32.0299 41.26 32.5999 41.39 33.4199C41.52 34.2399 40.95 34.9999 40.13 35.1299C39.36 35.2399 38.63 35.2999 37.94 35.2999Z" fill="white"/>
<path d="M48.48 27.1699C46.07 27.1699 42.69 25.7599 41.91 25.0599C40.05 23.3899 40.41 20.0899 40.64 17.8999C40.66 17.6799 40.69 17.4699 40.7 17.2899C40.62 17.4599 40.53 17.6399 40.44 17.8499C39.52 19.8399 38.12 22.8499 35.67 23.3299C34.4 23.5799 29.16 22.6999 27.81 20.7499C26.91 19.4499 26.97 17.3799 27.12 15.3699C27.13 15.1699 27.15 14.9999 27.15 14.8799C27.06 14.6999 26.81 14.3699 26.71 14.2399C26.56 14.0499 26.45 13.8899 26.4 13.7899V13.7799C25.86 12.8099 26.32 11.1599 27.28 10.6099C28.98 9.65993 36.46 12.2899 38.22 12.9999C38.55 13.1299 38.81 13.2599 39.08 13.3999C39.58 13.6499 40.11 13.9199 41.53 14.3199C42.96 14.7199 43.54 14.7599 44.1 14.7999C44.41 14.8199 44.7 14.8399 45.05 14.8999C45.15 14.9199 54.58 16.5999 55.66 18.4899C56 19.0899 55.91 19.7699 55.78 20.2399C55.65 20.7099 55.37 21.3299 54.77 21.6699C54.68 21.7199 54.5 21.7999 54.27 21.8899C54.12 21.9499 53.73 22.0999 53.57 22.2099C53.51 22.3099 53.44 22.4599 53.35 22.6499C52.44 24.4499 51.43 26.2499 49.99 26.9099C49.57 27.0899 49.05 27.1699 48.48 27.1699ZM43.68 17.7699C43.67 17.9099 43.65 18.0599 43.63 18.2199C43.5 19.3999 43.2 22.1799 43.92 22.8199C44.62 23.3499 47.95 24.4099 48.77 24.1499C49.02 24.0299 49.58 23.4399 50.67 21.2799C50.87 20.8899 51.02 20.5999 51.12 20.4599C51.33 20.1399 51.61 19.8999 51.92 19.6999C50.33 19.1299 47.63 18.3599 44.57 17.8599C44.32 17.8199 44.11 17.8099 43.89 17.7899C43.82 17.7799 43.75 17.7799 43.68 17.7699ZM29.86 13.5799C30.02 13.9099 30.13 14.2699 30.15 14.6499C30.16 14.8199 30.14 15.1499 30.11 15.5799C29.94 17.9899 30.1 18.7899 30.28 19.0399C30.84 19.6699 34.23 20.4699 35.14 20.3799C36.06 20.1999 37.23 17.6699 37.73 16.5899C37.8 16.4399 37.86 16.3099 37.92 16.1699C37.85 16.1399 37.79 16.0999 37.73 16.0699C37.53 15.9699 37.35 15.8699 37.11 15.7799C34.23 14.6399 31.52 13.9099 29.86 13.5799Z" fill="white"/>
</svg>
