<svg width="60" height="60" viewBox="0 0 60 60" fill="none" xmlns="http://www.w3.org/2000/svg">
<path d="M60 30C60 13.43 46.57 0 30 0C15.73 0 3.80001 9.97 0.76001 23.32C5.12001 18.81 11.23 16 18 16C31.25 16 42 26.75 42 40C42 48.33 37.76 55.66 31.32 59.97C47.27 59.28 60 46.13 60 30Z" fill="#E1E6EF"/>
<path d="M42 40C42 26.75 31.25 16 18 16C11.23 16 5.12 18.81 0.76 23.32C0.27 25.47 0 27.7 0 30C0 46.57 13.43 60 30 60C30.44 60 30.88 59.99 31.32 59.97C37.76 55.66 42 48.33 42 40Z" fill="#007AFF"/>
<path d="M31.1 34.4299C31.87 34.0499 32.82 34.4699 33.02 35.2999C34.02 39.3899 31.57 44.0699 26.98 46.3099C22.39 48.5599 17.2 47.6299 14.58 44.3299C14.05 43.6599 14.3 42.6499 15.07 42.2699L31.1 34.4299Z" fill="white"/>
<path d="M11.8 36.9998C11.25 36.9998 10.71 36.6898 10.45 36.1598C9.93002 35.0998 9.85002 33.8998 10.24 32.7798C10.62 31.6598 11.42 30.7598 12.48 30.2398C13.54 29.7198 14.74 29.6398 15.86 30.0298C16.98 30.4098 17.88 31.2098 18.4 32.2698C18.77 33.0098 18.46 33.9098 17.71 34.2798C16.96 34.6498 16.07 34.3398 15.7 33.5898C15.35 32.8798 14.5 32.5998 13.8 32.9398C13.46 33.1098 13.2 33.3998 13.08 33.7598C12.96 34.1198 12.98 34.4998 13.15 34.8498C13.52 35.5898 13.21 36.4898 12.46 36.8598C12.25 36.9498 12.02 36.9998 11.8 36.9998Z" fill="white"/>
<path d="M22.45 31.6599C21.9 31.6599 21.36 31.3499 21.1 30.8199C20.58 29.7599 20.5 28.5599 20.89 27.4399C21.28 26.3199 22.07 25.4199 23.13 24.8999C24.19 24.3799 25.39 24.3099 26.51 24.6899C27.63 25.0699 28.53 25.8699 29.05 26.9299C29.42 27.6699 29.11 28.5699 28.36 28.9399C27.62 29.3099 26.72 28.9999 26.35 28.2499C26.18 27.9099 25.89 27.6499 25.53 27.5299C25.17 27.4099 24.79 27.4299 24.44 27.5999C24.1 27.7699 23.84 28.0599 23.72 28.4199C23.6 28.7799 23.62 29.1699 23.79 29.5099C24.16 30.2499 23.85 31.1499 23.1 31.5199C22.9 31.6099 22.67 31.6599 22.45 31.6599Z" fill="white"/>
</svg>
