<svg width="60" height="60" viewBox="0 0 60 60" fill="none" xmlns="http://www.w3.org/2000/svg">
<path d="M19 30C19 16.75 29.75 6 43 6C45.05 6 47.05 6.26 48.95 6.74C43.78 2.53 37.19 0 30 0C13.43 0 0 13.43 0 30C0 46.57 13.43 60 30 60C37.19 60 43.78 57.47 48.95 53.26C47.05 53.74 45.05 54 43 54C29.75 54 19 43.25 19 30Z" fill="#E1E6EF"/>
<path d="M60 30C60 20.62 55.69 12.24 48.95 6.74C47.05 6.26 45.05 6 43 6C29.75 6 19 16.75 19 30C19 43.25 29.75 54 43 54C45.05 54 47.05 53.74 48.95 53.26C55.69 47.76 60 39.38 60 30Z" fill="#F06C00"/>
<path d="M50.7201 30.19C50.2801 30.19 49.8501 30 49.5601 29.64L47 26.51L43.53 28.58C42.82 29 41.9001 28.77 41.4701 28.06C41.0601 27.35 41.29 26.43 42 26L46.5801 23.27C47.2201 22.89 48.04 23.03 48.51 23.61L51.8801 27.74C52.4001 28.38 52.31 29.33 51.66 29.85C51.39 30.08 51.0501 30.19 50.7201 30.19Z" fill="white"/>
<path d="M37.07 27.7801C36.63 27.7801 36.2 27.5901 35.91 27.2301L33.36 24.1001L29.89 26.1701C29.18 26.5901 28.26 26.3601 27.83 25.6501C27.41 24.9401 27.64 24.0201 28.35 23.5901L32.93 20.8601C33.57 20.4801 34.39 20.6201 34.86 21.2001L38.23 25.3301C38.75 25.9701 38.66 26.9201 38.01 27.4401C37.74 27.6701 37.4 27.7801 37.07 27.7801Z" fill="white"/>
<path d="M39.63 42.11C38.82 42.11 37.96 42.04 37.05 41.88C29.86 40.61 27.61 35.29 27.42 32.66C27.36 31.83 27.98 31.12 28.81 31.06C29.62 30.99 30.35 31.62 30.41 32.44C30.43 32.68 30.96 37.76 37.57 38.92C44.31 40.11 46.73 35.33 46.75 35.28C47.11 34.53 48.01 34.23 48.75 34.59C49.5 34.95 49.8 35.85 49.44 36.59C48.44 38.67 45.2 42.11 39.63 42.11Z" fill="white"/>
</svg>
