<svg width="60" height="60" viewBox="0 0 60 60" fill="none" xmlns="http://www.w3.org/2000/svg">
<path d="M31.32 0.0297852C37.76 4.33979 42 11.6698 42 19.9998C42 33.2498 31.25 43.9998 18 43.9998C11.23 43.9998 5.12001 41.1898 0.76001 36.6798C3.80001 50.0298 15.73 59.9998 30 59.9998C46.57 59.9998 60 46.5698 60 29.9998C60 13.8698 47.27 0.719785 31.32 0.0297852Z" fill="#E1E6EF"/>
<path d="M18 44C31.25 44 42 33.25 42 20C42 11.67 37.76 4.34 31.32 0.03C30.88 0.01 30.44 0 30 0C13.43 0 0 13.43 0 30C0 32.3 0.27 34.53 0.76 36.68C5.12 41.19 11.23 44 18 44Z" fill="#EA1018"/>
<path d="M32.42 24.4799C33.2 24.2799 34 24.8399 34.04 25.6499C34.19 29.6299 31.04 33.4999 26.37 34.7099C21.69 35.9299 17.06 34.0899 15.26 30.5299C14.89 29.8099 15.32 28.9199 16.1 28.7199L32.42 24.4799Z" fill="white"/>
<path d="M16.54 23.9302C16.35 23.9302 16.15 23.9102 15.97 23.8502L10.72 22.1502C8.65996 21.4802 7.49996 19.2802 8.13996 17.2402C8.45996 16.2002 9.17996 15.3602 10.17 14.8702C10.94 14.4902 11.82 14.3602 12.65 14.5002C13.04 13.7402 13.66 13.1202 14.43 12.7402C15.37 12.2702 16.47 12.1802 17.45 12.5002C18.46 12.8302 19.28 13.5302 19.75 14.4802C20.22 15.4302 20.28 16.5102 19.92 17.5102L18.11 22.7802C17.99 23.1802 17.69 23.5302 17.28 23.7402C17.06 23.8602 16.8 23.9302 16.54 23.9302ZM15.75 21.9602C15.74 21.9802 15.74 21.9902 15.73 22.0102L15.75 21.9602ZM11.94 16.9402C11.72 16.9502 11.49 17.0002 11.28 17.1002C10.91 17.2902 10.64 17.6002 10.52 17.9802C10.29 18.7202 10.72 19.5202 11.48 19.7702L16 21.2302L17.56 16.6802C17.69 16.3102 17.67 15.9202 17.5 15.5802C17.33 15.2402 17.04 14.9902 16.68 14.8702C16.32 14.7502 15.9 14.7902 15.55 14.9602C15.19 15.1402 14.92 15.4502 14.79 15.8202L14.19 17.5702L12.42 17.0002C12.26 16.9602 12.1 16.9402 11.94 16.9402Z" fill="white"/>
<path d="M27.73 21.0101C27.3 21.0201 26.86 20.8601 26.54 20.5701L22.43 16.8801C20.81 15.4301 20.65 12.9501 22.07 11.3501C22.78 10.5401 23.79 10.0601 24.89 10.0101C25.76 9.98011 26.6 10.2101 27.31 10.6801C27.98 10.1401 28.79 9.83011 29.65 9.79011C30.69 9.76011 31.74 10.1101 32.51 10.8001C33.3 11.5101 33.76 12.4801 33.8 13.5401C33.84 14.6001 33.46 15.6101 32.73 16.3801L28.94 20.4601C28.67 20.7701 28.25 20.9801 27.79 21.0001C27.77 21.0101 27.75 21.0101 27.73 21.0101ZM27.11 18.7501C27.1 18.7601 27.09 18.7701 27.08 18.7801L27.11 18.7501ZM25.04 12.5001C25.03 12.5001 25.02 12.5001 25.01 12.5001C24.6 12.5201 24.22 12.6901 23.96 13.0001C23.45 13.5801 23.51 14.4901 24.11 15.0201L27.64 18.1901L30.91 14.6701C31.18 14.3801 31.32 14.0201 31.31 13.6401C31.29 13.2601 31.13 12.9101 30.84 12.6601C30.56 12.4101 30.15 12.2701 29.76 12.2901C29.36 12.3101 28.99 12.4801 28.72 12.7701L27.46 14.1201L26.08 12.8801C25.8 12.6301 25.42 12.4901 25.04 12.5001Z" fill="white"/>
</svg>
