<svg width="48" height="48" viewBox="0 0 48 48" fill="none" xmlns="http://www.w3.org/2000/svg">
<circle cx="24" cy="24" r="24" fill="#030303"/>
<path fill-rule="evenodd" clip-rule="evenodd" d="M21.1972 20.8127V19.6425C20.7911 19.585 20.3816 19.5552 19.9714 19.5532C14.9557 19.5532 10.875 23.6346 10.875 28.6504C10.875 31.7272 12.4127 34.4508 14.7585 36.0978C13.1878 34.4181 12.3146 32.204 12.3158 29.9043C12.3158 24.96 16.2804 20.9281 21.1972 20.8127" fill="#00F2EA"/>
<path fill-rule="evenodd" clip-rule="evenodd" d="M21.4116 34.0584C23.6495 34.0584 25.4751 32.2781 25.5583 30.0595L25.5658 10.2539H29.1841C29.1068 9.84043 29.0678 9.42068 29.0673 9H24.1257L24.1174 28.8063C24.035 31.0242 22.2087 32.8037 19.9715 32.8037C19.2998 32.804 18.6383 32.6404 18.0442 32.3269C18.4278 32.8621 18.9333 33.2982 19.5188 33.5993C20.1044 33.9004 20.7532 34.0577 21.4116 34.0584V34.0584ZM35.943 16.9765V15.8757C34.6133 15.877 33.3121 15.4902 32.199 14.7627C33.1749 15.8863 34.4888 16.6631 35.9437 16.9765" fill="#00F2EA"/>
<path fill-rule="evenodd" clip-rule="evenodd" d="M32.199 14.762C31.1082 13.5139 30.5074 11.9123 30.5081 10.2546H29.1841C29.3555 11.1709 29.7111 12.0427 30.2293 12.8175C30.7476 13.5923 31.4176 14.2538 32.199 14.762V14.762ZM19.9713 24.4953C18.87 24.4966 17.8141 24.9347 17.0353 25.7135C16.2565 26.4923 15.8185 27.5481 15.8171 28.6495C15.8179 29.4071 16.0256 30.1502 16.418 30.7983C16.8104 31.4464 17.3724 31.9749 18.0433 32.3269C17.5325 31.6224 17.2574 30.7744 17.2573 29.9042C17.2584 28.8027 17.6964 27.7466 18.4752 26.9677C19.254 26.1888 20.31 25.7506 21.4115 25.7493C21.8396 25.7493 22.2498 25.8201 22.6373 25.9417V20.8963C22.2312 20.8388 21.8216 20.8089 21.4115 20.807C21.3393 20.807 21.2686 20.8111 21.1971 20.8125V24.6878C20.8007 24.5616 20.3873 24.4967 19.9713 24.4953" fill="#FF004F"/>
<path fill-rule="evenodd" clip-rule="evenodd" d="M35.9434 16.9764V20.8173C33.3805 20.8173 31.0066 19.9976 29.0676 18.6062V28.6495C29.0676 33.6653 24.9876 37.746 19.9718 37.746C18.0335 37.746 16.2361 37.1345 14.7588 36.097C15.6081 37.0128 16.6374 37.7435 17.7823 38.243C18.9272 38.7425 20.1629 39.0002 21.4119 38.9999C26.4277 38.9999 30.5084 34.9193 30.5084 29.9041V19.8608C32.5115 21.3012 34.917 22.0748 37.3842 22.0719V17.129C36.8895 17.129 36.4085 17.0753 35.9434 16.9757" fill="#FF004F"/>
<path fill-rule="evenodd" clip-rule="evenodd" d="M29.0673 28.6496V18.6063C31.0703 20.0468 33.4759 20.8204 35.9431 20.8174V16.9765C34.4884 16.6628 33.1747 15.8858 32.1991 14.762C31.4178 14.2538 30.7476 13.5923 30.2294 12.8175C29.7112 12.0427 29.3556 11.1709 29.1841 10.2546H25.5659L25.5583 30.0602C25.4752 32.2781 23.6496 34.0584 21.4117 34.0584C20.7533 34.0578 20.1044 33.9003 19.5189 33.5993C18.9334 33.2982 18.4279 32.8621 18.0443 32.3269C17.3732 31.9751 16.811 31.4466 16.4185 30.7985C16.026 30.1504 15.8181 29.4073 15.8174 28.6496C15.8186 27.5482 16.2567 26.4923 17.0355 25.7136C17.8143 24.9348 18.8702 24.4967 19.9716 24.4954C20.3989 24.4954 20.8091 24.5655 21.1973 24.6878V20.8126C16.2804 20.928 12.3159 24.9599 12.3159 29.9043C12.3159 32.2953 13.2449 34.4721 14.7585 36.0977C16.2845 37.1719 18.1054 37.7477 19.9716 37.7461C24.9874 37.7461 29.0673 33.6654 29.0673 28.6496" fill="white"/>
</svg>
