<svg width="48" height="48" viewBox="0 0 48 48" fill="none" xmlns="http://www.w3.org/2000/svg">
<circle cx="24" cy="24" r="24" fill="#21A9E4"/>
<path fill-rule="evenodd" clip-rule="evenodd" d="M39.4049 15.3598C38.3476 15.8393 37.2111 16.1633 36.0187 16.309C37.2359 15.563 38.1709 14.3816 38.611 12.9738C37.4717 13.6648 36.2099 14.1664 34.8668 14.4367C33.7914 13.265 32.2591 12.5331 30.5633 12.5331C27.3073 12.5331 24.6672 15.2321 24.6672 18.5613C24.6672 19.0338 24.7194 19.4939 24.82 19.9351C19.9198 19.6837 15.5755 17.2837 12.6675 13.6364C12.1599 14.5268 11.8691 15.5622 11.8691 16.6671C11.8691 18.7586 12.91 20.6037 14.492 21.6847C13.5256 21.6535 12.6164 21.3822 11.8215 20.9308C11.8209 20.9559 11.8209 20.9812 11.8209 21.0066C11.8209 23.9273 13.8532 26.3636 16.5505 26.9178C16.0557 27.0556 15.5349 27.1292 14.9972 27.1292C14.6172 27.1292 14.248 27.0913 13.8879 27.0211C14.6382 29.416 16.8156 31.1589 19.3957 31.2074C17.3778 32.8244 14.8357 33.7881 12.0732 33.7881C11.5973 33.7881 11.128 33.7595 10.6667 33.7038C13.276 35.4144 16.3752 36.4124 19.7048 36.4124C30.5495 36.4124 36.4801 27.2266 36.4801 19.2602C36.4801 18.9988 36.4743 18.7389 36.463 18.4802C37.6148 17.6304 38.6143 16.5688 39.4048 15.3598H39.4049Z" fill="white"/>
</svg>
