<svg width="36" height="36" viewBox="0 0 36 36" fill="none" xmlns="http://www.w3.org/2000/svg">
<path d="M17.1878 6.67684L18.0002 7.80913L18.8127 6.67684C20.4253 4.42946 23.0483 2.96484 26.0182 2.96484C30.9149 2.96484 34.8852 6.93506 34.8852 11.8328C34.8852 12.5207 34.7981 13.1915 34.6439 13.8454L34.6356 13.8805L34.6299 13.9162C33.99 17.898 31.4245 22.0957 28.1092 25.6383C24.9146 29.052 21.1389 31.7342 18.0002 32.9649C14.8611 31.7342 11.0854 29.052 7.89063 25.6382C4.5752 22.0954 2.00944 17.8975 1.36853 13.915L1.36302 13.8807L1.35515 13.8469C1.20237 13.1913 1.11523 12.5197 1.11523 11.8328C1.11523 6.93419 5.08545 2.96484 9.98323 2.96484C12.9521 2.96484 15.5751 4.42941 17.1878 6.67684Z" fill="#FFC911" stroke="#BC9920" stroke-width="2"/>
</svg>
