<svg width="1140" height="339" viewBox="0 0 1140 339" fill="none" xmlns="http://www.w3.org/2000/svg">
<rect width="1140" height="338.803" fill="#F1F3F8"/>
<path d="M361 150.963C332.2 134.605 267.896 203.269 293 221.713C318.104 240.157 412.829 271.159 418.499 266.554C424.169 261.95 389.8 167.321 361 150.963Z" fill="#00A980" fill-opacity="0.08"/>
<path d="M924.211 34.5778C912.959 42.8529 862.947 75.5398 872.116 82.5737C881.285 89.6076 912.959 117.743 924.211 118.571C935.463 119.398 989.641 44.0942 977.139 34.5778C964.637 25.0613 935.463 26.3026 924.211 34.5778Z" fill="#00A980" fill-opacity="0.08"/>
<path opacity="0.8" d="M690.5 304.919C705.833 292.463 743.2 268.647 770 273.032C796.8 277.416 799.833 254.929 798 243.137" stroke="#CCD3E7" stroke-width="3" stroke-linecap="round"/>
<path opacity="0.8" d="M788.5 271.039C805.667 293.127 863.5 335.311 957.5 327.34" stroke="#CCD3E7" stroke-width="3" stroke-linecap="round"/>
<path opacity="0.8" d="M1039.14 126.661C1037.85 121.811 1034.28 113.565 1019.67 113.564C1008.47 113.564 993.876 123.751 993.876 140.727C993.876 154.308 984.141 169.668 979.273 175.65" stroke="#CFD5E9" stroke-width="2.92051" stroke-linecap="round"/>
<path opacity="0.8" d="M597.661 163.039C592.145 164.979 580.333 170.994 577.218 179.53C574.102 188.067 560.344 194.728 553.854 196.992" stroke="#CCD3E7" stroke-width="2.92051" stroke-linecap="round"/>
<path opacity="0.8" d="M597.659 283.328C594.414 280.256 587.34 272.754 585.004 267.322M604.961 178.56C604.961 171.575 572.186 116.799 555.799 90.2831" stroke="#CCD3E7" stroke-width="2.92051" stroke-linecap="round"/>
<path d="M117.336 87.1283L120.892 96.7425L132.392 91.282L129.078 82.5635L117.336 87.1283Z" fill="white" fill-opacity="0.7"/>
<path d="M117.024 82.4111L102.507 89.1545L93.8587 66.0147L116.774 56.5567L121.14 67.3952L112.985 71.0055L117.024 82.4111Z" fill="white" fill-opacity="0.7"/>
<path d="M248.923 108.948L234.61 97.6296L220.564 116.442L234.228 127.097L248.923 108.948Z" fill="white" fill-opacity="0.7"/>
<path d="M175.236 233.815L167.435 227.166L160.071 237.55L167.223 243.537L175.236 233.815Z" fill="white" fill-opacity="0.7"/>
<path d="M177.814 237.778L187.184 224.8L206.038 240.761L190.668 260.212L181.562 252.89L186.912 245.755L177.814 237.778Z" fill="white" fill-opacity="0.7"/>
<path d="M214.223 257.787L205.773 250.474L199.074 260.212L207.524 267.525L214.223 257.787Z" fill="white" fill-opacity="0.7"/>
<path d="M233.237 216.929L217.635 203.63L208.964 213.342L210.893 216.642L208.871 220.546L220.564 231.175L233.237 216.929Z" fill="white" fill-opacity="0.7"/>
<path d="M232.991 235.92L227.818 229.304L218.516 237.044L225.003 243.677L232.991 235.92Z" fill="white" fill-opacity="0.7"/>
<path d="M279.736 129.036L306.841 116.941L315.129 136.696L299.93 143.05L296.097 134.486L284.2 139.573L279.736 129.036Z" fill="white" fill-opacity="0.7"/>
<path d="M269.923 210.469L272.056 198.053L260.91 195.945L258.777 208.361L269.923 210.469Z" fill="white" fill-opacity="0.7"/>
<path d="M250.323 172.801L250.594 151.846L244.68 151.77L244.824 140.638L233.652 140.494L233.237 172.581L250.323 172.801Z" fill="white" fill-opacity="0.7"/>
<path d="M246.198 136.071L252.239 126.324L271.127 139.666L265.743 149.421L246.198 136.071Z" fill="white" fill-opacity="0.7"/>
<path d="M215.71 149.244L213.285 133.494L191.531 138.454L194.63 152.903L215.71 149.244Z" fill="white" fill-opacity="0.7"/>
<path d="M186.948 137.085L183.781 127.875L173.224 131.014L176.391 140.224L186.948 137.085Z" fill="white" fill-opacity="0.7"/>
<path d="M199.074 114.318L202.419 109.776L193.961 103.118L190.624 107.005L199.074 114.318Z" fill="white" fill-opacity="0.7"/>
<path d="M176.158 107.473L167.119 94.9131L164.525 92.2599L146.603 105.783L154.337 117.672L164.287 110.595L166.873 113.903L176.158 107.473Z" fill="white" fill-opacity="0.7"/>
<path d="M158.295 134.418L158.431 123.941L140.03 123.704L139.895 134.182L158.295 134.418Z" fill="white" fill-opacity="0.7"/>
<path d="M100.357 122.616L103.147 110.208L90.6868 108.083L87.897 120.491L100.357 122.616Z" fill="white" fill-opacity="0.7"/>
<path d="M81.7281 151.06L79.354 131.381L56.9683 134.368L58.6937 153.384L81.7281 151.06Z" fill="white" fill-opacity="0.7"/>
<path d="M104.829 257.8L103.095 239.439L82.689 241.796L84.4229 260.157L104.829 257.8Z" fill="white" fill-opacity="0.7"/>
<path d="M134.974 258.21L133.172 245.087L119.995 247.538L122.462 260.013L134.974 258.21Z" fill="white" fill-opacity="0.7"/>
<path d="M72.7034 230.419L77.0366 200.347L54.7272 197.441L51.1615 219.008L59.6877 220.428L58.9202 228.932L72.7034 230.419Z" fill="white" fill-opacity="0.7"/>
<path d="M33.499 214.428L33.8129 190.199L25.2698 190.089L25.2953 188.124L12.8094 187.963L12.4615 214.812L33.499 214.428Z" fill="white" fill-opacity="0.7"/>
<path d="M506.427 287.452L523.676 293.459L530.745 271.093L514.327 265.5L506.427 287.452Z" fill="white" fill-opacity="0.7"/>
<path d="M545.959 125.019L555.518 128.747L559.053 116.529L550.324 113.215L545.959 125.019Z" fill="white" fill-opacity="0.7"/>
<path d="M542.218 122.119L537.644 137.444L514.576 128.537L522.684 105.135L533.698 109.071L530.996 117.562L542.218 122.119Z" fill="white" fill-opacity="0.7"/>
<path d="M506.058 103.063L516.449 107.206L519.567 95.8158L509.176 91.6729L506.058 103.063Z" fill="white" fill-opacity="0.7"/>
<path d="M496.738 159.947L515.858 167.404L520.847 155.393L517.937 152.907L518.561 148.558L504.014 142.344L496.738 159.947Z" fill="white" fill-opacity="0.7"/>
<path d="M490.713 141.929L497.779 146.485L504.014 136.131L495.702 131.989L490.713 141.929Z" fill="white" fill-opacity="0.7"/>
<path d="M460.462 238.488L438.846 258.781L424.507 242.834L436.77 231.859L443.212 238.693L452.773 229.996L460.462 238.488Z" fill="white" fill-opacity="0.7"/>
<path d="M417.648 119.634L425.129 129.575L431.988 123.156L424.507 113.214L417.648 119.634Z" fill="white" fill-opacity="0.7"/>
<path d="M454.133 126.961L456.21 139.387L467.433 137.731L465.356 125.305L454.133 126.961Z" fill="white" fill-opacity="0.7"/>
<path d="M484.064 227.597L490.713 247.479L496.324 245.615L499.857 256.178L510.456 252.658L500.275 222.214L484.064 227.597Z" fill="white" fill-opacity="0.7"/>
<path d="M500.064 260.941L497.569 272.124L475.332 265.702L477.203 254.726L500.064 260.941Z" fill="white" fill-opacity="0.7"/>
<path d="M524.52 238.522L532.001 252.606L550.914 240.803L543.226 228.169L524.52 238.522Z" fill="white" fill-opacity="0.7"/>
<path d="M555.694 240.596L561.72 248.26L570.658 241.84L564.631 234.177L555.694 240.596Z" fill="white" fill-opacity="0.7"/>
<path d="M551.743 266.069L550.08 271.453L560.263 274.975L562.134 270.212L551.743 266.069Z" fill="white" fill-opacity="0.7"/>
<path d="M591.581 248.438L604.258 257.344L607.583 259.001L620.054 240.364L608.832 231.665L601.765 241.605L598.232 239.326L591.581 248.438Z" fill="white" fill-opacity="0.7"/>
<path d="M611.327 220.482L614.652 230.423L632.11 224.626L628.785 214.685L611.327 220.482Z" fill="white" fill-opacity="0.7"/>
<path d="M662.368 217.929L663.821 230.562L676.291 228.492L674.838 215.859L662.368 217.929Z" fill="white" fill-opacity="0.7"/>
<path d="M674.216 195.356L682.943 213.167L703.104 203.022L695.208 185.625L674.216 195.356Z" fill="white" fill-opacity="0.7"/>
<path d="M659.67 178.787L666.527 195.148L683.154 186.866L676.505 171.126L659.67 178.787Z" fill="white" fill-opacity="0.7"/>
<path d="M717.6 162.012L725.288 178.787L743.786 169.884L736.098 153.108L717.6 162.012Z" fill="white" fill-opacity="0.7"/>
<path d="M690.375 157.246L696.401 169.051L708.04 162.425L701.598 151.448L690.375 157.246Z" fill="white" fill-opacity="0.7"/>
<path d="M674.216 48.9968L680.032 78.8192L702.063 74.2651L698.324 52.7268L689.803 54.1757L687.725 45.8916L674.216 48.9968Z" fill="white" fill-opacity="0.7"/>
<path d="M635.56 251.985L643.247 274.974L651.353 272.282L651.976 274.146L663.822 270.213L655.304 244.739L635.56 251.985Z" fill="white" fill-opacity="0.7"/>
<path d="M1027.39 242.463L1016.32 227.98L998.054 242.766L1008.66 256.446L1027.39 242.463Z" fill="white" fill-opacity="0.7"/>
<path d="M888.334 43.9358L882.417 35.576L872.712 43.8328L878.164 51.3905L888.334 43.9358Z" fill="white" fill-opacity="0.7"/>
<path d="M944.382 126.897L956.672 116.618L970.999 136.715L951.295 151.794L944.279 142.463L951.229 136.861L944.382 126.897Z" fill="white" fill-opacity="0.7"/>
<path d="M964.025 162.651L957.644 153.489L948.744 161.283L955.126 170.445L964.025 162.651Z" fill="white" fill-opacity="0.7"/>
<path d="M998.054 92.716L986.22 75.9964L975.416 83.2817L976.47 86.953L973.545 90.24L982.25 103.412L998.054 92.716Z" fill="white" fill-opacity="0.7"/>
<path d="M993.121 111.061L989.743 103.379L978.815 108.597L983.462 116.618L993.121 111.061Z" fill="white" fill-opacity="0.7"/>
<path d="M1053.19 129.259L1052.44 116.855L1043.17 118.447L1043.92 130.851L1053.19 129.259Z" fill="white" fill-opacity="0.7"/>
<path d="M1026.79 103.115L1031.93 91.6041L1021.65 86.8249L1016.51 98.3354L1026.79 103.115Z" fill="white" fill-opacity="0.7"/>
<path d="M1099.38 297.517L1104.82 277.274L1099.11 275.748L1102 264.994L1091.21 262.113L1082.87 293.11L1099.38 297.517Z" fill="white" fill-opacity="0.7"/>
<path d="M1104.46 260.905L1112.72 252.942L1127.73 270.509L1120.1 278.642L1104.46 260.905Z" fill="white" fill-opacity="0.7"/>
<path d="M985.242 273.365L986.785 257.505L964.475 256.973L963.907 271.737L985.242 273.365Z" fill="white" fill-opacity="0.7"/>
<path d="M960.371 254.521L959.579 244.817L948.571 245.268L949.364 254.972L960.371 254.521Z" fill="white" fill-opacity="0.7"/>
<path d="M977.752 235.432L982.116 231.851L975.565 223.322L971.37 226.27L977.752 235.432Z" fill="white" fill-opacity="0.7"/>
<path d="M934.757 228.276L929.101 213.884L927.242 210.675L906.53 219.383L911.086 232.803L922.48 228.387L924.169 232.228L934.757 228.276Z" fill="white" fill-opacity="0.7"/>
<path d="M902.822 240.767L905.543 230.645L887.768 225.899L885.047 236.021L902.822 240.767Z" fill="white" fill-opacity="0.7"/>
<path d="M858.813 214.878L864.584 203.537L853.033 198.418L847.262 209.759L858.813 214.878Z" fill="white" fill-opacity="0.7"/>
<path d="M836.446 227.211L839.009 207.556L816.575 204.956L813.547 223.809L836.446 227.211Z" fill="white" fill-opacity="0.7"/>
<path d="M839.425 249.025L842.748 231.606L824.293 229.39L821.14 246.177L839.425 249.025Z" fill="white" fill-opacity="0.7"/>
<path d="M831.449 151.154L834.308 132.933L813.948 130.209L811.09 148.43L831.449 151.154Z" fill="white" fill-opacity="0.7"/>
<path d="M851.536 170.077L853.033 156.917L839.656 156.057L838.964 168.754L851.536 170.077Z" fill="white" fill-opacity="0.7"/>
<path d="M859.421 56.8154L871.054 28.7338L850.151 20.4404L841.363 40.4681L849.276 43.9367L846.43 51.9908L859.421 56.8154Z" fill="white" fill-opacity="0.7"/>
<path d="M900.015 201.172L906.309 177.767L898.056 175.563L898.566 173.665L886.505 170.445L879.531 196.381L900.015 201.172Z" fill="white" fill-opacity="0.7"/>
<path fill-rule="evenodd" clip-rule="evenodd" d="M289.628 260.267C288.903 260.62 288.029 260.321 287.674 259.599L278.248 240.393C272.222 235.746 260.018 226.382 257.099 224.316C256.198 223.679 255.198 222.653 254.208 221.501C253.199 220.328 252.132 218.942 251.097 217.518C249.117 214.795 247.214 211.878 246.001 209.916L231.691 200.178L231.582 199.579C231.101 196.929 230.147 192.763 228.861 188.915C228.218 186.991 227.503 185.179 226.738 183.688C225.955 182.164 225.191 181.118 224.509 180.58C224.265 180.387 224.024 180.197 223.787 180.009C221.689 178.348 219.871 176.908 218.181 176.117C217.269 175.69 216.51 175.512 215.863 175.545C215.251 175.576 214.625 175.8 213.952 176.397C210.971 179.037 205.432 182.694 203.069 184.175C202.387 184.603 201.485 184.398 201.056 183.718C200.626 183.038 200.831 182.14 201.514 181.712C203.877 180.23 209.23 176.685 212.011 174.222C213.138 173.223 214.384 172.706 215.714 172.639C217.007 172.573 218.258 172.938 219.423 173.483C221.445 174.43 223.553 176.102 225.581 177.712C225.829 177.908 226.076 178.104 226.321 178.298C227.503 179.229 228.498 180.728 229.338 182.363C230.194 184.031 230.963 185.993 231.632 187.996C232.877 191.722 233.816 195.705 234.343 198.459L248.164 207.864L248.327 208.13C249.498 210.037 251.444 213.035 253.462 215.81C254.471 217.198 255.487 218.516 256.426 219.608C257.382 220.721 258.193 221.521 258.789 221.943C261.817 224.085 274.414 233.755 280.304 238.299L280.573 238.506L290.298 258.321C290.652 259.042 290.352 259.914 289.628 260.267Z" fill="#CCD3E7" fill-opacity="0.4"/>
<path fill-rule="evenodd" clip-rule="evenodd" d="M118.561 143.384C118.325 144.152 117.509 144.585 116.738 144.35C114.648 143.713 111.287 142.625 107.976 141.426C104.699 140.24 101.357 138.904 99.3776 137.765C97.3835 136.618 94.8974 134.595 92.6544 132.602C90.389 130.589 88.2832 128.528 87.0293 127.236C86.4685 126.659 86.4837 125.737 87.0633 125.178C87.6429 124.62 88.5674 124.635 89.1281 125.212C90.3382 126.459 92.3922 128.47 94.598 130.43C96.826 132.41 99.1224 134.258 100.838 135.245C102.568 136.24 105.684 137.5 108.974 138.691C112.229 139.87 115.542 140.942 117.592 141.567C118.363 141.802 118.797 142.615 118.561 143.384Z" fill="#CCD3E7" fill-opacity="0.4"/>
<path fill-rule="evenodd" clip-rule="evenodd" d="M140.732 178.92C140.329 179.616 139.436 179.854 138.737 179.452L117.19 167.056L117.144 167.024C116.175 166.363 114.728 165.168 113.425 163.662C112.137 162.174 110.87 160.246 110.471 158.123C110.331 157.376 110.455 156.474 110.644 155.617C110.844 154.708 111.167 153.646 111.572 152.488C112.383 150.17 113.564 147.356 114.892 144.423C117.551 138.549 120.843 132.087 123.065 127.928C123.444 127.218 124.328 126.949 125.04 127.327C125.752 127.705 126.022 128.586 125.643 129.295C123.44 133.418 120.179 139.821 117.554 145.619C116.241 148.521 115.099 151.246 114.33 153.446C113.944 154.548 113.662 155.49 113.497 156.241C113.32 157.043 113.317 157.455 113.342 157.588C113.604 158.981 114.495 160.442 115.637 161.761C116.741 163.038 117.969 164.054 118.749 164.592L140.197 176.932C140.896 177.334 141.135 178.224 140.732 178.92Z" fill="#CCD3E7" fill-opacity="0.4"/>
<path opacity="0.8" d="M820.105 184.866C826.109 186.644 841.62 189.134 855.638 184.866C873.161 179.53 875.108 168.86 884.357 164.009C891.755 160.129 900.095 160.452 903.34 161.099" stroke="#CCD3E7" stroke-width="2.92051" stroke-linecap="round"/>
<path d="M1083 209.649C1061.8 210.303 1006.58 206.634 961.261 188.188C892.99 160.4 869.145 123.183 827.603 100.995C767.505 68.8957 695.868 89.0172 662.213 141.236C629.737 191.627 562.209 222.203 475.187 210.705C435.14 205.413 406.502 195.206 329.028 187.156C307.553 184.783 271.815 178.732 238.16 184.829C220.795 187.975 205.05 194.837 188 201.831" stroke="#CCD3E7" stroke-width="5.92645" stroke-linecap="round"/>
</svg>
