<?xml version="1.0" encoding="UTF-8"?>
<svg width="114px" height="24px" viewBox="0 0 114 24" version="1.1" xmlns="http://www.w3.org/2000/svg" xmlns:xlink="http://www.w3.org/1999/xlink">
    <title>Slice</title>
    <g id="Page-1" stroke="none" stroke-width="1" fill="none" fill-rule="evenodd">
        <g id="Group" transform="translate(-0.004597, 0.000000)" fill-rule="nonzero">
            <path d="M111.004597,24 C112.661451,24 114.004597,22.6568542 114.004597,21 C114.004597,19.3431458 112.661451,18 111.004597,18 C109.347743,18 108.004597,19.3431458 108.004597,21 C108.004597,22.6568542 109.347743,24 111.004597,24 Z" id="Path" fill="#0D2D80"></path>
            <path d="M91.1745969,24 C92.0245969,24 92.3945969,23.63 92.3945969,22.8 L92.3945969,15.07 L98.6445969,15.07 L98.6445969,22.8 C98.6445969,23.63 99.0145969,24 99.8645969,24 L104.784597,24 C105.634597,24 106.004597,23.63 106.004597,22.8 L106.004597,1.2 C106.004597,0.37 105.634597,0 104.784597,0 L99.8645969,0 C99.0045969,0 98.6445969,0.37 98.6445969,1.2 L98.6445969,8.38 L92.3945969,8.38 L92.3945969,1.2 C92.3945969,0.37 92.0045969,0 91.1745969,0 L86.1745969,0 C85.3745969,0 85.0045969,0.37 85.0045969,1.2 L85.0045969,22.8 C85.0045969,23.63 85.3745969,24 86.2245969,24 L91.1745969,24 Z" id="Path" fill="#0D2D80"></path>
            <path d="M80.8445969,24 C81.6445969,24 82.0045969,23.63 82.0045969,22.8 L82.0045969,19.07 C82.0045969,18.24 81.6445969,17.87 80.8445969,17.87 L74.3445969,17.87 C72.9845969,17.87 72.3445969,17.37 72.3445969,16.27 L72.3445969,7.83 C72.3445969,6.7 72.9545969,6.17 74.3445969,6.17 L80.8445969,6.17 C81.6445969,6.17 82.0045969,5.8 82.0045969,5 L82.0045969,1.2 C82.0045969,0.37 81.6445969,0 80.8445969,0 L73.0045969,0 C67.5745969,0 65.0045969,2.17 65.0045969,6.83 L65.0045969,17.2 C65.0045969,21.83 67.5245969,24 73.0045969,24 L80.8445969,24 Z" id="Path" fill="#0D2D80"></path>
            <path d="M55.7045969,24 C56.5345969,24 56.9045969,23.63 56.9045969,22.8 L56.9045969,6.15 L61.8045969,6.15 C62.6345969,6.15 63.0045969,5.78 63.0045969,4.95 L63.0045969,1.2 C63.0045969,0.37 62.6345969,0 61.8045969,0 L44.2045969,0 C43.3745969,0 43.0045969,0.37 43.0045969,1.2 L43.0045969,5 C43.0045969,5.83 43.3745969,6.2 44.2045969,6.2 L49.1045969,6.2 L49.1045969,22.8 C49.1045969,23.63 49.4745969,24 50.3045969,24 L55.7045969,24 Z" id="Path" fill="#0D2D80"></path>
            <path d="M39.7545969,24 C40.5945969,24 40.9645969,23.63 40.9645969,22.8 L40.9645969,19.06 C40.9645969,18.22 40.5945969,17.86 39.7545969,17.86 L30.8545969,17.86 L30.8545969,15.07 L36.9445969,15.07 C37.7845969,15.07 38.1545969,14.7 38.1545969,13.87 L38.1545969,10.14 C38.1545969,9.31 37.7845969,8.94 36.9445969,8.94 L30.8545969,8.94 L30.8545969,6.14 L39.7545969,6.14 C40.5945969,6.14 40.9645969,5.77 40.9645969,4.94 L40.9645969,1.2 C41.0045969,0.37 40.5945969,0 39.7545969,0 L24.1745969,0 C23.3345969,0 23.0045969,0.37 23.0045969,1.2 L23.0045969,22.8 C23.0045969,23.63 23.3745969,24 24.2145969,24 L39.7545969,24 Z" id="Path" fill="#0D2D80"></path>
            <path d="M14.1845969,24 C14.9284946,24.0911328 15.6266628,23.6228493 15.8245969,22.9 L19.0045969,14.73 C19.7106785,13.2557478 20.0535676,11.6338827 20.0045969,10 L20.0045969,1.2 C20.0045969,0.37 19.6845969,3.55271368e-15 18.8445969,3.55271368e-15 L13.7945969,3.55271368e-15 C12.9945969,3.55271368e-15 12.6445969,0.37 12.6445969,1.2 L12.6445969,10.37 C12.632143,10.8344211 12.5443328,11.2937357 12.3845969,11.73 L10.8745969,16.43 C10.7445969,16.87 10.6145969,17 10.2645969,17 L9.90459691,17 C9.55459691,17 9.42459691,16.87 9.29459691,16.43 L7.78459691,11.77 C7.62396775,11.3305213 7.53614657,10.8677712 7.52459691,10.4 L7.52459691,1.2 C7.52459691,0.37 7.07459691,3.55271368e-15 6.27459691,3.55271368e-15 L1.16459691,3.55271368e-15 C0.354596912,3.55271368e-15 0.00459691208,0.37 0.00459691208,1.2 L0.00459691208,10 C-0.0443737544,11.6338827 0.298515291,13.2557478 1.00459691,14.73 L4.18459691,22.9 C4.38253101,23.6228493 5.08069923,24.0911328 5.82459691,24 L14.1845969,24 Z" id="Path" fill="#0C2D80"></path>
        </g>
    </g>
</svg>