<svg width="50" height="50" viewBox="0 0 50 50" fill="none" xmlns="http://www.w3.org/2000/svg">
<path fill-rule="evenodd" clip-rule="evenodd" d="M32.5679 0C37.5875 0 40.0967 0 42.7988 0.854167C45.7487 1.92792 48.0721 4.25125 49.1458 7.20125C50 9.90292 50 12.4129 50 17.4321V32.5679C50 37.5875 50 40.0967 49.1458 42.7988C48.0721 45.7487 45.7487 48.0721 42.7988 49.1454C40.0967 50 37.5875 50 32.5679 50H17.4321C12.4125 50 9.90292 50 7.20125 49.1454C4.25125 48.0721 1.92792 45.7487 0.854167 42.7988C0 40.0967 0 37.5875 0 32.5679V17.4321C0 12.4129 0 9.90292 0.854167 7.20125C1.92792 4.25125 4.25125 1.92792 7.20125 0.854167C9.90292 0 12.4125 0 17.4321 0H32.5679Z" fill="#FFC911"/>
<path d="M33.5702 35.2298C34.9493 35.2298 36.0672 34.1119 36.0672 32.7328C36.0672 31.3538 34.9493 30.2358 33.5702 30.2358C32.1912 30.2358 31.0732 31.3538 31.0732 32.7328C31.0732 34.1119 32.1912 35.2298 33.5702 35.2298Z" fill="#0D2D80"/>
<path d="M27.0612 35.2305C27.757 35.2305 28.1585 35.0085 28.4261 34.3149L31.0489 27.5176C31.6912 25.853 31.9053 25.3258 31.9053 23.5779V16.2535C31.9053 15.5599 31.6376 15.2547 30.9418 15.2547H26.74C26.071 15.2547 25.7766 15.5599 25.7766 16.2535V23.8831C25.7766 24.2715 25.6963 24.6045 25.5625 25.0206L24.3046 28.9326C24.1976 29.2932 24.0905 29.4042 23.7961 29.4042H23.5017C23.2074 29.4042 23.1003 29.2932 22.9932 28.9326L21.7354 25.0484C21.6016 24.6322 21.5213 24.2993 21.5213 23.9109V16.2535C21.5213 15.5599 21.1466 15.2547 20.4775 15.2547H16.2223C15.5532 15.2547 15.2588 15.5599 15.2588 16.2535V23.5779C15.2588 25.3258 15.4729 25.853 16.1152 27.5176L18.738 34.3149C19.0056 35.0085 19.407 35.2305 20.1029 35.2305H27.0612Z" fill="#0C2D80"/>
</svg>
